<?xml version="1.0" encoding="UTF-8"?>
<svg width="20px" height="14px" viewBox="0 0 20 14" version="1.1" xmlns="http://www.w3.org/2000/svg" xmlns:xlink="http://www.w3.org/1999/xlink">
    <!-- Generator: Sketch 47.1 (45422) - http://www.bohemiancoding.com/sketch -->
    <title>KH</title>
    <desc>Created with Sketch.</desc>
    <defs>
        <rect id="path-1" x="0" y="0" width="20" height="14" rx="2"></rect>
    </defs>
    <g id="Page-1" stroke="none" stroke-width="1" fill="none" fill-rule="evenodd">
        <g id="Flags" transform="translate(-316.000000, -508.000000)">
            <g id="KH" transform="translate(316.000000, 508.000000)">
                <mask id="mask-2" fill="white">
                    <use xlink:href="#path-1"></use>
                </mask>
                <use id="Mask" fill="#FFFFFF" xlink:href="#path-1"></use>
                <rect id="Rectangle-2" fill="#0F3EB6" mask="url(#mask-2)" x="0" y="0" width="20" height="3.73333333"></rect>
                <rect id="Rectangle-2" fill="#0F3EB6" mask="url(#mask-2)" x="0" y="10.2666667" width="20" height="3.73333333"></rect>
                <rect id="Rectangle-2" fill="#ED1A3C" mask="url(#mask-2)" x="0" y="3.73333333" width="20" height="6.53333333"></rect>
                <path d="M7.14285714,7.46666667 L8.0952381,7.46666667 L8.0952381,9.33333333 L6.19047619,9.33333333 L7.14285714,7.46666667 Z M8.57142857,7.46666667 L11.4285714,7.46666667 L11.4285714,9.33333333 L8.57142857,9.33333333 L8.57142857,7.46666667 Z M11.9047619,7.46666667 L12.8571429,7.46666667 L13.8095238,9.33333333 L11.9047619,9.33333333 L11.9047619,7.46666667 Z M11.9047619,6.07397614 C11.9047619,5.81220634 12.125651,5.6 12.3809524,5.6 C12.6439451,5.6 12.8571429,5.81875 12.8571429,6.07397614 L12.8571429,7 L11.9047619,7 L11.9047619,6.07397614 Z M8.57142857,6.10904948 L9.52380952,6.10904948 L9.52380952,5.80032679 C9.52380952,5.43195648 9.82514881,5.13333333 10.1955959,5.13333333 L9.80440412,5.13333333 C10.1754215,5.13333333 10.4761905,5.43138208 10.4761905,5.80032679 L10.4761905,6.10904948 L11.4285714,6.10904948 L11.4285714,7 L8.57142857,7 L8.57142857,6.10904948 Z M7.14285714,6.07397614 C7.14285714,5.81220634 7.36374628,5.6 7.61904762,5.6 C7.88204036,5.6 8.0952381,5.81875 8.0952381,6.07397614 L8.0952381,7 L7.14285714,7 L7.14285714,6.07397614 Z" id="Rectangle-621" fill="#FFFFFF" mask="url(#mask-2)"></path>
            </g>
        </g>
    </g>
</svg>