<?xml version="1.0" encoding="UTF-8"?>
<svg width="20px" height="14px" viewBox="0 0 20 14" version="1.1" xmlns="http://www.w3.org/2000/svg" xmlns:xlink="http://www.w3.org/1999/xlink">
    <!-- Generator: Sketch 44.1 (41455) - http://www.bohemiancoding.com/sketch -->
    <title>HR</title>
    <desc>Created with Sketch.</desc>
    <defs>
        <rect id="path-1" x="0" y="0" width="20" height="14" rx="2"></rect>
        <linearGradient x1="50%" y1="0%" x2="50%" y2="100%" id="linearGradient-3">
            <stop stop-color="#FF202D" offset="0%"></stop>
            <stop stop-color="#FD0D1B" offset="100%"></stop>
        </linearGradient>
    </defs>
    <g id="Page-1" stroke="none" stroke-width="1" fill="none" fill-rule="evenodd">
        <g id="Flags" transform="translate(-220.000000, -364.000000)">
            <g id="HR" transform="translate(220.000000, 364.000000)">
                <mask id="mask-2" fill="white">
                    <use xlink:href="#path-1"></use>
                </mask>
                <g id="Mask">
                    <use fill="#FFFFFF" fill-rule="evenodd" xlink:href="#path-1"></use>
                    <rect stroke="#F5F5F5" stroke-width="0.5" x="0.25" y="0.25" width="19.5" height="13.5" rx="2"></rect>
                </g>
                <rect id="Rectangle-2" fill="#FF202D" mask="url(#mask-2)" x="0" y="0" width="20" height="4.66666667"></rect>
                <path d="M7.61904762,3.73333333 L8.0952381,3.26666667 L8.57142857,3.73333333 L8.57142857,4.66666667 L7.61904762,4.66666667 L7.61904762,3.73333333 Z M9.52380952,3.73333333 L10,3.26666667 L10.4761905,3.73333333 L10.4761905,4.66666667 L9.52380952,4.66666667 L9.52380952,3.73333333 Z M11.4285714,3.73333333 L11.9047619,3.26666667 L12.3809524,3.73333333 L12.3809524,4.66666667 L11.4285714,4.66666667 L11.4285714,3.73333333 Z" id="Rectangle-675" fill="#1895DB" opacity="0.5" mask="url(#mask-2)"></path>
                <path d="M8.57142857,3.73333333 L9.04761905,3.26666667 L9.52380952,3.73333333 L9.52380952,4.66666667 L8.57142857,4.66666667 L8.57142857,3.73333333 Z M10.4761905,3.73333333 L10.952381,3.26666667 L11.4285714,3.73333333 L11.4285714,4.66666667 L10.4761905,4.66666667 L10.4761905,3.73333333 Z" id="Rectangle-675" fill="#191F94" opacity="0.5" mask="url(#mask-2)"></path>
                <rect id="Rectangle-2" fill="#2027AC" mask="url(#mask-2)" x="0" y="9.33333333" width="20" height="4.66666667"></rect>
                <path d="M9.52380952,4.66666667 L10.4761905,4.66666667 L10.4761905,5.6 L9.52380952,5.6 L9.52380952,4.66666667 Z M11.4285714,4.66666667 L11.9047619,4.66666667 L12.3809524,5.6 L11.4285714,5.6 L11.4285714,4.66666667 Z M8.0952381,4.66666667 L8.57142857,4.66666667 L8.57142857,5.6 L7.61904762,5.6 L8.0952381,4.66666667 Z M8.57142857,5.6 L9.52380952,5.6 L9.52380952,6.53333333 L8.57142857,6.53333333 L8.57142857,5.6 Z M10.4761905,5.6 L11.4285714,5.6 L11.4285714,6.53333333 L10.4761905,6.53333333 L10.4761905,5.6 Z M9.52380952,6.53333333 L10.4761905,6.53333333 L10.4761905,7.46666667 L9.52380952,7.46666667 L9.52380952,6.53333333 Z M11.4285714,6.53333333 L12.3809524,6.53333333 L12.3809524,7.46666667 L11.4285714,7.46666667 L11.4285714,6.53333333 Z M10.4761905,7.46666667 L11.4285714,7.46666667 L11.4285714,8.4 L10.4761905,8.4 L10.4761905,7.46666667 Z M7.61904762,6.53333333 L8.57142857,6.53333333 L8.57142857,7.46666667 L7.61904762,7.46666667 L7.61904762,6.53333333 Z M8.57142857,7.46666667 L9.52380952,7.46666667 L9.52380952,8.4 L8.57142857,8.4 L8.57142857,7.46666667 Z M7.61904762,8.4 L8.57142857,8.4 L8.57142857,9.33333333 L7.61904762,9.33333333 L7.61904762,8.4 Z M9.52380952,8.4 L10.4761905,8.4 L10.4761905,9.33333333 L9.52380952,9.33333333 L9.52380952,8.4 Z M11.4285714,8.4 L12.3809524,8.4 L12.3809524,9.33333333 L11.4285714,9.33333333 L11.4285714,8.4 Z M10.4761905,9.33333333 L11.4285714,9.33333333 L11.4285714,10.2666667 L10.4761905,10.2666667 L10.4761905,9.33333333 Z M8.57142857,9.33333333 L9.52380952,9.33333333 L9.52380952,10.2666667 L8.57142857,10.2666667 L8.57142857,9.33333333 Z" id="Rectangle-657" fill="url(#linearGradient-3)" mask="url(#mask-2)"></path>
            </g>
        </g>
    </g>
</svg>