<?xml version="1.0" encoding="UTF-8"?>
<svg width="20px" height="14px" viewBox="0 0 20 14" version="1.1" xmlns="http://www.w3.org/2000/svg" xmlns:xlink="http://www.w3.org/1999/xlink">
    <!-- Generator: Sketch 44.1 (41455) - http://www.bohemiancoding.com/sketch -->
    <title>BR</title>
    <desc>Created with Sketch.</desc>
    <defs>
        <rect id="path-1" x="0" y="0" width="20" height="14" rx="2"></rect>
        <ellipse id="path-3" cx="3.33333333" cy="3.26666667" rx="3.33333333" ry="3.26666667"></ellipse>
    </defs>
    <g id="Page-1" stroke="none" stroke-width="1" fill="none" fill-rule="evenodd">
        <g id="Flags" transform="translate(-604.000000, -76.000000)">
            <g id="BR" transform="translate(604.000000, 76.000000)">
                <mask id="mask-2" fill="white">
                    <use xlink:href="#path-1"></use>
                </mask>
                <use id="Mask" fill="#FFFFFF" xlink:href="#path-1"></use>
                <rect id="Mask-Copy" fill="#05AB41" mask="url(#mask-2)" x="0" y="0" width="20" height="14"></rect>
                <path d="M2.4611804,7.35283479 C2.15387895,7.15796952 2.15591323,6.84074051 2.4611804,6.64716521 L9.4435815,2.21950146 C9.75088295,2.02463618 10.2511513,2.02592615 10.5564185,2.21950146 L17.5388196,6.64716521 C17.846121,6.84203048 17.8440868,7.15925949 17.5388196,7.35283479 L10.5564185,11.7804985 C10.249117,11.9753638 9.74884868,11.9740738 9.4435815,11.7804985 L2.4611804,7.35283479 Z" id="Rectangle-60" fill="#FDD216" mask="url(#mask-2)"></path>
                <g id="Oval-2" mask="url(#mask-2)">
                    <g transform="translate(6.666667, 3.733333)">
                        <mask id="mask-4" fill="white">
                            <use xlink:href="#path-3"></use>
                        </mask>
                        <use id="Mask" stroke="none" fill="#053087" fill-rule="evenodd" xlink:href="#path-3"></use>
                        <path d="M-0.476190476,2.8 C2.76445533e-14,2.33333335 1.72154018,2.55162764 3.33333333,2.80000001 C4.94512649,3.04837237 6.67246825,3.73901896 7.14285714,4.2" id="Line" stroke="#FFFFFF" stroke-width="1.33333333" fill="none" stroke-linecap="square" mask="url(#mask-4)" transform="translate(3.333333, 3.362938) rotate(6.000000) translate(-3.333333, -3.362938) "></path>
                    </g>
                </g>
            </g>
        </g>
    </g>
</svg>