<?xml version="1.0" encoding="UTF-8"?>
<svg width="20px" height="14px" viewBox="0 0 20 14" version="1.1" xmlns="http://www.w3.org/2000/svg" xmlns:xlink="http://www.w3.org/1999/xlink">
    <!-- Generator: Sketch 44.1 (41455) - http://www.bohemiancoding.com/sketch -->
    <title>PR</title>
    <desc>Created with Sketch.</desc>
    <defs>
        <rect id="path-1" x="0" y="0" width="20" height="14" rx="2"></rect>
        <linearGradient x1="50%" y1="0%" x2="50%" y2="100%" id="linearGradient-3">
            <stop stop-color="#FFFFFF" offset="0%"></stop>
            <stop stop-color="#F0F0F0" offset="100%"></stop>
        </linearGradient>
        <polygon id="path-4" points="3.33333333 7.89185574 1.93384464 8.88770632 2.46781781 7.27559858 1.06891306 6.27896035 2.79841532 6.27847355 3.33333333 4.66666667 3.86825134 6.27847355 5.59775361 6.27896035 4.19884885 7.27559858 4.73282203 8.88770632"></polygon>
        <filter x="-10.5%" y="-10.7%" width="121.0%" height="142.9%" filterUnits="objectBoundingBox" id="filter-5">
            <feOffset dx="0" dy="1" in="SourceAlpha" result="shadowOffsetOuter1"></feOffset>
            <feColorMatrix values="0 0 0 0 0   0 0 0 0 0   0 0 0 0 0  0 0 0 0.06 0" type="matrix" in="shadowOffsetOuter1"></feColorMatrix>
        </filter>
    </defs>
    <g id="Page-1" stroke="none" stroke-width="1" fill="none" fill-rule="evenodd">
        <g id="Flags" transform="translate(-460.000000, -748.000000)">
            <g id="PR" transform="translate(460.000000, 748.000000)">
                <mask id="mask-2" fill="white">
                    <use xlink:href="#path-1"></use>
                </mask>
                <g id="Mask">
                    <use fill="#FFFFFF" fill-rule="evenodd" xlink:href="#path-1"></use>
                    <rect stroke="#F5F5F5" stroke-width="0.5" x="0.25" y="0.25" width="19.5" height="13.5" rx="2"></rect>
                </g>
                <path d="M0,0 L20,0 L20,14 L0,14 L0,0 Z M0,5.6 L0,2.8 L20,2.8 L20,5.6 L0,5.6 Z M0,11.2 L0,8.4 L20,8.4 L20,11.2 L0,11.2 Z" id="Combined-Shape" fill="#FA2222" mask="url(#mask-2)"></path>
                <polygon id="Rectangle-83" fill="#1D63F9" mask="url(#mask-2)" points="0 0 9.52380952 7 0 14"></polygon>
                <g id="Star-27" mask="url(#mask-2)">
                    <use fill="black" fill-opacity="1" filter="url(#filter-5)" xlink:href="#path-4"></use>
                    <use fill="url(#linearGradient-3)" fill-rule="evenodd" xlink:href="#path-4"></use>
                </g>
            </g>
        </g>
    </g>
</svg>