<?xml version="1.0" encoding="UTF-8"?>
<svg width="20px" height="14px" viewBox="0 0 20 14" version="1.1" xmlns="http://www.w3.org/2000/svg" xmlns:xlink="http://www.w3.org/1999/xlink">
    <!-- Generator: Sketch 45.1 (43504) - http://www.bohemiancoding.com/sketch -->
    <title>NP</title>
    <desc>Created with Sketch.</desc>
    <defs>
        <rect id="path-1" x="0" y="0" width="20" height="14" rx="2"></rect>
        <path d="M0,2.00585866 C0,0.898053512 0.885465713,1.4212364e-09 1.9047619,2.3896439e-09 L1.23856862,1.75671053e-09 C1.60649701,2.10626998e-09 2.15409239,0.16289592 2.45598566,0.360132855 L12.2167052,6.73713629 C12.8334019,7.14004479 12.7354794,7.46666667 12.0061965,7.46666667 L5.71428571,7.46666667 L12.3215826,13.1324238 C12.8803571,13.6115729 12.7432126,14 12.0061366,14 L1.99613472,14 C0.893699955,14 0,13.1029399 0,11.9941413 L0,2.00585866 Z" id="path-3"></path>
        <path d="M0,0 L1.23856862,0 C1.60649701,0 2.15409239,0.162895918 2.45598566,0.360132853 L12.2167052,6.73713628 C12.8334019,7.14004479 12.7354794,7.46666667 12.0061965,7.46666667 L5.71428571,7.46666667 L12.3215826,13.1324238 C12.8803571,13.6115729 12.7432126,14 12.0061366,14 L0,14 L0,0 Z" id="path-5"></path>
    </defs>
    <g id="Page-1" stroke="none" stroke-width="1" fill="none" fill-rule="evenodd">
        <g id="Flags" transform="translate(-268.000000, -652.000000)">
            <g id="NP" transform="translate(268.000000, 652.000000)">
                <mask id="mask-2" fill="white">
                    <use xlink:href="#path-1"></use>
                </mask>
                <g id="Mask">
                    <use fill="#FFFFFF" fill-rule="evenodd" xlink:href="#path-1"></use>
                    <rect stroke="#F5F5F5" stroke-width="0.5" x="0.25" y="0.25" width="19.5" height="13.5" rx="2"></rect>
                </g>
                <mask id="mask-4" fill="white">
                    <use xlink:href="#path-3"></use>
                </mask>
                <use id="Mask" fill="#FFFFFF" xlink:href="#path-3"></use>
                <g id="Mask-Copy" mask="url(#mask-4)">
                    <use fill="#EE1B44" fill-rule="evenodd" xlink:href="#path-5"></use>
                    <path stroke="#0543A8" stroke-width="1.33333333" d="M0.666666667,0.666666667 L0.666666667,13.3333333 L11.5317316,13.3333333 L3.91268398,6.8 L11.0940416,6.8 L2.09135327,0.918243653 C1.8972502,0.791429649 1.47622516,0.666666667 1.23856862,0.666666667 L0.666666667,0.666666667 Z"></path>
                </g>
                <path d="M4.89363354,5.46053718 C5.16799772,5.3868511 5.42093664,5.28607263 5.64464888,5.1632987 C5.42275614,5.95315666 4.68453391,6.53333333 3.80803869,6.53333333 C2.93154348,6.53333333 2.19332124,5.95315666 1.97142851,5.1632987 C2.19576009,5.28641253 2.44948041,5.38740894 2.72472307,5.46114855 L3.0952381,5.13333333 L2.48969591,4.59757653 L3.30444754,4.63835859 L3.26283319,3.83990199 L3.80952381,4.43333333 L4.35621443,3.83990199 L4.31460008,4.63835859 L5.12935171,4.59757653 L4.52380952,5.13333333 L4.89363354,5.46053718 Z M3.80952381,11.2 L3.08060299,11.9912418 L3.13608878,10.926633 L2.04975327,10.9810091 L2.85714286,10.2666667 L2.04975327,9.55232426 L3.13608878,9.60670034 L3.08060299,8.54209154 L3.80952381,9.33333333 L4.53844463,8.54209154 L4.48295884,9.60670034 L5.56929435,9.55232426 L4.76190476,10.2666667 L5.56929435,10.9810091 L4.48295884,10.926633 L4.53844463,11.9912418 L3.80952381,11.2 Z" id="Star-93" fill="#FFFFFF" mask="url(#mask-4)"></path>
            </g>
        </g>
    </g>
</svg>