<?xml version="1.0" encoding="UTF-8"?>
<svg width="20px" height="14px" viewBox="0 0 20 14" version="1.1" xmlns="http://www.w3.org/2000/svg" xmlns:xlink="http://www.w3.org/1999/xlink">
    <!-- Generator: Sketch 44.1 (41455) - http://www.bohemiancoding.com/sketch -->
    <title>DK</title>
    <desc>Created with Sketch.</desc>
    <defs>
        <rect id="path-1" x="0" y="0" width="20" height="14" rx="2"></rect>
    </defs>
    <g id="Page-1" stroke="none" stroke-width="1" fill="none" fill-rule="evenodd">
        <g id="Flags" transform="translate(-28.000000, -172.000000)">
            <g id="DK" transform="translate(28.000000, 172.000000)">
                <mask id="mask-2" fill="white">
                    <use xlink:href="#path-1"></use>
                </mask>
                <g id="Mask">
                    <use fill="#FFFFFF" fill-rule="evenodd" xlink:href="#path-1"></use>
                    <rect stroke="#F5F5F5" stroke-width="0.5" x="0.25" y="0.25" width="19.5" height="13.5" rx="2"></rect>
                </g>
                <path d="M0,2.00585866 C0,0.898053512 0.898212381,0 1.99079514,0 L18.0092049,0 C19.1086907,0 20,0.897060126 20,2.00585866 L20,11.9941413 C20,13.1019465 19.1017876,14 18.0092049,14 L1.99079514,14 C0.891309342,14 0,13.1029399 0,11.9941413 L0,2.00585866 Z M0,8.4 L5.71428571,8.4 L5.71428571,14 L8.57142857,14 L8.57142857,8.4 L20,8.4 L20,5.6 L8.57142857,5.6 L8.57142857,0 L5.71428571,0 L5.71428571,5.6 L0,5.6 L0,8.4 Z" id="Combined-Shape" fill="#EF264D" mask="url(#mask-2)"></path>
            </g>
        </g>
    </g>
</svg>