<?xml version="1.0" encoding="UTF-8"?>
<svg width="20px" height="14px" viewBox="0 0 20 14" version="1.1" xmlns="http://www.w3.org/2000/svg" xmlns:xlink="http://www.w3.org/1999/xlink">
    <!-- Generator: Sketch 44.1 (41455) - http://www.bohemiancoding.com/sketch -->
    <title>IS</title>
    <desc>Created with Sketch.</desc>
    <defs>
        <rect id="path-1" x="0" y="0" width="20" height="14" rx="2"></rect>
    </defs>
    <g id="Page-1" stroke="none" stroke-width="1" fill="none" fill-rule="evenodd">
        <g id="Flags" transform="translate(-268.000000, -412.000000)">
            <g id="IS" transform="translate(268.000000, 412.000000)">
                <mask id="mask-2" fill="white">
                    <use xlink:href="#path-1"></use>
                </mask>
                <use id="Mask" fill="#FFFFFF" xlink:href="#path-1"></use>
                <rect id="Mask-Copy" fill="#0E4CB5" mask="url(#mask-2)" x="0" y="0" width="20" height="14"></rect>
                <polygon id="Rectangle-2" fill="#FFFFFF" mask="url(#mask-2)" points="0 8.4 5.71428571 8.4 5.71428571 14 8.57142857 14 8.57142857 8.4 20 8.4 20 5.6 8.57142857 5.6 8.57142857 0 5.71428571 0 5.71428571 5.6 0 5.6"></polygon>
                <polygon id="Rectangle-2" fill="#EB363A" mask="url(#mask-2)" points="0 7.46666667 6.66666667 7.46666667 6.66666667 14 7.61904762 14 7.61904762 7.46666667 20 7.46666667 20 6.53333333 7.61904762 6.53333333 7.61904762 0 6.66666667 0 6.66666667 6.53333333 0 6.53333333"></polygon>
            </g>
        </g>
    </g>
</svg>