<?xml version="1.0" encoding="UTF-8"?>
<svg width="20px" height="14px" viewBox="0 0 20 14" version="1.1" xmlns="http://www.w3.org/2000/svg" xmlns:xlink="http://www.w3.org/1999/xlink">
    <!-- Generator: Sketch 44.1 (41455) - http://www.bohemiancoding.com/sketch -->
    <title>UY</title>
    <desc>Created with Sketch.</desc>
    <defs>
        <rect id="path-1" x="0" y="0" width="20" height="14" rx="2"></rect>
    </defs>
    <g id="Page-1" stroke="none" stroke-width="1" fill="none" fill-rule="evenodd">
        <g id="Flags" transform="translate(-124.000000, -988.000000)">
            <g id="UY" transform="translate(124.000000, 988.000000)">
                <mask id="mask-2" fill="white">
                    <use xlink:href="#path-1"></use>
                </mask>
                <g id="Mask">
                    <use fill="#FFFFFF" fill-rule="evenodd" xlink:href="#path-1"></use>
                    <rect stroke="#F5F5F5" stroke-width="0.5" x="0.25" y="0.25" width="19.5" height="13.5" rx="2"></rect>
                </g>
                <path d="M0,0 L20,0 L20,14 L0,14 L0,0 Z M9.52380952,0 L20,0 L20,1.86666667 L9.52380952,1.86666667 L9.52380952,0 Z M9.52380952,3.73333333 L9.52380952,5.6 L20,5.6 L20,3.73333333 L9.52380952,3.73333333 Z M9.52380952,7.46666667 L9.52380952,9.33333333 L20,9.33333333 L20,7.46666667 L9.52380952,7.46666667 Z M0,11.2 L0,13.0666667 L20,13.0666667 L20,11.2 L0,11.2 Z M0,0 L9.52380952,0 L9.52380952,9.33333333 L0,9.33333333 L0,0 Z" id="Combined-Shape" fill="#0E4DC5" mask="url(#mask-2)"></path>
                <path d="M4.76190476,6.52491136 L4.12613066,7.45496636 L3.96508916,6.34668075 L2.98050533,6.91429636 L3.32609266,5.84728971 L2.187708,5.94004267 L2.97147636,5.12564873 L1.9047619,4.7251682 L2.97147636,4.32468768 L2.187708,3.51029374 L3.32609266,3.6030467 L2.98050533,2.53604005 L3.96508916,3.10365566 L4.12613066,1.99537005 L4.76190476,2.92542505 L5.39767886,1.99537005 L5.55872036,3.10365566 L6.5433042,2.53604005 L6.19771686,3.6030467 L7.33610153,3.51029374 L6.55233316,4.32468768 L7.61904762,4.7251682 L6.55233316,5.12564873 L7.33610153,5.94004267 L6.19771686,5.84728971 L6.5433042,6.91429636 L5.55872036,6.34668075 L5.39767886,7.45496636 L4.76190476,6.52491136 Z M4.76190476,6.50698639 C5.76605885,6.50698639 6.58008658,5.70923921 6.58008658,4.7251682 C6.58008658,3.7410972 5.76605885,2.94335002 4.76190476,2.94335002 C3.75775067,2.94335002 2.94372294,3.7410972 2.94372294,4.7251682 C2.94372294,5.70923921 3.75775067,6.50698639 4.76190476,6.50698639 Z M4.76190476,6.06666667 C3.97292655,6.06666667 3.33333333,5.43986532 3.33333333,4.66666667 C3.33333333,3.89346802 3.97292655,3.26666667 4.76190476,3.26666667 C5.55088298,3.26666667 6.19047619,3.89346802 6.19047619,4.66666667 C6.19047619,5.43986532 5.55088298,6.06666667 4.76190476,6.06666667 Z" id="Star-28" fill="#FED443" mask="url(#mask-2)"></path>
            </g>
        </g>
    </g>
</svg>