<?xml version="1.0" encoding="UTF-8"?>
<svg width="20px" height="14px" viewBox="0 0 20 14" version="1.1" xmlns="http://www.w3.org/2000/svg" xmlns:xlink="http://www.w3.org/1999/xlink">
    <!-- Generator: Sketch 45.2 (43514) - http://www.bohemiancoding.com/sketch -->
    <title>LK</title>
    <desc>Created with Sketch.</desc>
    <defs>
        <rect id="path-1" x="0" y="0" width="20" height="14" rx="2"></rect>
    </defs>
    <g id="Page-1" stroke="none" stroke-width="1" fill="none" fill-rule="evenodd">
        <g id="Flags" transform="translate(-508.000000, -556.000000)">
            <g id="LK" transform="translate(508.000000, 556.000000)">
                <mask id="mask-2" fill="white">
                    <use xlink:href="#path-1"></use>
                </mask>
                <use id="Mask" fill="#FFFFFF" xlink:href="#path-1"></use>
                <rect id="Mask-Copy" fill="#FFBF19" mask="url(#mask-2)" x="0" y="0" width="20" height="14"></rect>
                <path d="M7.61904762,0.933333333 L17.7142497,0.933333333 C18.4506493,0.933333333 19.047619,1.53502722 19.047619,2.26652025 L19.047619,11.7334797 C19.047619,12.4697786 18.4492605,13.0666667 17.7142497,13.0666667 L7.61904762,13.0666667 L7.61904762,0.933333333 Z" id="Rectangle-1568" fill="#A52531" mask="url(#mask-2)"></path>
                <path d="M0.952380952,2.26652025 C0.952380952,1.53022145 1.55830747,0.933333333 2.28057952,0.933333333 L3.80952381,0.933333333 L3.80952381,13.0666667 L2.28057952,13.0666667 C1.54703571,13.0666667 0.952380952,12.4649728 0.952380952,11.7334797 L0.952380952,2.26652025 Z" id="Rectangle-1568" fill="#03664F" mask="url(#mask-2)"></path>
                <rect id="Rectangle-1568" fill="#FF6816" mask="url(#mask-2)" x="3.80952381" y="0.933333333" width="2.85714286" height="12.1333333" rx="0.666666667"></rect>
                <path d="M9.04761905,2.8 C8.78462631,2.8 8.57142857,2.59106622 8.57142857,2.33333333 L8.57142857,1.86666667 L9.04761905,1.86666667 C9.31061179,1.86666667 9.52380952,2.07560045 9.52380952,2.33333333 C9.52380952,2.59106622 9.31061179,2.8 9.04761905,2.8 Z M17.6190476,2.8 C17.3560549,2.8 17.1428571,2.59106622 17.1428571,2.33333333 C17.1428571,2.07560045 17.3560549,1.86666667 17.6190476,1.86666667 L18.0952381,1.86666667 L18.0952381,2.33333333 C18.0952381,2.59106622 17.8820404,2.8 17.6190476,2.8 Z M17.6190476,11.2 C17.8820404,11.2 18.0952381,11.4089338 18.0952381,11.6666667 L18.0952381,12.1333333 L17.6190476,12.1333333 C17.3560549,12.1333333 17.1428571,11.9243995 17.1428571,11.6666667 C17.1428571,11.4089338 17.3560549,11.2 17.6190476,11.2 Z M9.04761905,11.2 C9.31061179,11.2 9.52380952,11.4089338 9.52380952,11.6666667 C9.52380952,11.9243995 9.31061179,12.1333333 9.04761905,12.1333333 L8.57142857,12.1333333 L8.57142857,11.6666667 C8.57142857,11.4089338 8.78462631,11.2 9.04761905,11.2 Z" id="Oval-157" fill="#FFBF18" mask="url(#mask-2)"></path>
                <path d="M11.4285714,9.05835063 C11.4285714,8.69475362 11.1242966,8.4 10.952381,8.4 L11.4285714,8.4 C11.1655787,8.4 10.676938,8.29963988 10.3382474,8.1559659 C10.3382474,8.1559659 9.52380952,7.93333324 9.52380952,7.46666667 C9.52380952,7.0000001 9.62479728,7.06325205 9.62479728,7.06325205 C9.83201602,6.77058602 9.88667261,6.25532877 9.76322497,5.91940087 C9.76322497,5.91940087 9.42862416,5.22635661 9.52380952,4.66666667 C9.61899489,4.10697672 9.90853796,4.08923722 9.90853796,4.08923722 C10.2220438,3.89267693 10.4761905,4.03298238 10.4761905,4.39689425 L10.4761905,5.86977242 C10.4761905,6.23624699 10.7364328,6.66085205 11.0739399,6.82623056 L10.830822,6.70710278 C11.1609499,6.86886545 11.6443743,6.78851318 11.8994141,6.53857422 L11.4339193,6.99475911 C11.6939585,6.73992069 11.6445196,6.40581462 11.3070125,6.24043611 L10.952381,6.06666667 L10.952381,5.6 L11.2329756,5.6 C11.6039929,5.6 11.6445196,5.47248128 11.3070125,5.30710278 L10.952381,5.13333333 L10.952381,4.66666667 L11.2329756,4.66666667 C11.6039929,4.66666667 12.1205648,4.45517985 12.3756045,4.20524089 L11.9101097,4.66142578 C12.170149,4.40658736 12.6822917,4.2 13.0527387,4.2 L12.661547,4.2 C13.0325643,4.2 13.4685167,4.46495934 13.6376081,4.79637858 L13.505249,4.53695475 C13.6732953,4.86632555 13.7131596,5.41664422 13.5937209,5.76779378 L13.5491362,5.89887288 C13.4299516,6.24927571 13.6252848,6.53333333 14.00925,6.53333333 L15.038369,6.53333333 C15.4116675,6.53333333 15.9300886,6.32184652 16.1851283,6.07190755 L15.7196336,6.52809245 C15.9796728,6.27325403 15.9302339,5.93914795 15.5927268,5.77376944 L15.8358447,5.89289722 C15.5057168,5.73113455 14.936756,5.6 14.5663089,5.6 L14.9575006,5.6 C14.5864833,5.6 14.2857143,5.3046875 14.2857143,4.94164937 L14.2857143,5.32501729 C14.2857143,4.96142028 14.5015172,4.45517985 14.7565569,4.20524089 L14.7619048,4.2 L14.7619048,4.47498271 C14.7619048,4.83857972 15.0661795,5.13333333 15.2380952,5.13333333 L14.7619048,5.13333333 C15.0248975,5.13333333 15.5394345,5.13333333 15.9098816,5.13333333 L15.5186898,5.13333333 C15.8897072,5.13333333 16.3256595,5.39829267 16.494751,5.72971191 L16.3623919,5.47028809 C16.5304382,5.79965888 16.691712,6.35641877 16.709699,6.73449983 C16.709699,6.73449983 16.76757,6.97224056 16.6666667,7.46666667 C16.5657634,7.96109277 16.5403564,7.84172548 16.5403564,7.84172548 C16.3471229,8.15005198 16.1904762,8.69166667 16.1904762,9.07390951 L16.1904762,9.59275716 C16.1904762,9.9649471 15.8891369,10.2666667 15.5186898,10.2666667 L15.9098816,10.2666667 C15.5388642,10.2666667 15.3732786,10.0017073 15.54237,9.67028809 L15.4100109,9.92971191 C15.5780573,9.60034112 15.5791024,9.068374 15.4100109,8.73695475 L15.54237,8.99637858 C15.3743237,8.66700779 15.2380952,8.6953125 15.2380952,9.05835063 L15.2380952,8.67498271 C15.2380952,9.03857972 15.1029119,9.59829267 14.9338205,9.92971191 L15.0661795,9.67028809 C14.8981332,9.99965888 14.4605655,10.2666667 14.0901184,10.2666667 L14.4813102,10.2666667 C14.1102928,10.2666667 13.9447071,10.0017073 14.1137986,9.67028809 L13.9814395,9.92971191 C14.1494858,9.60034112 14.2857143,9.03802083 14.2857144,8.67498271 L14.2857143,9.05835063 C14.2857144,8.69475362 13.9880954,8.4 13.6195211,8.4 L13.0471457,8.4 C12.6792173,8.4 12.3809523,8.6953125 12.3809523,9.05835063 L12.3809523,8.67498271 C12.3809523,9.03857972 12.245769,9.59829267 12.0766775,9.92971191 L12.2090366,9.67028809 C12.0409903,9.99965888 11.6034226,10.2666667 11.2329755,10.2666667 L11.6241673,10.2666667 C11.2531499,10.2666667 11.0875642,10.0017073 11.2566557,9.67028809 L11.1242966,9.92971191 C11.2923429,9.60034112 11.4285714,9.03802083 11.4285714,8.67498271 L11.4285714,9.05835063 Z" id="Rectangle-1067" fill="#FFBF18" mask="url(#mask-2)"></path>
            </g>
        </g>
    </g>
</svg>