<?xml version="1.0" encoding="UTF-8"?>
<svg width="20px" height="14px" viewBox="0 0 20 14" version="1.1" xmlns="http://www.w3.org/2000/svg" xmlns:xlink="http://www.w3.org/1999/xlink">
    <!-- Generator: Sketch 44.1 (41455) - http://www.bohemiancoding.com/sketch -->
    <title>LB</title>
    <desc>Created with Sketch.</desc>
    <defs>
        <rect id="path-1" x="0" y="0" width="20" height="14" rx="2"></rect>
    </defs>
    <g id="Page-1" stroke="none" stroke-width="1" fill="none" fill-rule="evenodd">
        <g id="Flags" transform="translate(-316.000000, -556.000000)">
            <g id="LB" transform="translate(316.000000, 556.000000)">
                <mask id="mask-2" fill="white">
                    <use xlink:href="#path-1"></use>
                </mask>
                <g id="Mask">
                    <use fill="#FFFFFF" fill-rule="evenodd" xlink:href="#path-1"></use>
                    <rect stroke="#F5F5F5" stroke-width="0.5" x="0.25" y="0.25" width="19.5" height="13.5" rx="2"></rect>
                </g>
                <rect id="Rectangle-2" fill="#F03340" mask="url(#mask-2)" x="0" y="0" width="20" height="3.73333333"></rect>
                <rect id="Rectangle-2" fill="#F03340" mask="url(#mask-2)" x="0" y="10.2666667" width="20" height="3.73333333"></rect>
                <path d="M9.04761905,8.86666665 C9.31061179,8.60893375 9.30800665,8.18851314 9.05296689,7.93857418 L9.51846168,8.39475907 C9.25842248,8.13992065 8.75,8.00624996 8.40275356,8.09132534 L7.78772263,8.24200791 C7.43157326,8.32926451 7.37641834,8.22833248 7.68359048,8.00256095 L8.50688571,7.39743896 C8.80552449,7.17793946 8.74465579,6.99999996 8.38351976,6.99999996 L8.2831469,6.99999996 C7.916375,6.99999996 7.8838966,6.87022396 8.22172619,6.70468746 L8.92113095,6.36197912 C9.25398114,6.19888253 9.22084627,6.06666662 8.85971024,6.06666662 L8.75933738,6.06666662 C8.39256547,6.06666662 8.32879929,5.89499914 8.63597143,5.66922762 L9.45926666,5.06410563 C9.75790544,4.84460613 10.2335612,4.8383341 10.5407333,5.06410563 L11.3640286,5.66922762 C11.6626673,5.88872712 11.6017986,6.06666662 11.2406626,6.06666662 L11.1402898,6.06666662 C10.7735179,6.06666662 10.7410395,6.19644262 11.078869,6.36197912 L11.7782738,6.70468746 C12.111124,6.86778405 12.0779891,6.99999996 11.7168531,6.99999996 L11.6164802,6.99999996 C11.2497083,6.99999996 11.1859422,7.17166744 11.4931143,7.39743896 L12.3164095,8.00256095 C12.6150483,8.22206045 12.5595238,8.32708329 12.2122774,8.24200791 L11.5972464,8.09132534 C11.2410971,8.00406874 10.7365781,8.14482011 10.4815383,8.39475907 L10.9470331,7.93857418 C10.6869939,8.1934126 10.6875547,8.60713687 10.952381,8.86666662 L10.952381,8.86666662 C11.2153737,9.12439951 11.1228071,9.33333329 10.765904,9.3333333 L9.23409598,9.33333332 C8.86811488,9.33333333 8.78279277,9.12619641 9.04761905,8.86666665 L9.04761905,8.86666665 Z" id="Rectangle-317" fill="#1FC065" mask="url(#mask-2)"></path>
            </g>
        </g>
    </g>
</svg>