<?xml version="1.0" encoding="UTF-8"?>
<svg width="20px" height="14px" viewBox="0 0 20 14" version="1.1" xmlns="http://www.w3.org/2000/svg" xmlns:xlink="http://www.w3.org/1999/xlink">
    <!-- Generator: Sketch 44.1 (41455) - http://www.bohemiancoding.com/sketch -->
    <title>SK</title>
    <desc>Created with Sketch.</desc>
    <defs>
        <rect id="path-1" x="0" y="0" width="20" height="14" rx="2"></rect>
        <path d="M0.662034704,1.33135575 C0.69089214,0.596068271 1.3078546,0 2.05752685,0 L5.56152077,0 C6.30337236,0 6.92846185,0.603874524 6.95701292,1.33135575 L7.09060613,4.73531092 C7.11946357,5.4705984 6.67937143,6.45599467 6.12463497,6.92197329 L5.33960802,7.58139593 C4.49456585,8.29123136 3.11885499,8.28650486 2.2794396,7.58139593 L1.49441265,6.92197329 C0.932064071,6.44960049 0.499890418,5.46279214 0.528441487,4.73531092 L0.662034704,1.33135575 Z" id="path-3"></path>
    </defs>
    <g id="Page-1" stroke="none" stroke-width="1" fill="none" fill-rule="evenodd">
        <g id="Flags" transform="translate(-460.000000, -892.000000)">
            <g id="SK" transform="translate(460.000000, 892.000000)">
                <mask id="mask-2" fill="white">
                    <use xlink:href="#path-1"></use>
                </mask>
                <g id="Mask">
                    <use fill="#FFFFFF" fill-rule="evenodd" xlink:href="#path-1"></use>
                    <rect stroke="#F5F5F5" stroke-width="0.5" x="0.25" y="0.25" width="19.5" height="13.5" rx="2"></rect>
                </g>
                <rect id="Rectangle-2" fill="#0C47B7" mask="url(#mask-2)" x="0" y="4.66666667" width="20" height="4.66666667"></rect>
                <rect id="Rectangle-2" fill="#E53B35" mask="url(#mask-2)" x="0" y="9.33333333" width="20" height="4.66666667"></rect>
                <g id="Rectangle-1693" mask="url(#mask-2)">
                    <g transform="translate(3.333333, 2.800000)">
                        <mask id="mask-4" fill="white">
                            <use xlink:href="#path-3"></use>
                        </mask>
                        <g id="Mask" stroke="none" fill="none">
                            <use fill="#F73744" fill-rule="evenodd" xlink:href="#path-3"></use>
                            <path stroke="#FFFFFF" stroke-width="1.33333333" d="M-0.00411912675,1.30521156 C0.0389066825,0.208913941 0.953114562,-0.666666667 2.05752685,-0.666666667 L5.56152077,-0.666666667 C6.65810599,-0.666666667 7.58044705,0.216713804 7.62316675,1.30521156 L7.75675996,4.70916674 C7.79357339,5.64717282 7.26846236,6.83181576 6.55342969,7.4324432 L5.76840275,8.09186584 C4.67713789,9.00852832 2.93970585,9.00667706 1.85064487,8.09186584 L1.06561792,7.4324432 C0.347230686,6.82899792 -0.174437719,5.6449293 -0.137712344,4.70916674 L-0.00411912675,1.30521156 Z"></path>
                        </g>
                        <path d="M3.33333333,4.99181519 C3.33333333,4.81224062 3.18045117,4.66666667 3.00199963,4.66666667 L2.23609561,4.66666667 C2.05310506,4.66666667 1.9047619,4.52083333 1.9047619,4.32971191 L1.9047619,4.07028809 C1.9047619,3.88419311 2.05764407,3.73333333 2.23609561,3.73333333 L3.00199963,3.73333333 C3.18499018,3.73333333 3.33333333,3.5875 3.33333333,3.39637858 L3.33333333,3.13695475 C3.33333333,2.95085978 3.18452381,2.8 3.00023669,2.8 L2.71404902,2.8 C2.53008483,2.8 2.38095238,2.65416667 2.38095238,2.46304525 L2.38095238,2.20362142 C2.38095238,2.01752645 2.5297619,1.86666667 2.71404902,1.86666667 L3.00023669,1.86666667 C3.18420089,1.86666667 3.33333333,1.72083333 3.33333333,1.52971191 L3.33333333,1.27028809 C3.33333333,1.08419311 3.48214286,0.933333333 3.66642997,0.933333333 L3.95261765,0.933333333 C4.13658184,0.933333333 4.28571429,1.07916667 4.28571429,1.27028809 L4.28571429,1.52971191 C4.28571429,1.71580689 4.43452381,1.86666667 4.61881093,1.86666667 L4.9049986,1.86666667 C5.08896279,1.86666667 5.23809524,2.0125 5.23809524,2.20362142 L5.23809524,2.46304525 C5.23809524,2.64914022 5.08928571,2.8 4.9049986,2.8 L4.61881093,2.8 C4.43484673,2.8 4.28571429,2.94583333 4.28571429,3.13695475 L4.28571429,3.39637858 C4.28571429,3.58247355 4.43859645,3.73333333 4.61704799,3.73333333 L5.38295201,3.73333333 C5.56594256,3.73333333 5.71428571,3.87916667 5.71428571,4.07028809 L5.71428571,4.32971191 C5.71428571,4.51580689 5.56140355,4.66666667 5.38295201,4.66666667 L4.61704799,4.66666667 C4.43405744,4.66666667 4.28571429,4.81314087 4.28571429,4.99181519 L4.28571429,6.20818481 C4.28571429,6.38775938 4.13690476,6.53333333 3.95261765,6.53333333 L3.66642997,6.53333333 C3.48246578,6.53333333 3.33333333,6.38685913 3.33333333,6.20818481 L3.33333333,4.99181519 Z" id="Rectangle-1694" stroke="none" fill="#FFFFFF" fill-rule="evenodd" mask="url(#mask-4)"></path>
                        <path d="M2.94985615,6.59781485 C1.7919868,6.77659329 0.952380952,7.3069187 0.952380952,7.93333333 C0.952380952,8.70653198 2.23156738,9.33333333 3.80952381,9.33333333 C5.38748024,9.33333333 6.66666667,8.70653198 6.66666667,7.93333333 C6.66666667,7.3069187 5.82706082,6.77659329 4.66919147,6.59781485 C4.51588554,6.28366697 4.18856342,6.06666667 3.80952381,6.06666667 C3.4304842,6.06666667 3.10316208,6.28366697 2.94985615,6.59781485 Z" id="Oval-215" stroke="none" fill="#1251A1" fill-rule="evenodd" mask="url(#mask-4)"></path>
                    </g>
                </g>
            </g>
        </g>
    </g>
</svg>