<?xml version="1.0" encoding="UTF-8"?>
<svg width="20px" height="14px" viewBox="0 0 20 14" version="1.1" xmlns="http://www.w3.org/2000/svg" xmlns:xlink="http://www.w3.org/1999/xlink">
    <!-- Generator: Sketch 47.1 (45422) - http://www.bohemiancoding.com/sketch -->
    <title>RS</title>
    <desc>Created with Sketch.</desc>
    <defs>
        <rect id="path-1" x="0" y="0" width="20" height="14" rx="2"></rect>
        <path d="M0.476190476,2.33333333 C0.476190476,1.70443272 0.785832632,0.635907658 0.785832632,0.635907658 C0.87781473,0.284705556 1.25814529,0 1.61504836,0 L3.1468564,0 C3.5128375,0 3.88815698,0.290009236 3.9814395,0.653095345 C3.9814395,0.653095345 4.28571429,1.68943164 4.28571429,2.33333333 C4.28571429,2.93530795 3.97607213,4.02304475 3.97607213,4.02304475 C3.88409003,4.37850732 3.61314081,4.89260063 3.35047438,5.14426994 C3.35047438,5.14426994 3.0952381,5.6 2.38095238,5.6 C1.66666667,5.6 1.41143038,5.14426994 1.41143038,5.14426994 C1.15790438,4.88049694 0.87374778,4.37267256 0.785832632,4.02734254 C0.785832632,4.02734254 0.476190476,2.95030903 0.476190476,2.33333333 Z" id="path-3"></path>
    </defs>
    <g id="Page-1" stroke="none" stroke-width="1" fill="none" fill-rule="evenodd">
        <g id="Flags" transform="translate(-172.000000, -844.000000)">
            <g id="RS" transform="translate(172.000000, 844.000000)">
                <mask id="mask-2" fill="white">
                    <use xlink:href="#path-1"></use>
                </mask>
                <g id="Mask">
                    <use fill="#FFFFFF" fill-rule="evenodd" xlink:href="#path-1"></use>
                    <rect stroke="#F5F5F5" stroke-width="0.5" x="0.25" y="0.25" width="19.5" height="13.5" rx="2"></rect>
                </g>
                <rect id="Rectangle-2" fill="#17508F" mask="url(#mask-2)" x="0" y="4.66666667" width="20" height="4.66666667"></rect>
                <rect id="Rectangle-2" fill="#E1444D" mask="url(#mask-2)" x="0" y="0" width="20" height="4.66666667"></rect>
                <g id="Rectangle-1668" mask="url(#mask-2)">
                    <g transform="translate(3.809524, 4.666667)">
                        <mask id="mask-4" fill="white">
                            <use xlink:href="#path-3"></use>
                        </mask>
                        <use id="Mask" stroke="none" fill="#FFFFFF" fill-rule="evenodd" xlink:href="#path-3"></use>
                        <path d="M4.28571429,0.466666667 L0.476190476,5.13333333" id="Line" stroke="#E1444D" stroke-width="1.33333333" fill="none" stroke-linecap="square" mask="url(#mask-4)"></path>
                        <path d="M4.28571429,0.466666667 L0.476190476,5.13333333" id="Line" stroke="#E1444D" stroke-width="1.33333333" fill="none" stroke-linecap="square" mask="url(#mask-4)" transform="translate(2.380952, 2.800000) scale(-1, 1) translate(-2.380952, -2.800000) "></path>
                    </g>
                </g>
            </g>
        </g>
    </g>
</svg>