<?xml version="1.0" encoding="UTF-8"?>
<svg width="20px" height="14px" viewBox="0 0 20 14" version="1.1" xmlns="http://www.w3.org/2000/svg" xmlns:xlink="http://www.w3.org/1999/xlink">
    <!-- Generator: Sketch 44.1 (41455) - http://www.bohemiancoding.com/sketch -->
    <title>US</title>
    <desc>Created with Sketch.</desc>
    <defs>
        <rect id="path-1" x="0" y="0" width="20" height="14" rx="2"></rect>
        <linearGradient x1="50%" y1="0%" x2="50%" y2="100%" id="linearGradient-3">
            <stop stop-color="#FFFFFF" offset="0%"></stop>
            <stop stop-color="#F0F0F0" offset="100%"></stop>
        </linearGradient>
        <path d="M1.42857143,1.86666667 C1.16557869,1.86666667 0.952380952,1.65773288 0.952380952,1.4 C0.952380952,1.14226712 1.16557869,0.933333333 1.42857143,0.933333333 C1.69156417,0.933333333 1.9047619,1.14226712 1.9047619,1.4 C1.9047619,1.65773288 1.69156417,1.86666667 1.42857143,1.86666667 Z M3.33333333,1.86666667 C3.0703406,1.86666667 2.85714286,1.65773288 2.85714286,1.4 C2.85714286,1.14226712 3.0703406,0.933333333 3.33333333,0.933333333 C3.59632607,0.933333333 3.80952381,1.14226712 3.80952381,1.4 C3.80952381,1.65773288 3.59632607,1.86666667 3.33333333,1.86666667 Z M5.23809524,1.86666667 C4.9751025,1.86666667 4.76190476,1.65773288 4.76190476,1.4 C4.76190476,1.14226712 4.9751025,0.933333333 5.23809524,0.933333333 C5.50108798,0.933333333 5.71428571,1.14226712 5.71428571,1.4 C5.71428571,1.65773288 5.50108798,1.86666667 5.23809524,1.86666667 Z M7.14285714,1.86666667 C6.8798644,1.86666667 6.66666667,1.65773288 6.66666667,1.4 C6.66666667,1.14226712 6.8798644,0.933333333 7.14285714,0.933333333 C7.40584988,0.933333333 7.61904762,1.14226712 7.61904762,1.4 C7.61904762,1.65773288 7.40584988,1.86666667 7.14285714,1.86666667 Z M2.38095238,2.8 C2.11795964,2.8 1.9047619,2.59106622 1.9047619,2.33333333 C1.9047619,2.07560045 2.11795964,1.86666667 2.38095238,1.86666667 C2.64394512,1.86666667 2.85714286,2.07560045 2.85714286,2.33333333 C2.85714286,2.59106622 2.64394512,2.8 2.38095238,2.8 Z M4.28571429,2.8 C4.02272155,2.8 3.80952381,2.59106622 3.80952381,2.33333333 C3.80952381,2.07560045 4.02272155,1.86666667 4.28571429,1.86666667 C4.54870702,1.86666667 4.76190476,2.07560045 4.76190476,2.33333333 C4.76190476,2.59106622 4.54870702,2.8 4.28571429,2.8 Z M6.19047619,2.8 C5.92748345,2.8 5.71428571,2.59106622 5.71428571,2.33333333 C5.71428571,2.07560045 5.92748345,1.86666667 6.19047619,1.86666667 C6.45346893,1.86666667 6.66666667,2.07560045 6.66666667,2.33333333 C6.66666667,2.59106622 6.45346893,2.8 6.19047619,2.8 Z M7.14285714,3.73333333 C6.8798644,3.73333333 6.66666667,3.52439955 6.66666667,3.26666667 C6.66666667,3.00893378 6.8798644,2.8 7.14285714,2.8 C7.40584988,2.8 7.61904762,3.00893378 7.61904762,3.26666667 C7.61904762,3.52439955 7.40584988,3.73333333 7.14285714,3.73333333 Z M5.23809524,3.73333333 C4.9751025,3.73333333 4.76190476,3.52439955 4.76190476,3.26666667 C4.76190476,3.00893378 4.9751025,2.8 5.23809524,2.8 C5.50108798,2.8 5.71428571,3.00893378 5.71428571,3.26666667 C5.71428571,3.52439955 5.50108798,3.73333333 5.23809524,3.73333333 Z M3.33333333,3.73333333 C3.0703406,3.73333333 2.85714286,3.52439955 2.85714286,3.26666667 C2.85714286,3.00893378 3.0703406,2.8 3.33333333,2.8 C3.59632607,2.8 3.80952381,3.00893378 3.80952381,3.26666667 C3.80952381,3.52439955 3.59632607,3.73333333 3.33333333,3.73333333 Z M1.42857143,3.73333333 C1.16557869,3.73333333 0.952380952,3.52439955 0.952380952,3.26666667 C0.952380952,3.00893378 1.16557869,2.8 1.42857143,2.8 C1.69156417,2.8 1.9047619,3.00893378 1.9047619,3.26666667 C1.9047619,3.52439955 1.69156417,3.73333333 1.42857143,3.73333333 Z M2.38095238,4.66666667 C2.11795964,4.66666667 1.9047619,4.45773288 1.9047619,4.2 C1.9047619,3.94226712 2.11795964,3.73333333 2.38095238,3.73333333 C2.64394512,3.73333333 2.85714286,3.94226712 2.85714286,4.2 C2.85714286,4.45773288 2.64394512,4.66666667 2.38095238,4.66666667 Z M4.28571429,4.66666667 C4.02272155,4.66666667 3.80952381,4.45773288 3.80952381,4.2 C3.80952381,3.94226712 4.02272155,3.73333333 4.28571429,3.73333333 C4.54870702,3.73333333 4.76190476,3.94226712 4.76190476,4.2 C4.76190476,4.45773288 4.54870702,4.66666667 4.28571429,4.66666667 Z M6.19047619,4.66666667 C5.92748345,4.66666667 5.71428571,4.45773288 5.71428571,4.2 C5.71428571,3.94226712 5.92748345,3.73333333 6.19047619,3.73333333 C6.45346893,3.73333333 6.66666667,3.94226712 6.66666667,4.2 C6.66666667,4.45773288 6.45346893,4.66666667 6.19047619,4.66666667 Z M7.14285714,5.6 C6.8798644,5.6 6.66666667,5.39106622 6.66666667,5.13333333 C6.66666667,4.87560045 6.8798644,4.66666667 7.14285714,4.66666667 C7.40584988,4.66666667 7.61904762,4.87560045 7.61904762,5.13333333 C7.61904762,5.39106622 7.40584988,5.6 7.14285714,5.6 Z M5.23809524,5.6 C4.9751025,5.6 4.76190476,5.39106622 4.76190476,5.13333333 C4.76190476,4.87560045 4.9751025,4.66666667 5.23809524,4.66666667 C5.50108798,4.66666667 5.71428571,4.87560045 5.71428571,5.13333333 C5.71428571,5.39106622 5.50108798,5.6 5.23809524,5.6 Z M3.33333333,5.6 C3.0703406,5.6 2.85714286,5.39106622 2.85714286,5.13333333 C2.85714286,4.87560045 3.0703406,4.66666667 3.33333333,4.66666667 C3.59632607,4.66666667 3.80952381,4.87560045 3.80952381,5.13333333 C3.80952381,5.39106622 3.59632607,5.6 3.33333333,5.6 Z M1.42857143,5.6 C1.16557869,5.6 0.952380952,5.39106622 0.952380952,5.13333333 C0.952380952,4.87560045 1.16557869,4.66666667 1.42857143,4.66666667 C1.69156417,4.66666667 1.9047619,4.87560045 1.9047619,5.13333333 C1.9047619,5.39106622 1.69156417,5.6 1.42857143,5.6 Z" id="path-4"></path>
        <filter x="-7.5%" y="-10.7%" width="115.0%" height="142.9%" filterUnits="objectBoundingBox" id="filter-5">
            <feOffset dx="0" dy="1" in="SourceAlpha" result="shadowOffsetOuter1"></feOffset>
            <feColorMatrix values="0 0 0 0 0   0 0 0 0 0   0 0 0 0 0  0 0 0 0.06 0" type="matrix" in="shadowOffsetOuter1"></feColorMatrix>
        </filter>
    </defs>
    <g id="Page-1" stroke="none" stroke-width="1" fill="none" fill-rule="evenodd">
        <g id="Flags" transform="translate(-172.000000, -988.000000)">
            <g id="US" transform="translate(172.000000, 988.000000)">
                <mask id="mask-2" fill="white">
                    <use xlink:href="#path-1"></use>
                </mask>
                <use id="Mask" fill="#FFFFFF" xlink:href="#path-1"></use>
                <path d="M0,0 L20,0 L20,0.933333333 L0,0.933333333 L0,0 Z M0,1.86666667 L20,1.86666667 L20,2.8 L0,2.8 L0,1.86666667 Z M0,3.73333333 L20,3.73333333 L20,4.66666667 L0,4.66666667 L0,3.73333333 Z M0,5.6 L20,5.6 L20,6.53333333 L0,6.53333333 L0,5.6 Z M0,7.46666667 L20,7.46666667 L20,8.4 L0,8.4 L0,7.46666667 Z M0,9.33333333 L20,9.33333333 L20,10.2666667 L0,10.2666667 L0,9.33333333 Z M0,11.2 L20,11.2 L20,12.1333333 L0,12.1333333 L0,11.2 Z M0,13.0666667 L20,13.0666667 L20,14 L0,14 L0,13.0666667 Z" id="Rectangle-511" fill="#D02F44" mask="url(#mask-2)"></path>
                <rect id="Rectangle-511" fill="#46467F" mask="url(#mask-2)" x="0" y="0" width="8.57142857" height="6.53333333"></rect>
                <g id="Oval-43" mask="url(#mask-2)">
                    <use fill="black" fill-opacity="1" filter="url(#filter-5)" xlink:href="#path-4"></use>
                    <use fill="url(#linearGradient-3)" fill-rule="evenodd" xlink:href="#path-4"></use>
                </g>
            </g>
        </g>
    </g>
</svg>