<?xml version="1.0" encoding="UTF-8"?>
<svg width="20px" height="14px" viewBox="0 0 20 14" version="1.1" xmlns="http://www.w3.org/2000/svg" xmlns:xlink="http://www.w3.org/1999/xlink">
    <!-- Generator: Sketch 44.1 (41455) - http://www.bohemiancoding.com/sketch -->
    <title>AU</title>
    <desc>Created with Sketch.</desc>
    <defs>
        <rect id="path-1" x="0" y="0" width="20" height="14" rx="2"></rect>
        <path d="M3.33333333,2.8 L0,0 L0.476190476,0 L3.80952381,2.33333333 L4.76190476,2.33333333 L8.57142857,0 L8.57142857,0.127518717 C8.57142857,0.314824958 8.44482831,0.555286853 8.29864791,0.657613126 L5.23809524,2.8 L5.23809524,3.73333333 L8.3098675,6.31362203 C8.45432369,6.43496523 8.42075893,6.53333333 8.24590774,6.53333333 L8.42075893,6.53333333 C8.24097874,6.53333333 7.96863783,6.44471315 7.82245744,6.34238687 L4.76190476,4.2 L3.80952381,4.2 L0,6.53333333 L0,6.06666667 L3.33333333,3.73333333 L3.33333333,2.8 Z" id="path-3"></path>
        <linearGradient x1="50%" y1="0%" x2="50%" y2="100%" id="linearGradient-4">
            <stop stop-color="#FFFFFF" offset="0%"></stop>
            <stop stop-color="#F0F0F0" offset="100%"></stop>
        </linearGradient>
        <linearGradient x1="50%" y1="0%" x2="50%" y2="100%" id="linearGradient-5">
            <stop stop-color="#FF2E3A" offset="0%"></stop>
            <stop stop-color="#FC0D1B" offset="100%"></stop>
        </linearGradient>
    </defs>
    <g id="Page-1" stroke="none" stroke-width="1" fill="none" fill-rule="evenodd">
        <g id="Flags" transform="translate(-412.000000, -28.000000)">
            <g id="AU" transform="translate(412.000000, 28.000000)">
                <mask id="mask-2" fill="white">
                    <use xlink:href="#path-1"></use>
                </mask>
                <use id="Mask" fill="#FFFFFF" xlink:href="#path-1"></use>
                <rect id="Mask-Copy" fill="#0A17A7" mask="url(#mask-2)" x="0" y="0" width="20" height="14"></rect>
                <g id="Rectangle-36" mask="url(#mask-2)">
                    <use fill="#FF2E3B" fill-rule="evenodd" xlink:href="#path-3"></use>
                    <path stroke="#FFFFFF" stroke-width="0.666666667" d="M8.42075893,6.84361001 C8.39154684,6.85192869 8.36042896,6.85814774 8.32747058,6.86201742 C8.30142189,6.86507582 8.27422353,6.86666667 8.24590774,6.86666667 L8.24590774,6.2 L8.42075893,6.2 L8.42075893,6.86666667 C8.39087827,6.86666667 8.35964744,6.86507231 8.32747058,6.86201742 C8.30085404,6.85949043 8.27359018,6.85596407 8.24590774,6.85151409 C8.03044514,6.8168783 7.78962448,6.72628899 7.63130332,6.61546418 L4.65683068,4.53333333 L3.90349418,4.53333333 L-0.333333333,7.12839019 L-0.333333333,5.89311481 L3,3.55978148 L3,2.95532874 L-0.915073896,-0.333333333 L0.476190476,-0.333333333 L0.667344591,-0.273077307 L3.91459789,2 L4.66793439,2 L8.9047619,-0.595056854 L8.9047619,0.127518717 C8.9047619,0.421467598 8.72682548,0.764774019 8.48980203,0.930690433 L5.57142857,2.97355185 L5.57142857,3.57800459 L8.52426486,6.05838707 C8.84929214,6.33141 8.77573053,6.74252531 8.42075893,6.84361001 Z"></path>
                </g>
                <path d="M0,2.33333333 L0,4.2 L3.33333333,4.2 L3.33333333,6.33643909 C3.33333333,6.70291366 3.63095238,7 3.99952661,7 L4.57190196,7 C4.93983035,7 5.23809524,6.70035095 5.23809524,6.33643909 L5.23809524,4.2 L8.38405064,4.2 C8.75052935,4.2 9.04761905,3.90833333 9.04761905,3.52609049 L9.04761905,3.00724284 C9.04761905,2.6350529 8.7486921,2.33333333 8.38405064,2.33333333 L5.23809524,2.33333333 L5.23809524,0 L3.33333333,0 L3.33333333,2.33333333 L0,2.33333333 Z" id="Rectangle-2" fill="url(#linearGradient-4)" mask="url(#mask-2)"></path>
                <polygon id="Rectangle-36" fill="url(#linearGradient-5)" mask="url(#mask-2)" points="0 2.8 3.80952381 2.8 3.80952381 2.33333333 3.80952381 0 4.76190476 0 4.76190476 2.33333333 4.76190476 2.8 8.57142857 2.8 8.57142857 3.73333333 4.76190476 3.73333333 4.76190476 4.2 4.76190476 6.53333333 3.80952381 6.53333333 3.80952381 4.2 3.80952381 3.73333333 0 3.73333333"></polygon>
                <polygon id="Star-2" fill="#FFFFFF" mask="url(#mask-2)" points="4.28571429 11.4333333 3.44602107 11.8659571 3.6063882 10.9496452 2.92706212 10.3007095 3.86586768 10.1670214 4.28571429 9.33333333 4.70556089 10.1670214 5.64436645 10.3007095 4.96504037 10.9496452 5.1254075 11.8659571"></polygon>
                <polygon id="Star-2" fill="#FFFFFF" mask="url(#mask-2)" points="14.2857143 12.1333333 13.6122793 12.326633 13.8095238 11.6666667 13.6122793 11.0067003 14.2857143 11.2 14.9591493 11.0067003 14.7619048 11.6666667 14.9591493 12.326633"></polygon>
                <polygon id="Star-2" fill="#FFFFFF" mask="url(#mask-2)" points="14.2857143 3.26666667 13.6122793 3.45996633 13.8095238 2.8 13.6122793 2.14003367 14.2857143 2.33333333 14.9591493 2.14003367 14.7619048 2.8 14.9591493 3.45996633"></polygon>
                <polygon id="Star-2" fill="#FFFFFF" mask="url(#mask-2)" points="17.1428571 6.06666667 16.4694221 6.25996633 16.6666667 5.6 16.4694221 4.94003367 17.1428571 5.13333333 17.8162922 4.94003367 17.6190476 5.6 17.8162922 6.25996633"></polygon>
                <polygon id="Star-2" fill="#FFFFFF" mask="url(#mask-2)" points="11.4285714 7 10.7551364 7.19329966 10.952381 6.53333333 10.7551364 5.873367 11.4285714 6.06666667 12.1020065 5.873367 11.9047619 6.53333333 12.1020065 7.19329966"></polygon>
                <polygon id="Star-2" fill="#FFFFFF" mask="url(#mask-2)" points="15.7142857 8.16666667 15.3775682 8.2633165 15.4761905 7.93333333 15.3775682 7.60335017 15.7142857 7.7 16.0510032 7.60335017 15.952381 7.93333333 16.0510032 8.2633165"></polygon>
            </g>
        </g>
    </g>
</svg>