<?xml version="1.0" encoding="UTF-8"?>
<svg width="20px" height="14px" viewBox="0 0 20 14" version="1.1" xmlns="http://www.w3.org/2000/svg" xmlns:xlink="http://www.w3.org/1999/xlink">
    <!-- Generator: Sketch 44.1 (41455) - http://www.bohemiancoding.com/sketch -->
    <title>GB</title>
    <desc>Created with Sketch.</desc>
    <defs>
        <rect id="path-1" x="0" y="0" width="20" height="14" rx="2"></rect>
    </defs>
    <g id="Page-1" stroke="none" stroke-width="1" fill="none" fill-rule="evenodd">
        <g id="Flags" transform="translate(-124.000000, -316.000000)">
            <g id="GB" transform="translate(124.000000, 316.000000)">
                <mask id="mask-2" fill="white">
                    <use xlink:href="#path-1"></use>
                </mask>
                <use id="Mask" fill="#FFFFFF" xlink:href="#path-1"></use>
                <rect id="Mask-Copy" fill="#0A17A7" mask="url(#mask-2)" x="0" y="0" width="20" height="14"></rect>
                <path d="M4.87161887,9.33333333 L4.4408921e-16,9.33333333 L4.4408921e-16,4.66666667 L4.87161887,4.66666667 L-1.97052747,0.0515806865 L-0.926700721,-1.49595612 L7.61904762,4.26822392 L7.61904762,-0.933333333 L12.3809524,-0.933333333 L12.3809524,4.26822392 L20.9267007,-1.49595612 L21.9705275,0.0515806865 L15.1283811,4.66666667 L20,4.66666667 L20,9.33333333 L15.1283811,9.33333333 L21.9705275,13.9484193 L20.9267007,15.4959561 L12.3809524,9.73177608 L12.3809524,14.9333333 L7.61904762,14.9333333 L7.61904762,9.73177608 L-0.926700721,15.4959561 L-1.97052747,13.9484193 L4.87161887,9.33333333 Z" id="Rectangle-2" fill="#FFFFFF" mask="url(#mask-2)"></path>
                <path d="M13.3342634,4.43253581 L22.3809524,-1.4" id="Line" stroke="#DB1F35" stroke-width="0.666666667" stroke-linecap="round" mask="url(#mask-2)"></path>
                <path d="M14.2948405,14.9452393 L22.404727,9.58825684" id="Line-Copy-2" stroke="#DB1F35" stroke-width="0.666666667" stroke-linecap="round" mask="url(#mask-2)" transform="translate(18.349784, 12.266748) scale(1, -1) translate(-18.349784, -12.266748) "></path>
                <path d="M5.71823847,4.41732585 L-2.7410598,-1.16968587" id="Line-Copy" stroke="#DB1F35" stroke-width="0.666666667" stroke-linecap="round" mask="url(#mask-2)"></path>
                <path d="M6.63574219,15.6173258 L-2.7410598,9.52342936" id="Line-Copy-3" stroke="#DB1F35" stroke-width="0.666666667" stroke-linecap="round" mask="url(#mask-2)" transform="translate(1.947341, 12.570378) scale(1, -1) translate(-1.947341, -12.570378) "></path>
                <polygon id="Rectangle-2-Copy-3" fill="#E6273E" mask="url(#mask-2)" points="0 8.4 8.57142857 8.4 8.57142857 14 11.4285714 14 11.4285714 8.4 20 8.4 20 5.6 11.4285714 5.6 11.4285714 0 8.57142857 0 8.57142857 5.6 0 5.6"></polygon>
            </g>
        </g>
    </g>
</svg>