<?xml version="1.0" encoding="UTF-8"?>
<svg width="20px" height="14px" viewBox="0 0 20 14" version="1.1" xmlns="http://www.w3.org/2000/svg" xmlns:xlink="http://www.w3.org/1999/xlink">
    <!-- Generator: Sketch 45.1 (43504) - http://www.bohemiancoding.com/sketch -->
    <title>MY</title>
    <desc>Created with Sketch.</desc>
    <defs>
        <rect id="path-1" x="0" y="0" width="20" height="14" rx="2"></rect>
    </defs>
    <g id="Page-1" stroke="none" stroke-width="1" fill="none" fill-rule="evenodd">
        <g id="Flags" transform="translate(-124.000000, -604.000000)">
            <g id="MY" transform="translate(124.000000, 604.000000)">
                <mask id="mask-2" fill="white">
                    <use xlink:href="#path-1"></use>
                </mask>
                <use id="Mask" fill="#FFFFFF" xlink:href="#path-1"></use>
                <path d="M9.52380952,0 L20,0 L20,0.933333333 L9.52380952,0.933333333 L9.52380952,0 Z M9.52380952,1.86666667 L20,1.86666667 L20,2.8 L9.52380952,2.8 L9.52380952,1.86666667 Z M9.52380952,3.73333333 L20,3.73333333 L20,4.66666667 L9.52380952,4.66666667 L9.52380952,3.73333333 Z M9.52380952,5.6 L20,5.6 L20,6.53333333 L9.52380952,6.53333333 L9.52380952,5.6 Z M0,7.46666667 L20,7.46666667 L20,8.4 L0,8.4 L0,7.46666667 Z M0,9.33333333 L20,9.33333333 L20,10.2666667 L0,10.2666667 L0,9.33333333 Z M0,11.2 L20,11.2 L20,12.1333333 L0,12.1333333 L0,11.2 Z M0,13.0666667 L20,13.0666667 L20,14 L0,14 L0,13.0666667 Z" id="Rectangle-537" fill="#E1244A" mask="url(#mask-2)"></path>
                <rect id="Rectangle-1568" fill="#0C3F8E" mask="url(#mask-2)" x="0" y="0" width="11.4285714" height="7.46666667"></rect>
                <path d="M6.54631902,1.54643281 C6.28731503,1.45175387 6.0069676,1.4 5.71428571,1.4 C4.39932202,1.4 3.33333333,2.44466892 3.33333333,3.73333333 C3.33333333,5.02199775 4.39932202,6.06666667 5.71428571,6.06666667 C6.0069676,6.06666667 6.28731503,6.0149128 6.54631902,5.92023386 C6.05737701,6.3038889 5.43698253,6.53333333 4.76190476,6.53333333 C3.18394833,6.53333333 1.9047619,5.27973063 1.9047619,3.73333333 C1.9047619,2.18693603 3.18394833,0.933333333 4.76190476,0.933333333 C5.43698253,0.933333333 6.05737701,1.16277776 6.54631902,1.54643281 Z M7.61904762,4.49866666 L6.7926024,5.41514189 L7.00847447,4.21051086 L5.76204207,4.14870574 L6.85767535,3.56303065 L6.1298448,2.5694857 L7.28020508,3.04379183 L7.61904762,1.86666667 L7.95789016,3.04379183 L9.10825044,2.5694857 L8.38041989,3.56303065 L9.47605317,4.14870574 L8.22962077,4.21051086 L8.44549284,5.41514189 L7.61904762,4.49866666 Z" id="Oval-12" fill="#FFD34F" mask="url(#mask-2)"></path>
            </g>
        </g>
    </g>
</svg>