<?xml version="1.0" encoding="UTF-8"?>
<svg width="20px" height="14px" viewBox="0 0 20 14" version="1.1" xmlns="http://www.w3.org/2000/svg" xmlns:xlink="http://www.w3.org/1999/xlink">
    <!-- Generator: Sketch 44.1 (41455) - http://www.bohemiancoding.com/sketch -->
    <title>EG</title>
    <desc>Created with Sketch.</desc>
    <defs>
        <rect id="path-1" x="0" y="0" width="20" height="14" rx="2"></rect>
        <path d="M7.61904762,6.26356091 C7.61904762,5.89708634 7.9203869,5.6 8.29083397,5.6 L8.23833193,5.6 C8.42229613,5.6 8.63764082,5.729776 8.72209821,5.8953125 L9.04761905,6.53333333 C9.04761905,6.53333333 9.57079106,5.6 10,5.6 C10.4761905,5.6 10.952381,6.53333333 10.952381,6.53333333 L11.2779018,5.8953125 C11.3611143,5.73221591 11.577381,5.6 11.7616681,5.6 L11.709166,5.6 C12.0801834,5.6 12.3809524,5.89964905 12.3809524,6.26356091 L12.3809524,7.73643909 C12.3809524,8.10291366 12.1321142,8.23742574 11.8163431,8.03112195 L10.952381,7.46666667 L10.4761905,7.46666667 L10.4761905,7.74164937 C10.4761905,8.10524638 10.1748512,8.4 9.80440412,8.4 L10.1955959,8.4 C9.82457852,8.4 9.52380952,8.1046875 9.52380952,7.74164937 L9.52380952,7.46666667 L9.04761905,7.46666667 L8.18365687,8.03112195 C7.87183179,8.23484767 7.61904762,8.10035095 7.61904762,7.73643909 L7.61904762,6.26356091 Z" id="path-3"></path>
    </defs>
    <g id="Page-1" stroke="none" stroke-width="1" fill="none" fill-rule="evenodd">
        <g id="Flags" transform="translate(-76.000000, -220.000000)">
            <g id="EG" transform="translate(76.000000, 220.000000)">
                <mask id="mask-2" fill="white">
                    <use xlink:href="#path-1"></use>
                </mask>
                <g id="Mask">
                    <use fill="#FFFFFF" fill-rule="evenodd" xlink:href="#path-1"></use>
                    <rect stroke="#F5F5F5" stroke-width="0.5" x="0.25" y="0.25" width="19.5" height="13.5" rx="2"></rect>
                </g>
                <rect id="Rectangle-2" fill="#E41D33" mask="url(#mask-2)" x="0" y="0" width="20" height="4.66666667"></rect>
                <rect id="Rectangle-2" fill="#262626" mask="url(#mask-2)" x="0" y="9.33333333" width="20" height="4.66666667"></rect>
                <g id="Rectangle-129" mask="url(#mask-2)">
                    <use fill-opacity="0.25" fill="#F4B32E" fill-rule="evenodd" xlink:href="#path-3"></use>
                    <path stroke="#C6A846" stroke-width="0.666666667" d="M8.2568182,5.93498352 C8.26800213,5.93389234 8.27934948,5.93333333 8.29083397,5.93333333 L8.29083397,5.26666667 L8.23833193,5.26666667 L8.23833193,5.93333333 C8.24415375,5.93333333 8.25035011,5.93390428 8.2568182,5.93498352 Z M11.7433472,5.93502518 C11.7497836,5.93391951 11.7559267,5.93333333 11.7616681,5.93333333 L11.7616681,5.26666667 L11.709166,5.26666667 L11.709166,5.93333333 C11.7207027,5.93333333 11.7321056,5.93390675 11.7433472,5.93502518 Z M9.99999711,8.00678553 C9.944905,8.04442039 9.87750274,8.06666667 9.80440412,8.06666667 L9.80440412,8.73333333 L10.1955959,8.73333333 L10.1955959,8.06666667 C10.1224769,8.06666667 10.0550794,8.0444169 9.99999711,8.00678553 Z M10.8842919,7.13333333 L10.952381,7.26678787 L11.0114914,7.15093131 L10.952381,7.13333333 L10.8842919,7.13333333 Z M9.0934237,7.13333333 L9.04761905,7.13333333 L8.98850856,7.15093131 L9.03379969,7.23970193 L9.0934237,7.13333333 Z M9.0934237,7.13333333 L9.33838725,6.69632096 C9.39593467,6.59365697 9.49882421,6.43218204 9.62435639,6.273376 C9.74939739,6.11519132 9.86839557,6.0002891 9.95871276,5.95122434 C9.98377961,5.93760679 9.99809972,5.93333333 10,5.93333333 C10.0712031,5.93333333 10.2256288,6.05440307 10.3900526,6.26925028 C10.5096035,6.42546335 10.6043154,6.58457947 10.6554603,6.68482345 L10.8842919,7.13333333 L10.1428571,7.13333333 L10.1428571,7.74164937 C10.1428571,7.85031053 10.0866567,7.94758611 9.99999711,8.00678553 C9.91332395,7.94757176 9.85714286,7.8502736 9.85714286,7.74164937 L9.85714286,7.13333333 L9.0934237,7.13333333 Z"></path>
                </g>
            </g>
        </g>
    </g>
</svg>