<?xml version="1.0" encoding="UTF-8"?>
<svg width="20px" height="14px" viewBox="0 0 20 14" version="1.1" xmlns="http://www.w3.org/2000/svg" xmlns:xlink="http://www.w3.org/1999/xlink">
    <!-- Generator: Sketch 44.1 (41455) - http://www.bohemiancoding.com/sketch -->
    <title>PT</title>
    <desc>Created with Sketch.</desc>
    <defs>
        <rect id="path-1" x="0" y="0" width="20" height="14" rx="2"></rect>
    </defs>
    <g id="Page-1" stroke="none" stroke-width="1" fill="none" fill-rule="evenodd">
        <g id="Flags" transform="translate(-412.000000, -748.000000)">
            <g id="PT" transform="translate(412.000000, 748.000000)">
                <mask id="mask-2" fill="white">
                    <use xlink:href="#path-1"></use>
                </mask>
                <use id="Mask" fill="#FFFFFF" xlink:href="#path-1"></use>
                <rect id="Mask-Copy" fill="#FF2936" mask="url(#mask-2)" x="0" y="0" width="20" height="14"></rect>
                <rect id="Rectangle-2-Copy" fill="#128415" mask="url(#mask-2)" x="0" y="0" width="7.61904762" height="14"></rect>
                <ellipse id="Oval-1" stroke="#FAF94F" stroke-width="1.33333333" mask="url(#mask-2)" cx="7.61904762" cy="7" rx="2.57142857" ry="2.53333333"></ellipse>
                <path d="M6.66666667,5.93219218 C6.66666667,5.74872751 6.81613014,5.6 6.99845087,5.6 L8.23964437,5.6 C8.42288372,5.6 8.57142857,5.75054016 8.57142857,5.93219218 L8.57142857,7.45204773 C8.57142857,7.97558731 8.14870017,8.4 7.61904762,8.4 L7.61904762,8.4 C7.09306214,8.4 6.66666667,7.97474027 6.66666667,7.45204773 L6.66666667,5.93219218 Z" id="Rectangle-429" fill="#FFFFFF" mask="url(#mask-2)"></path>
                <path d="M7.61904762,7.46666667 C7.88204036,7.46666667 8.0952381,6.79106622 8.0952381,6.53333333 C8.0952381,6.27560045 7.88204036,6.06666667 7.61904762,6.06666667 C7.35605488,6.06666667 7.14285714,6.27560045 7.14285714,6.53333333 C7.14285714,6.79106622 7.35605488,7.46666667 7.61904762,7.46666667 Z" id="Oval-27" fill="#1D50B5" mask="url(#mask-2)"></path>
            </g>
        </g>
    </g>
</svg>