<?xml version="1.0" encoding="UTF-8"?>
<svg width="20px" height="14px" viewBox="0 0 20 14" version="1.1" xmlns="http://www.w3.org/2000/svg" xmlns:xlink="http://www.w3.org/1999/xlink">
    <!-- Generator: Sketch 44.1 (41455) - http://www.bohemiancoding.com/sketch -->
    <title>MT</title>
    <desc>Created with Sketch.</desc>
    <defs>
        <rect id="path-1" x="0" y="0" width="20" height="14" rx="2"></rect>
        <path d="M3.80952381,2.8 L3.80952381,1.86666667 L2.85714286,1.86666667 L2.85714286,2.8 L1.9047619,2.8 L1.9047619,3.73333333 L2.85714286,3.73333333 L2.85714286,4.66666667 L3.80952381,4.66666667 L3.80952381,3.73333333 L4.76190476,3.73333333 L4.76190476,2.8 L3.80952381,2.8 Z" id="path-3"></path>
    </defs>
    <g id="Page-1" stroke="none" stroke-width="1" fill="none" fill-rule="evenodd">
        <g id="Flags" transform="translate(-508.000000, -604.000000)">
            <g id="MT" transform="translate(508.000000, 604.000000)">
                <mask id="mask-2" fill="white">
                    <use xlink:href="#path-1"></use>
                </mask>
                <g id="Mask">
                    <use fill="#FFFFFF" fill-rule="evenodd" xlink:href="#path-1"></use>
                    <rect stroke="#F5F5F5" stroke-width="0.5" x="0.25" y="0.25" width="19.5" height="13.5" rx="2"></rect>
                </g>
                <rect id="Rectangle-2-Copy-2" fill="#DE233C" mask="url(#mask-2)" x="10.4761905" y="0" width="9.52380952" height="14"></rect>
                <g id="Rectangle-364" mask="url(#mask-2)">
                    <use fill="#CCCCCD" fill-rule="evenodd" xlink:href="#path-3"></use>
                    <path stroke-opacity="0.66" stroke="#7B716A" stroke-width="0.666666667" d="M4.14285714,2.46666667 L5.0952381,2.46666667 L5.0952381,4.06666667 L4.14285714,4.06666667 L4.14285714,5 L2.52380952,5 L2.52380952,4.06666667 L1.57142857,4.06666667 L1.57142857,2.46666667 L2.52380952,2.46666667 L2.52380952,1.53333333 L4.14285714,1.53333333 L4.14285714,2.46666667 Z"></path>
                </g>
                <ellipse id="Oval-20" fill="#7B716A" mask="url(#mask-2)" cx="3.33333333" cy="3.26666667" rx="1" ry="1"></ellipse>
            </g>
        </g>
    </g>
</svg>