<?xml version="1.0" encoding="UTF-8"?>
<svg width="20px" height="14px" viewBox="0 0 20 14" version="1.1" xmlns="http://www.w3.org/2000/svg" xmlns:xlink="http://www.w3.org/1999/xlink">
    <!-- Generator: Sketch 45.2 (43514) - http://www.bohemiancoding.com/sketch -->
    <title>PF</title>
    <desc>Created with Sketch.</desc>
    <defs>
        <rect id="path-1" x="0" y="0" width="20" height="14" rx="2"></rect>
        <ellipse id="path-3" cx="2.38095238" cy="2.33333333" rx="2.38095238" ry="2.33333333"></ellipse>
    </defs>
    <g id="Page-1" stroke="none" stroke-width="1" fill="none" fill-rule="evenodd">
        <g id="Flags" transform="translate(-508.000000, -748.000000)">
            <g id="PF" transform="translate(508.000000, 748.000000)">
                <mask id="mask-2" fill="white">
                    <use xlink:href="#path-1"></use>
                </mask>
                <g id="Mask">
                    <use fill="#FFFFFF" fill-rule="evenodd" xlink:href="#path-1"></use>
                    <rect stroke="#F5F5F5" stroke-width="0.5" x="0.25" y="0.25" width="19.5" height="13.5" rx="2"></rect>
                </g>
                <rect id="Rectangle-2" fill="#D82332" mask="url(#mask-2)" x="0" y="0" width="20" height="3.73333333"></rect>
                <rect id="Rectangle-2" fill="#D82332" mask="url(#mask-2)" x="0" y="10.2666667" width="20" height="3.73333333"></rect>
                <g id="Group-5" mask="url(#mask-2)">
                    <g transform="translate(7.619048, 4.666667)">
                        <g id="Group-3">
                            <path d="M2.82751323,0.0421785308 C2.33378685,-0.0588322219 1.88964475,-0.000498888604 1.88964475,0.462027993 L1.88964475,1.7282753 C1.88964475,1.86744735 1.89244142,1.88506025 2.05873016,1.92359789 C2.41942555,2.00722154 2.4532124,2.01565165 2.84550265,2.10537208 L2.84550265,0.80329681 C2.53892668,0.76957638 2.42169312,0.598264552 2.42169312,0.399178531 C2.42169312,0.206114015 2.5569161,0.0803398211 2.82751323,0.0421785308" id="Fill-18" fill="#514537"></path>
                            <path d="M1.56228994,3.61327957 C1.28723325,3.61327957 0.998646707,3.37527957 0.998646707,2.92178495 L0.998646707,1.79470968 C0.998646707,1.69256989 1.01021133,1.67819355 0.986250638,1.6544086 C0.972191681,1.6404086 1.00204807,1.61963441 1.02230506,1.5993871 C1.05276613,1.56905376 1.07362781,1.54383871 1.03250914,1.5028172 C0.991314886,1.46187097 1.00885079,1.4511828 1.03477671,1.42544086 C1.06070264,1.39954839 1.07083114,1.37380645 1.046039,1.34904301 C1.02124686,1.32435484 1.01557792,1.31652688 1.04263764,1.28958065 C1.06969735,1.26263441 1.05843507,1.25141935 1.0359105,1.22891398 C1.01331035,1.20648387 1.00265275,1.19022581 1.03137535,1.16162366 C1.05956885,1.13354839 1.06176084,1.12903226 1.09448949,1.12903226 L1.22978805,1.12903226 C1.26138291,1.12903226 1.26191201,1.1385914 1.2353814,1.16501075 C1.20098987,1.1991828 1.19086137,1.21265591 1.22978805,1.25141935 C1.26863915,1.29010753 1.26697626,1.30305376 1.24218412,1.32774194 C1.20492033,1.36477419 1.1885938,1.39006452 1.22638669,1.42769892 C1.26417959,1.46525806 1.26750536,1.48211828 1.23878276,1.51072043 C1.21006016,1.53932258 1.2071879,1.5646129 1.23878276,1.596 C1.2630458,1.62016129 1.26470869,1.63423656 1.26470869,1.67683871 L1.26470869,2.82747312 C1.26470869,3.02053763 1.40446681,3.13727957 1.67052879,3.13727957 C1.93659077,3.13727957 2.02676462,3.02949462 2.10340861,2.95768817 C2.05382433,3.30339785 1.90953106,3.61327957 1.56228994,3.61327957" id="Fill-19" fill="#514537"></path>
                            <path d="M3.11103553,3.61327957 C3.38609221,3.61327957 3.67467876,3.37527957 3.67467876,2.92178495 L3.67467876,1.79470968 C3.67467876,1.69256989 3.66311413,1.67819355 3.68707483,1.6544086 C3.70113379,1.6404086 3.6712774,1.61963441 3.65102041,1.5993871 C3.62055933,1.56905376 3.59969766,1.54383871 3.64081633,1.5028172 C3.68201058,1.46187097 3.66447468,1.4511828 3.63862434,1.42544086 C3.61262283,1.39954839 3.60249433,1.37380645 3.62728647,1.34904301 C3.65207861,1.32435484 3.65774754,1.31652688 3.63068783,1.28958065 C3.60362812,1.26263441 3.6148904,1.25141935 3.63741497,1.22891398 C3.66001512,1.20648387 3.67067271,1.19022581 3.64195011,1.16162366 C3.61375661,1.13354839 3.61156463,1.12903226 3.57883598,1.12903226 L3.44353741,1.12903226 C3.41201814,1.12903226 3.41141345,1.1385914 3.43794407,1.16501075 C3.4723356,1.1991828 3.4824641,1.21265591 3.44353741,1.25141935 C3.40468632,1.29010753 3.40634921,1.30305376 3.43114135,1.32774194 C3.46840514,1.36477419 3.48465608,1.39006452 3.44693878,1.42769892 C3.40914588,1.46525806 3.40574452,1.48211828 3.43454271,1.51072043 C3.46326531,1.53932258 3.46613757,1.5646129 3.43454271,1.596 C3.41027967,1.62016129 3.40861678,1.63423656 3.40861678,1.67683871 L3.40861678,2.82747312 C3.40861678,3.02053763 3.26878307,3.13727957 3.00279667,3.13727957 C2.73673469,3.13727957 2.64663643,3.02949462 2.56991686,2.95768817 C2.61950113,3.30339785 2.76379441,3.61327957 3.11103553,3.61327957" id="Fill-26" fill="#514537"></path>
                            <path d="M0.887452759,2.17429032 L0,2.05513978 C0.0257747543,1.86576344 0.0745275888,1.68112903 0.144671202,1.50537634 L0.887452759,1.799 L0.887452759,2.17429032" id="Fill-31" fill="#EEA339"></path>
                            <path d="M2.72108844,0.720473118 L2.87883598,0.0752688172 C3.06341648,0.119827957 3.24285714,0.186967742 3.41292517,0.275483871 L2.90415722,1.24524731 L2.90597128,0.758333333 C2.84724112,0.758634409 2.75714286,0.749677419 2.72108844,0.720473118" id="Fill-33" fill="#EEA339"></path>
                            <path d="M0.908385345,2.23744086 L0.00437929786,2.1827957 C-0.00726091378,2.37156989 0.00430371207,2.56207527 0.0390731754,2.75002151 C0.0390731754,2.75002151 0.908385345,2.75544086 0.908385345,2.75002151 L0.908385345,2.23744086" id="Fill-35" fill="#EEA339"></path>
                            <path d="M0.899395314,1.63024731 C0.870143613,1.59208602 0.888208617,1.57176344 0.919727891,1.55151613 C0.951322751,1.53134409 0.946787604,1.5156129 0.93106576,1.48648387 C0.91526833,1.45727957 0.899470899,1.4258172 0.928798186,1.39443011 C0.958125472,1.36296774 0.946787604,1.34949462 0.924263039,1.32706452 C0.901738473,1.30463441 0.899470899,1.27994624 0.919727891,1.26195699 C0.940060469,1.24396774 0.935525321,1.23049462 0.922071051,1.21258065 C0.908465608,1.1945914 0.881934996,1.15816129 0.905668934,1.13460215 L0.536885865,0.827956989 C0.415041572,0.973075269 0.310733182,1.13324731 0.22675737,1.30501075 L0.899395314,1.63024731" id="Fill-37" fill="#EEA339"></path>
                            <path d="M1.78291761,1.79741935 L1.34338624,1.37297849 C1.40536659,1.31125806 1.41156463,1.30117204 1.36764928,1.25736559 C1.31972789,1.20964516 1.31798942,1.20467742 1.41549509,1.10750538 C1.44875283,1.07446237 1.43015873,1.05135484 1.38284203,1.05135484 L1.09312169,1.05135484 C1.06832955,1.05135484 1.04882842,1.05263441 1.03068783,1.07069892 L0.680272109,0.732892473 C0.813983371,0.595827957 0.963340892,0.476225806 1.12464097,0.376344086 L1.78291761,1.43048387 L1.78291761,1.79741935" id="Fill-39" fill="#EEA339"></path>
                            <path d="M1.71632653,1.24577419 L1.71632653,0.747946237 C1.71632653,0.424666667 1.73454271,0.262989247 1.78185941,0.230473118 L1.74399093,0.0752688172 C1.55888133,0.124870968 1.37944067,0.192010753 1.20937264,0.280526882 L1.71632653,1.24577419" id="Fill-43" fill="#EEA339"></path>
                            <path d="M3.77928949,2.17429032 L4.66674225,2.05513978 C4.6409675,1.86576344 4.59221466,1.68112903 4.52207105,1.50537634 L3.77928949,1.799 L3.77928949,2.17429032" id="Fill-47" fill="#EEA339"></path>
                            <path d="M3.77928949,2.23744086 L4.68321995,2.1827957 C4.69486017,2.37156989 4.68337113,2.56207527 4.64852608,2.75002151 C4.64852608,2.75002151 3.77928949,2.75544086 3.77928949,2.75002151 L3.77928949,2.23744086" id="Fill-49" fill="#EEA339"></path>
                            <path d="M3.75072657,1.63024731 C3.78005385,1.59208602 3.76191326,1.57176344 3.73039399,1.55151613 C3.69879913,1.53134409 3.70333428,1.5156129 3.71905612,1.48648387 C3.73485355,1.45727957 3.75065098,1.4258172 3.72132369,1.39443011 C3.69199641,1.36296774 3.70333428,1.34949462 3.72585884,1.32706452 C3.74838341,1.30463441 3.75065098,1.27994624 3.73039399,1.26195699 C3.71006141,1.24396774 3.71459656,1.23049462 3.72805083,1.21258065 C3.74165627,1.1945914 3.7681113,1.15816129 3.74445295,1.13460215 L4.11323602,0.827956989 C4.23508031,0.973075269 4.33931311,1.13324731 4.42328893,1.30501075 L3.75072657,1.63024731" id="Fill-51" fill="#EEA339"></path>
                            <path d="M2.9478458,1.79741935 L3.38737717,1.37297849 C3.32532124,1.31125806 3.3191232,1.30117204 3.36311413,1.25736559 C3.41103553,1.20964516 3.412774,1.20467742 3.31526833,1.10750538 C3.281935,1.07446237 3.30060469,1.05135484 3.34792139,1.05135484 L3.63764172,1.05135484 C3.66243386,1.05135484 3.681935,1.05263441 3.70007559,1.07069892 L4.05049131,0.732892473 C3.91678005,0.595827957 3.76742252,0.476225806 3.60612245,0.376344086 L2.9478458,1.43048387 L2.9478458,1.79741935" id="Fill-53" fill="#EEA339"></path>
                            <path d="M1.05820106,1.65591398 C1.07399849,1.67164516 1.08080121,1.68730108 1.08080121,1.72546237 L1.08080121,2.92660215 C1.08080121,3.3262043 1.32426304,3.54847312 1.57452759,3.54847312 C1.80445956,3.54847312 1.95555556,3.33967742 2.03446712,3.09723656 C1.93303099,3.1758172 1.78420257,3.20050538 1.64210128,3.20050538 C1.47755102,3.20050538 1.21156463,3.09053763 1.21156463,2.85253763 L1.21156463,1.68730108 C1.21156463,1.65591398 1.17996977,1.65591398 1.05820106,1.65591398" id="Fill-57" fill="#D82332"></path>
                            <path d="M2.49598297,0.082160731 C2.18162167,0.050472559 1.89001169,0.115580086 1.89001169,0.542655355 L1.89001169,1.67733277 C1.89001169,1.86678439 1.8750457,1.84427901 2.03627019,1.88409621 C2.3287872,1.95635428 2.36196936,1.96553708 2.71676906,2.04622525 L2.71676906,0.891752129 C2.41382121,0.858709118 2.2825287,0.661128473 2.2825287,0.442322021 C2.2825287,0.268225247 2.35977737,0.104365032 2.49598297,0.082160731" id="Fill-58" fill="#D82332"></path>
                            <path d="M3.62176871,1.65591398 C3.60597128,1.67164516 3.59916856,1.68730108 3.59916856,1.72546237 L3.59916856,2.92660215 C3.59916856,3.3262043 3.35570673,3.54847312 3.10544218,3.54847312 C2.8755102,3.54847312 2.72441421,3.33967742 2.64550265,3.09723656 C2.74701436,3.1758172 2.8957672,3.20050538 3.03786848,3.20050538 C3.20241875,3.20050538 3.46840514,3.09053763 3.46840514,2.85253763 L3.46840514,1.68730108 C3.46840514,1.65591398 3.5,1.65591398 3.62176871,1.65591398" id="Fill-59" fill="#D82332"></path>
                        </g>
                        <g id="Oval-210">
                            <mask id="mask-4" fill="white">
                                <use xlink:href="#path-3"></use>
                            </mask>
                            <g id="Mask"></g>
                            <ellipse fill="#064A89" mask="url(#mask-4)" cx="2.38095238" cy="6.06666667" rx="2.38095238" ry="2.33333333"></ellipse>
                        </g>
                    </g>
                </g>
            </g>
        </g>
    </g>
</svg>