<?xml version="1.0" encoding="UTF-8"?>
<svg width="20px" height="14px" viewBox="0 0 20 14" version="1.1" xmlns="http://www.w3.org/2000/svg" xmlns:xlink="http://www.w3.org/1999/xlink">
    <!-- Generator: Sketch 44.1 (41455) - http://www.bohemiancoding.com/sketch -->
    <title>VE</title>
    <desc>Created with Sketch.</desc>
    <defs>
        <rect id="path-1" x="0" y="0" width="20" height="14" rx="2"></rect>
    </defs>
    <g id="Page-1" stroke="none" stroke-width="1" fill="none" fill-rule="evenodd">
        <g id="Flags" transform="translate(-28.000000, -1036.000000)">
            <g id="VE" transform="translate(28.000000, 1036.000000)">
                <mask id="mask-2" fill="white">
                    <use xlink:href="#path-1"></use>
                </mask>
                <use id="Mask" fill="#FFFFFF" xlink:href="#path-1"></use>
                <rect id="Rectangle-2-Copy-4" fill="#063191" mask="url(#mask-2)" x="0" y="4.66666667" width="20" height="4.66666667"></rect>
                <rect id="Rectangle-2" fill="#E2213B" mask="url(#mask-2)" x="0" y="9.33333333" width="20" height="4.66666667"></rect>
                <path d="M10,6.53333333 C9.73700726,6.53333333 9.52380952,6.32439955 9.52380952,6.06666667 C9.52380952,5.80893378 9.73700726,5.6 10,5.6 C10.2629927,5.6 10.4761905,5.80893378 10.4761905,6.06666667 C10.4761905,6.32439955 10.2629927,6.53333333 10,6.53333333 Z M8.0952381,7 C7.83224536,7 7.61904762,6.79106622 7.61904762,6.53333333 C7.61904762,6.27560045 7.83224536,6.06666667 8.0952381,6.06666667 C8.35823083,6.06666667 8.57142857,6.27560045 8.57142857,6.53333333 C8.57142857,6.79106622 8.35823083,7 8.0952381,7 Z M11.9047619,7 C11.6417692,7 11.4285714,6.79106622 11.4285714,6.53333333 C11.4285714,6.27560045 11.6417692,6.06666667 11.9047619,6.06666667 C12.1677546,6.06666667 12.3809524,6.27560045 12.3809524,6.53333333 C12.3809524,6.79106622 12.1677546,7 11.9047619,7 Z M7.14285714,8.4 C6.8798644,8.4 6.66666667,8.19106622 6.66666667,7.93333333 C6.66666667,7.67560045 6.8798644,7.46666667 7.14285714,7.46666667 C7.40584988,7.46666667 7.61904762,7.67560045 7.61904762,7.93333333 C7.61904762,8.19106622 7.40584988,8.4 7.14285714,8.4 Z M12.8571429,8.4 C12.5941501,8.4 12.3809524,8.19106622 12.3809524,7.93333333 C12.3809524,7.67560045 12.5941501,7.46666667 12.8571429,7.46666667 C13.1201356,7.46666667 13.3333333,7.67560045 13.3333333,7.93333333 C13.3333333,8.19106622 13.1201356,8.4 12.8571429,8.4 Z" id="Oval-61" fill="#FFFFFF" mask="url(#mask-2)"></path>
                <rect id="Rectangle-2" fill="#FFD044" mask="url(#mask-2)" x="0" y="0" width="20" height="4.66666667"></rect>
            </g>
        </g>
    </g>
</svg>