<?xml version="1.0" encoding="UTF-8"?>
<svg width="20px" height="14px" viewBox="0 0 20 14" version="1.1" xmlns="http://www.w3.org/2000/svg" xmlns:xlink="http://www.w3.org/1999/xlink">
    <!-- Generator: Sketch 44.1 (41455) - http://www.bohemiancoding.com/sketch -->
    <title>BY</title>
    <desc>Created with Sketch.</desc>
    <defs>
        <rect id="path-1" x="0" y="0" width="20" height="14" rx="2"></rect>
    </defs>
    <g id="Page-1" stroke="none" stroke-width="1" fill="none" fill-rule="evenodd">
        <g id="Flags" transform="translate(-460.000000, -76.000000)">
            <g id="BY" transform="translate(460.000000, 76.000000)">
                <mask id="mask-2" fill="white">
                    <use xlink:href="#path-1"></use>
                </mask>
                <use id="Mask" fill="#FFFFFF" xlink:href="#path-1"></use>
                <rect id="Rectangle-2" fill="#E54252" mask="url(#mask-2)" x="0" y="0" width="20" height="9.33333333"></rect>
                <rect id="Rectangle-2" fill="#5CBE6B" mask="url(#mask-2)" x="0" y="9.33333333" width="20" height="4.66666667"></rect>
                <path d="M2.85714286,11.9 L2.85714286,14 L0,14 L0,0 L2.85714286,0 L2.85714286,2.1 L2.38095238,2.8 L2.85714286,3.5 L2.85714286,4.9 L2.38095238,5.6 L2.85714286,6.3 L2.85714286,7.7 L2.38095238,8.4 L2.85714286,9.1 L2.85714286,10.5 L2.38095238,11.2 L2.85714286,11.9 Z" id="Rectangle-1512" fill="#FFFFFF" mask="url(#mask-2)"></path>
                <path d="M-1.42857143,2.8 L-0.476190476,1.4 L0.476190476,2.8 L-0.476190476,4.2 L-1.42857143,2.8 Z M-1.42857143,5.6 L-0.476190476,4.2 L0.476190476,5.6 L-0.476190476,7 L-1.42857143,5.6 Z M-1.42857143,8.4 L-0.476190476,7 L0.476190476,8.4 L-0.476190476,9.8 L-1.42857143,8.4 Z M-1.42857143,11.2 L-0.476190476,9.8 L0.476190476,11.2 L-0.476190476,12.6 L-1.42857143,11.2 Z" id="Rectangle-1513" fill="#E54252" mask="url(#mask-2)"></path>
                <path d="M0.476190476,1.4 L1.42857143,0 L2.38095238,1.4 L1.42857143,2.8 L0.476190476,1.4 Z M0.476190476,4.2 L1.42857143,2.8 L2.38095238,4.2 L1.42857143,5.6 L0.476190476,4.2 Z M0.476190476,7 L1.42857143,5.6 L2.38095238,7 L1.42857143,8.4 L0.476190476,7 Z M0.476190476,9.8 L1.42857143,8.4 L2.38095238,9.8 L1.42857143,11.2 L0.476190476,9.8 Z M0.476190476,12.6 L1.42857143,11.2 L2.38095238,12.6 L1.42857143,14 L0.476190476,12.6 Z" id="Rectangle-1513" fill="#E54252" mask="url(#mask-2)"></path>
            </g>
        </g>
    </g>
</svg>