<?xml version="1.0" encoding="UTF-8"?>
<svg width="20px" height="14px" viewBox="0 0 20 14" version="1.1" xmlns="http://www.w3.org/2000/svg" xmlns:xlink="http://www.w3.org/1999/xlink">
    <!-- Generator: Sketch 44.1 (41455) - http://www.bohemiancoding.com/sketch -->
    <title>HK</title>
    <desc>Created with Sketch.</desc>
    <defs>
        <rect id="path-1" x="0" y="0" width="20" height="14" rx="2"></rect>
    </defs>
    <g id="Page-1" stroke="none" stroke-width="1" fill="none" fill-rule="evenodd">
        <g id="Flags" transform="translate(-76.000000, -364.000000)">
            <g id="HK" transform="translate(76.000000, 364.000000)">
                <mask id="mask-2" fill="white">
                    <use xlink:href="#path-1"></use>
                </mask>
                <use id="Mask" fill="#FFFFFF" xlink:href="#path-1"></use>
                <rect id="Rectangle-2" fill="#F0371D" mask="url(#mask-2)" x="0" y="0" width="20" height="14"></rect>
                <path d="M11.4285714,6.71102173 C10.6685965,6.24435507 10.4761905,7.09228968 10.4761905,6.71102173 C10.4761905,5.93782308 11.3289814,5.31102173 12.3809524,5.31102173 C13.4329233,5.31102173 14.2857143,5.93782308 14.2857143,6.71102173 C13.3820452,6.71102173 13.2917725,7.1776884 12.8571429,7.1776884 C12.3239038,7.1776884 12.1885463,7.1776884 11.4285714,6.71102173 Z M12.6190476,6.53333333 C12.750544,6.53333333 12.8571429,6.42886644 12.8571429,6.3 C12.8571429,6.17113356 12.750544,6.06666667 12.6190476,6.06666667 C12.4875513,6.06666667 12.3809524,6.17113356 12.3809524,6.3 C12.3809524,6.42886644 12.4875513,6.53333333 12.6190476,6.53333333 Z M10.9033946,8.34684423 C11.1123758,7.47985723 10.2464853,7.5588944 10.6090927,7.44107612 C11.3444483,7.2021446 12.2040987,7.81950472 12.5291756,8.81998855 C12.8542525,9.82047238 12.5216559,10.825217 11.7863003,11.0641486 C11.5070512,10.2047082 11.035329,10.2630617 10.9010211,9.84970433 C10.7362411,9.34256386 10.6944134,9.21383123 10.9033946,8.34684423 Z M11.4391836,9.41961679 C11.4798183,9.54467727 11.612113,9.61377678 11.7346723,9.57395486 C11.8572316,9.53413294 11.9236446,9.40046934 11.88301,9.27540886 C11.8423754,9.15034838 11.7100806,9.08124888 11.5875214,9.1210708 C11.4649621,9.16089272 11.398549,9.29455631 11.4391836,9.41961679 Z M9.12975713,8.36693311 C10.0188895,8.29777234 9.67614583,7.49868538 9.90024951,7.80713763 C10.3547243,8.43266848 10.0332265,9.44101937 9.18216411,10.0593524 C8.33110173,10.6776854 7.27275477,10.6718504 6.81828,10.0463195 C7.54936365,9.51515618 7.34809601,9.08455396 7.69971878,8.82908506 C8.13111823,8.51565501 8.24062475,8.43609388 9.12975713,8.36693311 Z M8.27041679,9.20763142 C8.16403399,9.28492304 8.13919779,9.43209578 8.21494359,9.53635092 C8.29068938,9.64060606 8.43833377,9.66246431 8.54471657,9.58517268 C8.65109937,9.50788105 8.67593557,9.36070832 8.60018977,9.25645318 C8.52444398,9.15219804 8.37679958,9.13033979 8.27041679,9.20763142 Z M8.55876574,6.74352622 C8.89929856,7.56776952 9.5533618,6.99486945 9.32925812,7.3033217 C8.87478335,7.92885255 7.81643639,7.93468755 6.96537401,7.31635454 C6.11431164,6.69802152 5.79281385,5.68967063 6.24728862,5.06413979 C6.97837226,5.59530315 7.32570419,5.27082284 7.67732696,5.52629174 C8.10872642,5.83972179 8.21823293,5.91928293 8.55876574,6.74352622 Z M7.49187515,6.19033379 C7.38549235,6.11304216 7.23784795,6.13490041 7.16210216,6.23915555 C7.08635637,6.34341069 7.11119257,6.49058342 7.21757536,6.56787505 C7.32395816,6.64516668 7.47160255,6.62330843 7.54734835,6.51905329 C7.62309414,6.41479815 7.59825794,6.26762541 7.49187515,6.19033379 Z M9.97951111,5.72011671 C9.30083958,6.29868785 10.0478166,6.7437031 9.68520921,6.62588482 C8.9498536,6.3869533 8.61725699,5.38220864 8.94233389,4.38172481 C9.26741079,3.38124098 10.1270612,2.76388085 10.8624168,3.00281238 C10.5831677,3.86225275 10.9990983,4.09231512 10.8647903,4.50567247 C10.7000104,5.01281295 10.6581826,5.14154557 9.97951111,5.72011671 Z M10.1794768,4.53752668 C10.2201114,4.4124662 10.1536984,4.2788026 10.0311391,4.23898068 C9.90857982,4.19915876 9.77628504,4.26825827 9.73565043,4.39331875 C9.69501582,4.51837922 9.76142887,4.65204282 9.88398814,4.69186474 C10.0065474,4.73168666 10.1388422,4.66258715 10.1794768,4.53752668 Z" id="Oval-145" fill="#FFFFFF" mask="url(#mask-2)"></path>
            </g>
        </g>
    </g>
</svg>