<?xml version="1.0" encoding="UTF-8"?>
<svg width="20px" height="14px" viewBox="0 0 20 14" version="1.1" xmlns="http://www.w3.org/2000/svg" xmlns:xlink="http://www.w3.org/1999/xlink">
    <!-- Generator: Sketch 44.1 (41455) - http://www.bohemiancoding.com/sketch -->
    <title>GR</title>
    <desc>Created with Sketch.</desc>
    <defs>
        <rect id="path-1" x="0" y="0" width="20" height="14" rx="2"></rect>
    </defs>
    <g id="Page-1" stroke="none" stroke-width="1" fill="none" fill-rule="evenodd">
        <g id="Flags" transform="translate(-364.000000, -316.000000)">
            <g id="GR" transform="translate(364.000000, 316.000000)">
                <mask id="mask-2" fill="white">
                    <use xlink:href="#path-1"></use>
                </mask>
                <g id="Mask">
                    <use fill="#FFFFFF" fill-rule="evenodd" xlink:href="#path-1"></use>
                    <rect stroke="#F5F5F5" stroke-width="0.5" x="0.25" y="0.25" width="19.5" height="13.5" rx="2"></rect>
                </g>
                <path d="M0,0 L3.80952381,0 L3.80952381,3.73333333 L0,3.73333333 L0,0 Z M5.71428571,0 L9.52380952,0 L9.52380952,3.73333333 L5.71428571,3.73333333 L5.71428571,0 Z M9.52380952,0 L20,0 L20,1.86666667 L9.52380952,1.86666667 L9.52380952,0 Z M9.52380952,3.73333333 L20,3.73333333 L20,5.6 L9.52380952,5.6 L9.52380952,3.73333333 Z M9.52380952,7.46666667 L20,7.46666667 L20,9.33333333 L9.52380952,9.33333333 L9.52380952,7.46666667 Z M0,11.2 L20,11.2 L20,13.0666667 L0,13.0666667 L0,11.2 Z M5.71428571,5.6 L9.52380952,5.6 L9.52380952,9.33333333 L5.71428571,9.33333333 L5.71428571,5.6 Z M0,5.6 L3.80952381,5.6 L3.80952381,9.33333333 L0,9.33333333 L0,5.6 Z" id="Rectangle-537" fill="#1C6DC1" mask="url(#mask-2)"></path>
            </g>
        </g>
    </g>
</svg>