<?xml version="1.0" encoding="UTF-8"?>
<svg width="20px" height="14px" viewBox="0 0 20 14" version="1.1" xmlns="http://www.w3.org/2000/svg" xmlns:xlink="http://www.w3.org/1999/xlink">
    <!-- Generator: Sketch 45.1 (43504) - http://www.bohemiancoding.com/sketch -->
    <title>SG</title>
    <desc>Created with Sketch.</desc>
    <defs>
        <linearGradient x1="50%" y1="0%" x2="50%" y2="100%" id="linearGradient-1">
            <stop stop-color="#FFFFFF" offset="0%"></stop>
            <stop stop-color="#F0F0F0" offset="100%"></stop>
        </linearGradient>
        <rect id="path-2" x="0" y="0" width="20" height="14" rx="2"></rect>
    </defs>
    <g id="Page-1" stroke="none" stroke-width="1" fill="none" fill-rule="evenodd">
        <g id="Flags" transform="translate(-76.000000, -892.000000)">
            <g id="SG" transform="translate(76.000000, 892.000000)">
                <mask id="mask-3" fill="white">
                    <use xlink:href="#path-2"></use>
                </mask>
                <g id="Mask">
                    <use fill="#FFFFFF" fill-rule="evenodd" xlink:href="#path-2"></use>
                    <rect stroke="#F5F5F5" stroke-width="0.5" x="0.25" y="0.25" width="19.5" height="13.5" rx="2"></rect>
                </g>
                <rect id="Rectangle-2" fill="#E12237" mask="url(#mask-3)" x="0" y="0" width="20" height="7.46666667"></rect>
                <path d="M6.54631902,1.54643281 C6.28731503,1.45175387 6.0069676,1.4 5.71428571,1.4 C4.39932202,1.4 3.33333333,2.44466892 3.33333333,3.73333333 C3.33333333,5.02199775 4.39932202,6.06666667 5.71428571,6.06666667 C6.0069676,6.06666667 6.28731503,6.0149128 6.54631902,5.92023386 C6.05737701,6.3038889 5.43698253,6.53333333 4.76190476,6.53333333 C3.18394833,6.53333333 1.9047619,5.27973063 1.9047619,3.73333333 C1.9047619,2.18693603 3.18394833,0.933333333 4.76190476,0.933333333 C5.43698253,0.933333333 6.05737701,1.16277776 6.54631902,1.54643281 Z M5.23809524,3.73333333 C4.9751025,3.73333333 4.76190476,3.52439955 4.76190476,3.26666667 C4.76190476,3.00893378 4.9751025,2.8 5.23809524,2.8 C5.50108798,2.8 5.71428571,3.00893378 5.71428571,3.26666667 C5.71428571,3.52439955 5.50108798,3.73333333 5.23809524,3.73333333 Z M6.19047619,5.6 C5.92748345,5.6 5.71428571,5.39106622 5.71428571,5.13333333 C5.71428571,4.87560045 5.92748345,4.66666667 6.19047619,4.66666667 C6.45346893,4.66666667 6.66666667,4.87560045 6.66666667,5.13333333 C6.66666667,5.39106622 6.45346893,5.6 6.19047619,5.6 Z M8.0952381,5.6 C7.83224536,5.6 7.61904762,5.39106622 7.61904762,5.13333333 C7.61904762,4.87560045 7.83224536,4.66666667 8.0952381,4.66666667 C8.35823083,4.66666667 8.57142857,4.87560045 8.57142857,5.13333333 C8.57142857,5.39106622 8.35823083,5.6 8.0952381,5.6 Z M9.04761905,3.73333333 C8.78462631,3.73333333 8.57142857,3.52439955 8.57142857,3.26666667 C8.57142857,3.00893378 8.78462631,2.8 9.04761905,2.8 C9.31061179,2.8 9.52380952,3.00893378 9.52380952,3.26666667 C9.52380952,3.52439955 9.31061179,3.73333333 9.04761905,3.73333333 Z M7.14285714,2.33333333 C6.8798644,2.33333333 6.66666667,2.12439955 6.66666667,1.86666667 C6.66666667,1.60893378 6.8798644,1.4 7.14285714,1.4 C7.40584988,1.4 7.61904762,1.60893378 7.61904762,1.86666667 C7.61904762,2.12439955 7.40584988,2.33333333 7.14285714,2.33333333 Z" id="Oval-12" fill="#FFFFFF" mask="url(#mask-3)"></path>
            </g>
        </g>
    </g>
</svg>