<?xml version="1.0" encoding="UTF-8"?>
<svg width="20px" height="14px" viewBox="0 0 20 14" version="1.1" xmlns="http://www.w3.org/2000/svg" xmlns:xlink="http://www.w3.org/1999/xlink">
    <!-- Generator: Sketch 44.1 (41455) - http://www.bohemiancoding.com/sketch -->
    <title>CN</title>
    <desc>Created with Sketch.</desc>
    <defs>
        <rect id="path-1" x="0" y="0" width="20" height="14" rx="2"></rect>
    </defs>
    <g id="Page-1" stroke="none" stroke-width="1" fill="none" fill-rule="evenodd">
        <g id="Flags" transform="translate(-268.000000, -124.000000)">
            <g id="CN" transform="translate(268.000000, 124.000000)">
                <mask id="mask-2" fill="white">
                    <use xlink:href="#path-1"></use>
                </mask>
                <use id="Mask" fill="#FFFFFF" xlink:href="#path-1"></use>
                <rect id="Mask" fill="#F1361D" mask="url(#mask-2)" x="0" y="0" width="20" height="14"></rect>
                <path d="M9.64459174,4.18409872 L9.04413309,4.54510967 L9.06384484,3.8565805 L8.70250938,3.27015262 L9.4030273,3.28256795 L10.003486,2.921557 L9.9837742,3.61008617 L10.3451097,4.19651404 L9.64459174,4.18409872 Z M7.89066489,2.28610389 L7.2006485,2.16462599 L7.66724093,1.6579185 L7.7792689,0.978278373 L8.2998113,1.44722945 L8.98982769,1.56870735 L8.52323526,2.07541483 L8.41120729,2.75505496 L7.89066489,2.28610389 Z M8.23167822,8.37960889 L7.64418445,8.76135562 L7.63985488,8.07255795 L7.25827349,7.49909774 L7.95879797,7.48705778 L8.54629174,7.10531105 L8.55062131,7.79410871 L8.9322027,8.36756892 L8.23167822,8.37960889 Z M9.44277371,6.52624362 L8.74600354,6.59966586 L9.05485345,5.98397706 L8.97520744,5.29978594 L9.60484534,5.60708972 L10.3016155,5.53366747 L9.9927656,6.14935628 L10.0724116,6.83354739 L9.44277371,6.52624362 Z" id="Star-2" fill="#FFDC42" mask="url(#mask-2)"></path>
                <polygon id="Star-8" fill="#FFDC42" mask="url(#mask-2)" points="4.76190476 5.75866671 3.08251833 6.93191425 3.70215603 5.00411324 2.04460043 3.80141908 4.10694403 3.78322007 4.76190476 1.86666667 5.4168655 3.78322007 7.47920909 3.80141908 5.82165349 5.00411324 6.4412912 6.93191425"></polygon>
            </g>
        </g>
    </g>
</svg>