<?xml version="1.0" encoding="UTF-8"?>
<svg width="20px" height="14px" viewBox="0 0 20 14" version="1.1" xmlns="http://www.w3.org/2000/svg" xmlns:xlink="http://www.w3.org/1999/xlink">
    <!-- Generator: Sketch 44.1 (41455) - http://www.bohemiancoding.com/sketch -->
    <title>CY</title>
    <desc>Created with Sketch.</desc>
    <defs>
        <rect id="path-1" x="0" y="0" width="20" height="14" rx="2"></rect>
    </defs>
    <g id="Page-1" stroke="none" stroke-width="1" fill="none" fill-rule="evenodd">
        <g id="Flags" transform="translate(-700.000000, -124.000000)">
            <g id="CY" transform="translate(700.000000, 124.000000)">
                <mask id="mask-2" fill="white">
                    <use xlink:href="#path-1"></use>
                </mask>
                <g id="Mask">
                    <use fill="#FFFFFF" fill-rule="evenodd" xlink:href="#path-1"></use>
                    <rect stroke="#F5F5F5" stroke-width="0.5" x="0.25" y="0.25" width="19.5" height="13.5" rx="2"></rect>
                </g>
                <path d="M14.6403458,2.15956389 C14.9704737,1.99780122 15.0722031,2.11052806 14.8616891,2.41998374 L14.6621205,2.7133496 C14.4542371,3.01893818 14.0368761,3.42924093 13.721105,3.63554471 L13.4217521,3.83112195 C13.109927,4.03484767 12.64134,4.41148682 12.3863002,4.66142578 L12.851795,4.20524089 C12.5917558,4.46007931 12.5923166,4.87380358 12.8571429,5.13333333 L12.8571429,5.13333333 C13.1201356,5.39106622 13.1219691,5.80713692 12.8571429,6.06666667 L12.8571429,6.06666667 C12.5941501,6.32439955 12.1207101,6.40581462 11.7832029,6.24043611 L12.0263209,6.35956389 C11.696193,6.19780122 11.2933881,6.331626 11.1242966,6.66304525 L11.2566557,6.40362142 C11.0886094,6.73299221 10.676938,7.08997803 10.3216303,7.20604521 L10.1545602,7.26062145 C9.80620621,7.37441708 9.22247024,7.46666667 8.85202317,7.46666667 L9.24321493,7.46666667 C8.87219757,7.46666667 8.43624524,7.731626 8.26715379,8.06304525 L8.39951288,7.80362142 C8.23146656,8.13299221 7.83038911,8.270224 7.49255952,8.1046875 L6.79315476,7.76197917 C6.46030458,7.59888258 5.97911199,7.25952975 5.71428571,7 L5.71428571,7 C5.45129298,6.74226712 5.23809524,6.23802083 5.23809524,5.87498271 L5.23809524,6.25835063 C5.23809524,5.89475362 5.54237002,5.6 5.71428571,5.6 L5.23809524,5.6 C5.50108798,5.6 5.92564992,5.39286308 6.19047619,5.13333333 L6.19047619,5.13333333 C6.45346893,4.87560045 6.96800595,4.66666667 7.33845302,4.66666667 L6.94726127,4.66666667 C7.31827862,4.66666667 7.71541187,4.38335578 7.83485049,4.03220622 L7.87943522,3.90112712 C7.99861986,3.55072429 8.38718959,3.32388916 8.7458438,3.39418538 L9.82558477,3.60581462 C10.1849044,3.67624126 10.7738095,3.66041667 11.121056,3.57534129 L11.7360869,3.42465871 C12.0922363,3.33740211 12.6411947,3.13914795 12.9787018,2.97376944 L12.7355839,3.09289722 C13.0657118,2.93113455 13.5935756,2.67248128 13.9310828,2.50710278 L13.6879648,2.62623056 C14.0180927,2.46446789 14.5459566,2.20581462 14.8834637,2.04043611 L14.6403458,2.15956389 Z" id="Line" fill="#E7832C" mask="url(#mask-2)"></path>
                <ellipse id="Oval-81" fill="#445128" mask="url(#mask-2)" cx="10" cy="10.7333333" rx="1" ry="1"></ellipse>
                <path d="M11.4285714,10.2666667 C11.4285714,10.2666667 12.8571429,9.8 13.3333333,8.86666667" id="Line" stroke="#445128" stroke-width="1.33333333" opacity="0.75" stroke-linecap="round" mask="url(#mask-2)"></path>
                <path d="M6.66666667,10.2666667 C6.66666667,10.2666667 8.0952381,9.8 8.57142857,8.86666667" id="Line" stroke="#445128" stroke-width="1.33333333" opacity="0.75" stroke-linecap="round" mask="url(#mask-2)" transform="translate(7.619048, 9.566667) scale(-1, 1) translate(-7.619048, -9.566667) "></path>
            </g>
        </g>
    </g>
</svg>