<?xml version="1.0" encoding="UTF-8"?>
<svg width="20px" height="14px" viewBox="0 0 20 14" version="1.1" xmlns="http://www.w3.org/2000/svg" xmlns:xlink="http://www.w3.org/1999/xlink">
    <!-- Generator: Sketch 44.1 (41455) - http://www.bohemiancoding.com/sketch -->
    <title>KR</title>
    <desc>Created with Sketch.</desc>
    <defs>
        <rect id="path-1" x="0" y="0" width="20" height="14" rx="2"></rect>
        <ellipse id="path-3" cx="3.33333333" cy="3.26666667" rx="3.33333333" ry="3.26666667"></ellipse>
    </defs>
    <g id="Page-1" stroke="none" stroke-width="1" fill="none" fill-rule="evenodd">
        <g id="Flags" transform="translate(-172.000000, -508.000000)">
            <g id="KR" transform="translate(172.000000, 508.000000)">
                <mask id="mask-2" fill="white">
                    <use xlink:href="#path-1"></use>
                </mask>
                <g id="Mask">
                    <use fill="#FFFFFF" fill-rule="evenodd" xlink:href="#path-1"></use>
                    <rect stroke="#F5F5F5" stroke-width="0.5" x="0.25" y="0.25" width="19.5" height="13.5" rx="2"></rect>
                </g>
                <g id="Oval-9" mask="url(#mask-2)">
                    <g transform="translate(6.666667, 3.733333)">
                        <mask id="mask-4" fill="white">
                            <use xlink:href="#path-3"></use>
                        </mask>
                        <use id="Mask" stroke="none" fill="#E01B41" fill-rule="evenodd" xlink:href="#path-3"></use>
                        <path d="M-1.99840144e-14,3.73333333 C0.95238093,4.60833331 2.38095238,5.13333333 3.33333333,3.73333333 C4.28571429,2.33333333 6.19047619,2.33333328 6.66666667,3.73333333 C7.14285714,5.13333338 6.66666667,6.53333333 6.66666667,6.53333333 L-1.99840144e-14,6.53333333 C-1.99840144e-14,6.53333333 -0.95238093,2.85833335 -1.99840144e-14,3.73333333 Z" id="Rectangle-277" stroke="none" fill="#0E4B9C" fill-rule="evenodd" mask="url(#mask-4)"></path>
                    </g>
                </g>
                <path d="M13.5900266,3.74667988 C13.4982942,3.5877948 13.5528033,3.38458824 13.7124006,3.29244469 L13.9602464,3.14935085 C14.1195641,3.05736875 14.3239867,3.11317413 14.4148127,3.2704894 L15.4826205,5.11998679 C15.5743528,5.27887186 15.5198438,5.48207842 15.3602464,5.57422198 L15.1124006,5.71731582 C14.953083,5.80929791 14.7486604,5.75349253 14.6578344,5.59617727 L13.5900266,3.74667988 Z M14.8272057,3.04667988 C14.7354734,2.8877948 14.7899825,2.68458824 14.9495798,2.59244469 L15.1974256,2.44935085 C15.3567433,2.35736875 15.5611658,2.41317413 15.6519918,2.5704894 L16.7197997,4.41998679 C16.811532,4.57887186 16.7570229,4.78207842 16.5974256,4.87422198 L16.3495798,5.01731582 C16.1902621,5.10929791 15.9858396,5.05349253 15.8950136,4.89617727 L14.8272057,3.04667988 Z M3.28020035,9.58001321 C3.18846801,9.42112814 3.24297709,9.21792158 3.40257441,9.12577802 L3.6504202,8.98268418 C3.80973787,8.89070209 4.01416044,8.94650747 4.10498645,9.10382273 L5.17279427,10.9533201 C5.2645266,11.1122052 5.21001753,11.3154118 5.0504202,11.4075553 L4.80257441,11.5506491 C4.64325675,11.6426312 4.43883418,11.5868259 4.34800817,11.4295106 L3.28020035,9.58001321 Z M4.5173795,8.88001321 C4.42564716,8.72112814 4.48015623,8.51792158 4.63975356,8.42577802 L4.88759935,8.28268418 C5.04691702,8.19070209 5.25133959,8.24650747 5.3421656,8.40382273 L6.40997341,10.2533201 C6.50170575,10.4122052 6.44719668,10.6154118 6.28759935,10.7075553 L6.03975356,10.8506491 C5.88043589,10.9426312 5.67601333,10.8868259 5.58518732,10.7295106 L4.5173795,8.88001321 Z M14.6578344,8.40382273 C14.7495667,8.24493766 14.9528033,8.19054063 15.1124006,8.28268418 L15.3602464,8.42577802 C15.5195641,8.51776012 15.5734465,8.72269794 15.4826205,8.88001321 L14.4148127,10.7295106 C14.3230803,10.8883957 14.1198438,10.9427927 13.9602464,10.8506491 L13.7124006,10.7075553 C13.553083,10.6155732 13.4992006,10.4106354 13.5900266,10.2533201 L14.6578344,8.40382273 Z M15.8950136,9.10382273 C15.9867459,8.94493766 16.1899825,8.89054063 16.3495798,8.98268418 L16.5974256,9.12577802 C16.7567433,9.21776012 16.8106257,9.42269794 16.7197997,9.58001321 L15.6519918,11.4295106 C15.5602595,11.5883957 15.3570229,11.6427927 15.1974256,11.5506491 L14.9495798,11.4075553 C14.7902621,11.3155732 14.7363797,11.1106354 14.8272057,10.9533201 L15.8950136,9.10382273 Z M4.34800817,2.5704894 C4.43974051,2.41160433 4.64297709,2.35720729 4.80257441,2.44935085 L5.0504202,2.59244469 C5.20973787,2.68442678 5.26362028,2.88936461 5.17279427,3.04667988 L4.10498645,4.89617727 C4.01325411,5.05506234 3.81001753,5.10945937 3.6504202,5.01731582 L3.40257441,4.87422198 C3.24325675,4.78223988 3.18937434,4.57730206 3.28020035,4.41998679 L4.34800817,2.5704894 Z M5.58518732,3.2704894 C5.67691965,3.11160433 5.88015623,3.05720729 6.03975356,3.14935085 L6.28759935,3.29244469 C6.44691702,3.38442678 6.50079943,3.58936461 6.40997341,3.74667988 L5.3421656,5.59617727 C5.25043326,5.75506234 5.04719668,5.80945937 4.88759935,5.71731582 L4.63975356,5.57422198 C4.48043589,5.48223988 4.42655349,5.27730206 4.5173795,5.11998679 L5.58518732,3.2704894 Z" id="Rectangle-278" fill="#262626" opacity="0.75" mask="url(#mask-2)"></path>
            </g>
        </g>
    </g>
</svg>