<?xml version="1.0" encoding="UTF-8"?>
<svg width="20px" height="14px" viewBox="0 0 20 14" version="1.1" xmlns="http://www.w3.org/2000/svg" xmlns:xlink="http://www.w3.org/1999/xlink">
    <!-- Generator: Sketch 47.1 (45422) - http://www.bohemiancoding.com/sketch -->
    <title>PH</title>
    <desc>Created with Sketch.</desc>
    <defs>
        <rect id="path-1" x="0" y="0" width="20" height="14" rx="2"></rect>
    </defs>
    <g id="Page-1" stroke="none" stroke-width="1" fill="none" fill-rule="evenodd">
        <g id="Flags" transform="translate(-220.000000, -748.000000)">
            <g id="PH" transform="translate(220.000000, 748.000000)">
                <mask id="mask-2" fill="white">
                    <use xlink:href="#path-1"></use>
                </mask>
                <g id="Mask">
                    <use fill="#FFFFFF" fill-rule="evenodd" xlink:href="#path-1"></use>
                    <rect stroke="#F5F5F5" stroke-width="0.5" x="0.25" y="0.25" width="19.5" height="13.5" rx="2"></rect>
                </g>
                <path d="M0,10.2666667 L0,14 L20,14 L20,6.53333333 L8.88888889,6.53333333 L9.52380952,7 L0,14 L0,10.2666667 Z" id="Combined-Shape" fill="#DD1C34" mask="url(#mask-2)"></path>
                <path d="M0,3.26666667 L0,0 L20,0 L20,6.53333333 L8.88888889,6.53333333 L0,0 L0,3.26666667 Z" id="Combined-Shape" fill="#0D4BC3" mask="url(#mask-2)"></path>
                <path d="M3.23719664,7.92863712 L2.4221823,9.15571891 L2.73127569,7.72321869 C2.68153691,7.68340465 2.63598165,7.6387605 2.59535508,7.59001649 L1.13362016,7.89292801 L2.38574443,7.09421396 C2.38257531,7.06323092 2.38095238,7.0318012 2.38095238,7 C2.38095238,6.9681988 2.38257531,6.93676908 2.38574443,6.90578604 L1.13362016,6.10707199 L2.59535508,6.40998351 C2.63598165,6.3612395 2.68153691,6.31659535 2.73127569,6.27678131 L2.4221823,4.84428109 L3.23719664,6.07136288 C3.26881199,6.06825714 3.30088313,6.06666667 3.33333333,6.06666667 C3.36578354,6.06666667 3.39785468,6.06825714 3.42947003,6.07136288 L4.24448436,4.84428109 L3.93539098,6.27678131 C3.98512976,6.31659535 4.03068502,6.3612395 4.07131159,6.40998351 L5.53304651,6.10707199 L4.28092223,6.90578604 C4.28409136,6.93676908 4.28571429,6.9681988 4.28571429,7 C4.28571429,7.0318012 4.28409136,7.06323092 4.28092223,7.09421396 L5.53304651,7.89292801 L4.07131159,7.59001649 C4.03068502,7.6387605 3.98512976,7.68340465 3.93539098,7.72321869 L4.24448436,9.15571891 L3.42947003,7.92863712 C3.39785468,7.93174286 3.36578354,7.93333333 3.33333333,7.93333333 C3.30088313,7.93333333 3.26881199,7.93174286 3.23719664,7.92863712 Z M7.14285714,7.46666667 C6.8798644,7.46666667 6.66666667,7.25773288 6.66666667,7 C6.66666667,6.74226712 6.8798644,6.53333333 7.14285714,6.53333333 C7.40584988,6.53333333 7.61904762,6.74226712 7.61904762,7 C7.61904762,7.25773288 7.40584988,7.46666667 7.14285714,7.46666667 Z M1.42857143,2.8 C1.16557869,2.8 0.952380952,2.59106622 0.952380952,2.33333333 C0.952380952,2.07560045 1.16557869,1.86666667 1.42857143,1.86666667 C1.69156417,1.86666667 1.9047619,2.07560045 1.9047619,2.33333333 C1.9047619,2.59106622 1.69156417,2.8 1.42857143,2.8 Z M1.42857143,12.1333333 C1.16557869,12.1333333 0.952380952,11.9243995 0.952380952,11.6666667 C0.952380952,11.4089338 1.16557869,11.2 1.42857143,11.2 C1.69156417,11.2 1.9047619,11.4089338 1.9047619,11.6666667 C1.9047619,11.9243995 1.69156417,12.1333333 1.42857143,12.1333333 Z" id="Oval-206" fill="#FDD64D" mask="url(#mask-2)"></path>
            </g>
        </g>
    </g>
</svg>