<?xml version="1.0" encoding="UTF-8"?>
<svg width="20px" height="14px" viewBox="0 0 20 14" version="1.1" xmlns="http://www.w3.org/2000/svg" xmlns:xlink="http://www.w3.org/1999/xlink">
    <!-- Generator: Sketch 44.1 (41455) - http://www.bohemiancoding.com/sketch -->
    <title>KZ</title>
    <desc>Created with Sketch.</desc>
    <defs>
        <rect id="path-1" x="0" y="0" width="20" height="14" rx="2"></rect>
    </defs>
    <g id="Page-1" stroke="none" stroke-width="1" fill="none" fill-rule="evenodd">
        <g id="Flags" transform="translate(-28.000000, -508.000000)">
            <g id="KZ" transform="translate(28.000000, 508.000000)">
                <mask id="mask-2" fill="white">
                    <use xlink:href="#path-1"></use>
                </mask>
                <use id="Mask" fill="#FFFFFF" xlink:href="#path-1"></use>
                <rect id="Mask-Copy" fill="#30C6E0" mask="url(#mask-2)" x="0" y="0" width="20" height="14"></rect>
                <ellipse id="Oval-9" fill="#FFCD4B" mask="url(#mask-2)" cx="10" cy="7" rx="2.85714286" ry="2.8"></ellipse>
                <path d="M10,10.2995291 L8.83441416,12.0046299 L8.5391714,9.97277301 L6.73410104,11.0134016 L7.36767782,9.05722275 L5.28063926,9.22726986 L6.71754793,7.7342143 L4.76190476,7 L6.71754793,6.2657857 L5.28063926,4.77273014 L7.36767782,4.94277725 L6.73410104,2.98659839 L8.5391714,4.02722699 L8.83441416,1.99537005 L10,3.70047089 L11.1655858,1.99537005 L11.4608286,4.02722699 L13.265899,2.98659839 L12.6323222,4.94277725 L14.7193607,4.77273014 L13.2824521,6.2657857 L15.2380952,7 L13.2824521,7.7342143 L14.7193607,9.22726986 L12.6323222,9.05722275 L13.265899,11.0134016 L11.4608286,9.97277301 L11.1655858,12.0046299 L10,10.2995291 Z M10,10.2666667 C11.8409492,10.2666667 13.3333333,8.80413018 13.3333333,7 C13.3333333,5.19586982 11.8409492,3.73333333 10,3.73333333 C8.15905083,3.73333333 6.66666667,5.19586982 6.66666667,7 C6.66666667,8.80413018 8.15905083,10.2666667 10,10.2666667 Z" id="Star-28" fill="#FFCD4B" mask="url(#mask-2)"></path>
                <path d="M0.952380952,1.27028809 C0.952380952,1.08419311 1.10119048,0.933333333 1.28547759,0.933333333 L1.57166526,0.933333333 C1.75562946,0.933333333 1.9047619,1.07916667 1.9047619,1.27028809 L1.9047619,1.52971191 C1.9047619,1.71580689 1.75595238,1.86666667 1.57166526,1.86666667 L1.28547759,1.86666667 C1.1015134,1.86666667 0.952380952,1.72083333 0.952380952,1.52971191 L0.952380952,1.27028809 Z M0.952380952,3.13695475 C0.952380952,2.95085978 1.10119048,2.8 1.28547759,2.8 L1.57166526,2.8 C1.75562946,2.8 1.9047619,2.94583333 1.9047619,3.13695475 L1.9047619,3.39637858 C1.9047619,3.58247355 1.75595238,3.73333333 1.57166526,3.73333333 L1.28547759,3.73333333 C1.1015134,3.73333333 0.952380952,3.5875 0.952380952,3.39637858 L0.952380952,3.13695475 Z M0.952380952,5.00362142 C0.952380952,4.81752645 1.10119048,4.66666667 1.28547759,4.66666667 L1.57166526,4.66666667 C1.75562946,4.66666667 1.9047619,4.8125 1.9047619,5.00362142 L1.9047619,5.26304525 C1.9047619,5.44914022 1.75595238,5.6 1.57166526,5.6 L1.28547759,5.6 C1.1015134,5.6 0.952380952,5.45416667 0.952380952,5.26304525 L0.952380952,5.00362142 Z M0.952380952,6.87028809 C0.952380952,6.68419311 1.10119048,6.53333333 1.28547759,6.53333333 L1.57166526,6.53333333 C1.75562946,6.53333333 1.9047619,6.67916667 1.9047619,6.87028809 L1.9047619,7.12971191 C1.9047619,7.31580689 1.75595238,7.46666667 1.57166526,7.46666667 L1.28547759,7.46666667 C1.1015134,7.46666667 0.952380952,7.32083333 0.952380952,7.12971191 L0.952380952,6.87028809 Z M0.952380952,8.73695475 C0.952380952,8.55085978 1.10119048,8.4 1.28547759,8.4 L1.57166526,8.4 C1.75562946,8.4 1.9047619,8.54583333 1.9047619,8.73695475 L1.9047619,8.99637858 C1.9047619,9.18247355 1.75595238,9.33333333 1.57166526,9.33333333 L1.28547759,9.33333333 C1.1015134,9.33333333 0.952380952,9.1875 0.952380952,8.99637858 L0.952380952,8.73695475 Z M0.952380952,10.6036214 C0.952380952,10.4175264 1.10119048,10.2666667 1.28547759,10.2666667 L1.57166526,10.2666667 C1.75562946,10.2666667 1.9047619,10.4125 1.9047619,10.6036214 L1.9047619,10.8630452 C1.9047619,11.0491402 1.75595238,11.2 1.57166526,11.2 L1.28547759,11.2 C1.1015134,11.2 0.952380952,11.0541667 0.952380952,10.8630452 L0.952380952,10.6036214 Z M0.952380952,12.4702881 C0.952380952,12.2841931 1.10119048,12.1333333 1.28547759,12.1333333 L1.57166526,12.1333333 C1.75562946,12.1333333 1.9047619,12.2791667 1.9047619,12.4702881 L1.9047619,12.7297119 C1.9047619,12.9158069 1.75595238,13.0666667 1.57166526,13.0666667 L1.28547759,13.0666667 C1.1015134,13.0666667 0.952380952,12.9208333 0.952380952,12.7297119 L0.952380952,12.4702881 Z M1.9047619,11.5369548 C1.9047619,11.3508598 2.05357143,11.2 2.23785855,11.2 L2.52404622,11.2 C2.70801041,11.2 2.85714286,11.3458333 2.85714286,11.5369548 L2.85714286,11.7963786 C2.85714286,11.9824736 2.70833333,12.1333333 2.52404622,12.1333333 L2.23785855,12.1333333 C2.05389435,12.1333333 1.9047619,11.9875 1.9047619,11.7963786 L1.9047619,11.5369548 Z M1.9047619,9.67028809 C1.9047619,9.48419311 2.05357143,9.33333333 2.23785855,9.33333333 L2.52404622,9.33333333 C2.70801041,9.33333333 2.85714286,9.47916667 2.85714286,9.67028809 L2.85714286,9.92971191 C2.85714286,10.1158069 2.70833333,10.2666667 2.52404622,10.2666667 L2.23785855,10.2666667 C2.05389435,10.2666667 1.9047619,10.1208333 1.9047619,9.92971191 L1.9047619,9.67028809 Z M1.9047619,7.80362142 C1.9047619,7.61752645 2.05357143,7.46666667 2.23785855,7.46666667 L2.52404622,7.46666667 C2.70801041,7.46666667 2.85714286,7.6125 2.85714286,7.80362142 L2.85714286,8.06304525 C2.85714286,8.24914022 2.70833333,8.4 2.52404622,8.4 L2.23785855,8.4 C2.05389435,8.4 1.9047619,8.25416667 1.9047619,8.06304525 L1.9047619,7.80362142 Z M1.9047619,5.93695475 C1.9047619,5.75085978 2.05357143,5.6 2.23785855,5.6 L2.52404622,5.6 C2.70801041,5.6 2.85714286,5.74583333 2.85714286,5.93695475 L2.85714286,6.19637858 C2.85714286,6.38247355 2.70833333,6.53333333 2.52404622,6.53333333 L2.23785855,6.53333333 C2.05389435,6.53333333 1.9047619,6.3875 1.9047619,6.19637858 L1.9047619,5.93695475 Z M1.9047619,4.07028809 C1.9047619,3.88419311 2.05357143,3.73333333 2.23785855,3.73333333 L2.52404622,3.73333333 C2.70801041,3.73333333 2.85714286,3.87916667 2.85714286,4.07028809 L2.85714286,4.32971191 C2.85714286,4.51580689 2.70833333,4.66666667 2.52404622,4.66666667 L2.23785855,4.66666667 C2.05389435,4.66666667 1.9047619,4.52083333 1.9047619,4.32971191 L1.9047619,4.07028809 Z M1.9047619,2.20362142 C1.9047619,2.01752645 2.05357143,1.86666667 2.23785855,1.86666667 L2.52404622,1.86666667 C2.70801041,1.86666667 2.85714286,2.0125 2.85714286,2.20362142 L2.85714286,2.46304525 C2.85714286,2.64914022 2.70833333,2.8 2.52404622,2.8 L2.23785855,2.8 C2.05389435,2.8 1.9047619,2.65416667 1.9047619,2.46304525 L1.9047619,2.20362142 Z" id="Rectangle-294" fill="#FFCD4B" mask="url(#mask-2)"></path>
            </g>
        </g>
    </g>
</svg>