<?xml version="1.0" encoding="UTF-8"?>
<svg width="20px" height="14px" viewBox="0 0 20 14" version="1.1" xmlns="http://www.w3.org/2000/svg" xmlns:xlink="http://www.w3.org/1999/xlink">
    <!-- Generator: Sketch 44.1 (41455) - http://www.bohemiancoding.com/sketch -->
    <title>SV</title>
    <desc>Created with Sketch.</desc>
    <defs>
        <rect id="path-1" x="0" y="0" width="20" height="14" rx="2"></rect>
        <linearGradient x1="50%" y1="0%" x2="50%" y2="100%" id="linearGradient-3">
            <stop stop-color="#3C7839" offset="0%"></stop>
            <stop stop-color="#31642E" offset="100%"></stop>
        </linearGradient>
    </defs>
    <g id="Page-1" stroke="none" stroke-width="1" fill="none" fill-rule="evenodd">
        <g id="Flags" transform="translate(-172.000000, -220.000000)">
            <g id="SV" transform="translate(172.000000, 220.000000)">
                <mask id="mask-2" fill="white">
                    <use xlink:href="#path-1"></use>
                </mask>
                <g id="Mask">
                    <use fill="#FFFFFF" fill-rule="evenodd" xlink:href="#path-1"></use>
                    <rect stroke="#F5F5F5" stroke-width="0.5" x="0.25" y="0.25" width="19.5" height="13.5" rx="2"></rect>
                </g>
                <rect id="Rectangle-2" fill="#1B57C4" mask="url(#mask-2)" x="0" y="0" width="20" height="4.66666667"></rect>
                <rect id="Rectangle-2" fill="#1B57C4" mask="url(#mask-2)" x="0" y="9.33333333" width="20" height="4.66666667"></rect>
                <path d="M8.85710567,5.50655733 C8.39448046,5.84711604 8.0952381,6.38931104 8.0952381,7 C8.0952381,8.03093153 8.94802905,8.86666667 10,8.86666667 C11.051971,8.86666667 11.9047619,8.03093153 11.9047619,7 C11.9047619,6.38931104 11.6055195,5.84711604 11.1428943,5.50655733 L10.4761905,7.46666667 L9.52380952,7.46666667 L8.85710567,5.50655733 Z" id="Oval-12" fill="url(#linearGradient-3)" mask="url(#mask-2)"></path>
                <polygon id="Rectangle-483" fill="#F9C92E" mask="url(#mask-2)" points="10 5.13333333 10.4761905 7.46666667 9.52380952 7.46666667"></polygon>
            </g>
        </g>
    </g>
</svg>