<?xml version="1.0" encoding="UTF-8"?>
<svg width="20px" height="14px" viewBox="0 0 20 14" version="1.1" xmlns="http://www.w3.org/2000/svg" xmlns:xlink="http://www.w3.org/1999/xlink">
    <!-- Generator: Sketch 44.1 (41455) - http://www.bohemiancoding.com/sketch -->
    <title>MK</title>
    <desc>Created with Sketch.</desc>
    <defs>
        <rect id="path-1" x="0" y="0" width="20" height="14" rx="2"></rect>
    </defs>
    <g id="Page-1" stroke="none" stroke-width="1" fill="none" fill-rule="evenodd">
        <g id="Flags" transform="translate(-412.000000, -604.000000)">
            <g id="MK" transform="translate(412.000000, 604.000000)">
                <mask id="mask-2" fill="white">
                    <use xlink:href="#path-1"></use>
                </mask>
                <use id="Mask" fill="#FFFFFF" xlink:href="#path-1"></use>
                <rect id="Mask-Copy" fill="#E81B26" mask="url(#mask-2)" x="0" y="0" width="20" height="14"></rect>
                <ellipse id="Oval-12" fill="#FFE94F" mask="url(#mask-2)" cx="10" cy="7" rx="2.38095238" ry="2.33333333"></ellipse>
                <path d="M12.1961501,9.4575021 L18.6179363,16.6435106 L20.491502,14.562705 L12.6853496,8.93571014 C12.541877,9.12654347 12.3777311,9.30153193 12.1961501,9.4575021 Z M10.6538461,10.2038461 L11.4285714,14 L8.57142857,14 L9.34615386,10.2038461 C9.55758225,10.2450553 9.77621582,10.2666667 10,10.2666667 C10.2237842,10.2666667 10.4424178,10.2450553 10.6538461,10.2038461 Z M7.31465041,5.06428986 L-0.491502034,-0.56270504 L1.38206366,-2.64351055 L7.8038499,4.5424979 C7.62226888,4.69846807 7.45812299,4.87345653 7.31465041,5.06428986 Z M9.34615386,3.79615391 L8.57142857,-2.88657986e-14 L11.4285714,-2.88657986e-14 L10.6538461,3.79615391 C10.4424178,3.75494468 10.2237842,3.73333333 10,3.73333333 C9.77621582,3.73333333 9.55758225,3.75494468 9.34615386,3.79615391 Z M6.69975068,6.5379651 L0,5.6 L0,8.4 L6.69975068,7.4620349 C6.67794516,7.31109578 6.66666667,7.15683867 6.66666667,7 C6.66666667,6.84316133 6.67794516,6.68890422 6.69975068,6.5379651 Z M7.8038499,9.4575021 L1.38206366,16.6435106 L-0.491502034,14.562705 L7.31465041,8.93571014 C7.45812299,9.12654347 7.62226888,9.30153193 7.8038499,9.4575021 Z M13.3002493,6.5379651 L20,5.6 L20,8.4 L13.3002493,7.4620349 C13.3220548,7.31109578 13.3333333,7.15683867 13.3333333,7 C13.3333333,6.84316133 13.3220548,6.68890422 13.3002493,6.5379651 Z M12.1961501,4.5424979 L18.6179363,-2.64351055 L20.491502,-0.56270504 L12.6853496,5.06428986 C12.541877,4.87345653 12.3777311,4.69846807 12.1961501,4.5424979 Z" id="Rectangle-346" fill="#FFE94F" mask="url(#mask-2)"></path>
            </g>
        </g>
    </g>
</svg>