<?xml version="1.0" encoding="utf-8"?>
<svg version="1.1" id="Layer_1" xmlns="http://www.w3.org/2000/svg" xmlns:xlink="http://www.w3.org/1999/xlink" x="0px" y="0px" viewBox="0 0 127 79.337" width="127" height="79.337" style="enable-background:new 0 0 127 79.337;" xml:space="preserve">
    <defs>
        <style>
            .st0{fill:#FFFFFF;}
            .st1{fill:url(#linear-gradient);}
            .st2{fill:#056E8C;}
            .st3{fill:#555;}
            .st4{fill:#FE2323;}
        </style>
        <linearGradient id="linear-gradient" x1="141.797" y1="-87.171" x2="196.112" y2="-41.651" gradientTransform="translate(-15.537 197.612) rotate(-40)" gradientUnits="userSpaceOnUse">
            <stop offset="0" stop-color="#C2D28F"/>
            <stop offset="1" stop-color="#1CA25A"/>
        </linearGradient>
    </defs>
    <path class="st0" d="M126.9,75.087a4.276,4.276,0,0,1-4.25,4.25H4.25A4.276,4.276,0,0,1,0,75.087V4.25A4.276,4.276,0,0,1,4.25,0h118.5A4.276,4.276,0,0,1,127,4.25V75.087Z"/>
    <path class="st1" d="M76.116,7.4,57.131,23.335h8.816L78.674,12.656a4.262,4.262,0,0,1,5.988.524l16.027,19.1a4.262,4.262,0,0,1-.524,5.988L66.305,66.681a4.262,4.262,0,0,1-5.988-.524l-8.231-9.808h-7.4l12.2,14.536a8.525,8.525,0,0,0,11.976,1.048L104.893,41.7a8.525,8.525,0,0,0,1.048-11.976L88.092,8.452A8.525,8.525,0,0,0,76.116,7.4Z"/>
    <g>
        <path class="st2" d="M75.457,43.693l-2.128,8.664H67.168l4.245-18.75a15.553,15.553,0,0,0,.367-2.475A2.22,2.22,0,0,0,70.2,28.588L70.318,28h11.71c5.018,0,8.974,1.778,8.813,6-.21,5.472-5.268,9.7-12.186,9.7Zm4.8-12H77.681l-1.409,7.6h2.294c3.526,0,5.9-1.813,6.006-4.531C84.653,32.631,82.836,31.69,80.258,31.69Z"/>
        <path class="st2" d="M66.289,32.387a16.154,16.154,0,0,0-6.208-1.15c-7.3,0-10.941,4.217-11.159,10.56-.139,4.043,1.376,7.249,6.325,7.249a15.177,15.177,0,0,0,8.94-2.788l-.973,4.7a18.361,18.361,0,0,1-8.749,1.952c-7.505,0-12.721-4.043-12.494-10.63.3-8.713,8.463-14.882,18.4-14.882a19.761,19.761,0,0,1,7.3,1.255Z"/>
        <path class="st2" d="M46.792,28,34.016,38.472l8.631,13.885H34.429L27.738,40.821,25.279,52.357h-6.2l4.068-18.75a15.423,15.423,0,0,0,.35-2.44,2.268,2.268,0,0,0-1.508-2.579L22.1,28h8.451l-2.24,10.282L40.25,28Z"/>
    </g>
    <g>
        <path class="st3" d="M20.3,23.118h0c-.468.218-.85.014-.85-.454V16.147A1.537,1.537,0,0,1,20.3,14.9h0c.467-.218.85-.014.85.454v6.517A1.539,1.539,0,0,1,20.3,23.118Z"/>
        <path class="st3" d="M31.167,23.118h0c-.467.218-.85.014-.85-.454V16.147a1.539,1.539,0,0,1,.85-1.246h0c.468-.218.85-.014.85.454v6.517A1.537,1.537,0,0,1,31.167,23.118Z"/>
        <path class="st3" d="M42.379,23.118h0c-.467.218-.85.014-.85-.454V16.147a1.539,1.539,0,0,1,.85-1.246h0c.468-.218.85-.014.85.454v6.517A1.537,1.537,0,0,1,42.379,23.118Z"/>
        <path class="st3" d="M53.243,23.118h0c-.467.218-.85.014-.85-.454V16.147a1.539,1.539,0,0,1,.85-1.246h0c.468-.218.85-.014.85.454v6.517A1.537,1.537,0,0,1,53.243,23.118Z"/>
        <path class="st4" d="M39.069,19.9H33.685c-.468,0-.672-.382-.454-.85h0a1.539,1.539,0,0,1,1.247-.85h5.383c.468,0,.672.383.454.85h0A1.537,1.537,0,0,1,39.069,19.9Z"/>
        <path class="st3" d="M49.471,20.845l-4.8-2.444c-.417-.212-.425-.646-.019-.964h0a1.541,1.541,0,0,1,1.5-.191l4.8,2.444c.416.212.425.646.018.963h0A1.537,1.537,0,0,1,49.471,20.845Z"/>
        <path class="st3" d="M27.394,20.845,22.6,18.4c-.416-.212-.424-.646-.018-.964h0a1.541,1.541,0,0,1,1.5-.191l4.8,2.444c.417.212.425.646.019.963h0A1.539,1.539,0,0,1,27.394,20.845Z"/>
    </g>
</svg>
