<?xml version="1.0" encoding="utf-8"?>
<svg version="1.1" id="Layer_1" xmlns="http://www.w3.org/2000/svg" xmlns:xlink="http://www.w3.org/1999/xlink" x="0px" y="0px" viewBox="0 0 125.5 78.4" style="enable-background:new 0 0 125.5 78.4;" xml:space="preserve">
    <defs>
        <style>
            .st0{fill:#fff;}
            .st1{fill:#005498;}
            .st2{fill:#ffd800;}
        </style>
    </defs>
    <g>  
        <path class="st0" d="M125.4,74.2a4.2,4.2,0,0,1-4.2,4.2H4.2A4.2,4.2,0,0,1,0,74.2V4.2A4.2,4.2,0,0,1,4.2,0H121.3a4.2,4.2,0,0,1,4.2,4.2v70Z"/>
        <g>
            <path class="st1" d="M100,61.6V60.5c0-.1-.1-.2-.3-.2H98.6c-.1-.1-.1-.3-.1-.6V55.4h1.4c.1-.1.1-.1.1-.2V53.9c0-.1,0-.1-.1-.2H98.5V52.1c0-.1,0-.1-.1-.2h-.2l-1.7.3h-.2c-.1.1-.1.1-.1.2v1.2H94.8c-.1.1-.1.1-.1.2v1c0,.1,0,.1.1.2H95l1.2.2v4.2c0,.5.1.9.1,1.2a2.1,2.1,0,0,0,.4.7l.7.4h2.2c.3-.1.4-.2.4-.3m-6.2-.2V60.1c0-.1,0-.1-.1-.2H91.3c-.1-.1-.3-.1-.4-.3s-.2-.3-.2-.5a1.9,1.9,0,0,1-.1-.8V57a1.9,1.9,0,0,1,.1-.8c.1-.2.1-.4.2-.5l.4-.3h2.4c.1,0,.1-.1.1-.2V54c0-.1,0-.2-.1-.2H91.6a3.2,3.2,0,0,0-2.4.9,3.7,3.7,0,0,0-.9,2.7v1.2a3.7,3.7,0,0,0,.9,2.7,3.2,3.2,0,0,0,2.4.9h2.1c.1,0,.1-.1.1-.2m-9.3-1.5-.6.2H82.6c-.2-.1-.2-.3-.2-.6h0c0-.2,0-.3.1-.4s.1-.2.2-.3l.4-.2h1.4v1.5Zm2.3-3.5a4.4,4.4,0,0,0-.2-1.3,2,2,0,0,0-.7-.9,3.1,3.1,0,0,0-1-.5l-1.4-.2H82.1l-1.1.2c-.2.1-.3.1-.3.3v1.2c0,.1,0,.1.1.2h2.6l.8.2c.2.1.3.4.3.8V57h-.8a4.9,4.9,0,0,0-2.7.6,1.9,1.9,0,0,0-.8,1.8h0a3.7,3.7,0,0,0,.2,1.2,1.6,1.6,0,0,0,.6.8,2,2,0,0,0,.8.4h.9l1.1-.2.9-.5v.2c0,.1,0,.1.1.2h2c.1-.1.1-.1.1-.2V56.4Zm-7.7,5.2V60.5c0-.1-.1-.2-.3-.2H77.7c-.1-.1-.1-.3-.1-.6V55.4H79c.1-.1.1-.1.1-.2V53.9c0-.1,0-.1-.1-.2H77.6V52.1c0-.1,0-.1-.1-.2h-.2l-1.7.3h-.2c-.1.1-.1.1-.1.2v1.2H73.9c-.1.1-.1.1-.1.2v1c0,.1,0,.1.1.2h.2l1.2.2v4.2c0,.5.1.9.1,1.2a2.1,2.1,0,0,0,.4.7l.7.4h2.2c.3-.1.4-.2.4-.3m-6.2-.1V56.7a5.7,5.7,0,0,0-.1-1.3,3,3,0,0,0-.4-1,1.9,1.9,0,0,0-.8-.7,2.3,2.3,0,0,0-1.3-.3l-1.2.2a3,3,0,0,0-1.1.6v-.6h-2v7.8c0,.1,0,.1.1.2H68c.1-.1.1-.1.1-.2V55.8l.7-.3H70l.3.2c.1.1.1.2.1.4v5.4c0,.1,0,.1.1.2h2.1c.2,0,.3-.1.3-.2M62,58.2c0,1.2-.4,1.8-1.3,1.8a1.3,1.3,0,0,1-1-.4,2.3,2.3,0,0,1-.3-1.3v-1a2.3,2.3,0,0,1,.3-1.3,1.1,1.1,0,0,1,1-.4c.8,0,1.3.6,1.3,1.8Zm2.4-1a6.1,6.1,0,0,0-.2-1.5,3.7,3.7,0,0,0-.7-1.2,2.6,2.6,0,0,0-1.1-.7,3.9,3.9,0,0,0-3,0,4.1,4.1,0,0,0-1.1.7,3.5,3.5,0,0,0-.7,1.2,6.8,6.8,0,0,0-.2,1.5v1a6.1,6.1,0,0,0,.2,1.5,3.7,3.7,0,0,0,.7,1.2,2.6,2.6,0,0,0,1.1.7,6.6,6.6,0,0,0,1.5.3,3.7,3.7,0,0,0,1.5-.3,4.1,4.1,0,0,0,1.1-.7,3.5,3.5,0,0,0,.7-1.2,6.8,6.8,0,0,0,.2-1.5Zm-8,4.2V60.1c0-.1,0-.1-.1-.2H53.9c-.1-.1-.3-.1-.4-.3s-.2-.3-.2-.5a1.9,1.9,0,0,1-.1-.8V57a1.9,1.9,0,0,1,.1-.8c.1-.2.1-.4.2-.5l.4-.3h2.4c.1,0,.1-.1.1-.2V54c0-.1,0-.2-.1-.2H54.2a3.2,3.2,0,0,0-2.4.9,3.7,3.7,0,0,0-.9,2.7v1.2a3.7,3.7,0,0,0,.9,2.7,3.2,3.2,0,0,0,2.4.9h2.1c.1,0,.1-.1.1-.2m-7,.1V56.7a5.7,5.7,0,0,0-.1-1.3,3,3,0,0,0-.4-1,1.9,1.9,0,0,0-.8-.7,2.3,2.3,0,0,0-1.3-.3l-1.2.2a3,3,0,0,0-1.1.6v-.6h-2v7.8c0,.1,0,.1.1.2h2.1c.1-.1.1-.1.1-.2V55.8l.7-.3h1.2l.3.2c.1.1.1.2.1.4v5.4c0,.1,0,.1.1.2h2.2a.2.2,0,0,0,.2-.2M38.3,59.9l-.6.2H36.4c-.2-.1-.2-.3-.2-.6h0c0-.2,0-.3.1-.4s.1-.2.2-.3l.4-.2h1.4Zm2.3-3.5a4.4,4.4,0,0,0-.2-1.3,1.6,1.6,0,0,0-.7-.9,3.1,3.1,0,0,0-1-.5l-1.4-.2H35.9l-1.1.2c-.2.1-.3.1-.3.3v1.2c0,.1,0,.1.1.2h2.7l.8.2c.2.1.3.4.3.8V57h-.8a4.9,4.9,0,0,0-2.7.6,1.9,1.9,0,0,0-.8,1.8h0a3.7,3.7,0,0,0,.2,1.2,1.6,1.6,0,0,0,.6.8,2,2,0,0,0,.8.4h.9l1.1-.2.9-.5v.2c0,.1,0,.1.1.2h2c.1-.1.1-.1.1-.2l-.2-5.1ZM30.4,58.7a1,1,0,0,1-.4.9,2.8,2.8,0,0,1-1.5.3H27.3V57.2h1.6c.6,0,1,.1,1.2.4a1.6,1.6,0,0,1,.3.9Zm-.1-4.3a.6.6,0,0,1-.1.4c-.1.1-.1.3-.2.4l-.4.2H27.3V53h1a2.8,2.8,0,0,1,1.5.3,1,1,0,0,1,.4.9v.2Zm2.4,4.1a2,2,0,0,0-.4-1.3,1.4,1.4,0,0,0-.9-.8,2.4,2.4,0,0,0,.9-.8,2.7,2.7,0,0,0,.3-1.2v-.3a2.9,2.9,0,0,0-.3-1.4,2,2,0,0,0-.9-.9L30,51.3H25.6c-.3.1-.5.1-.6.3a1.2,1.2,0,0,0-.2.7v8.7a1.4,1.4,0,0,0,.2.7l.6.3H30l1.4-.5a3.2,3.2,0,0,0,1-1,3.8,3.8,0,0,0,.4-1.6v-.6Z"/>
            <path class="st1" d="M91.8,23.5H68.6l-2.4,2.7-7.7,8.7h0l-2.4,2.7h-23l2.3-2.7,1.1-1.3,2.3-2.7H28.3a3.6,3.6,0,0,0-3.5,3.6h0V42a3.6,3.6,0,0,0,3.5,3.6H68.8a9,9,0,0,0,5.9-2.7l6.1-7Z"/>
            <path class="st2" d="M96.5,15.4A3.6,3.6,0,0,1,100,19v7.6a3.6,3.6,0,0,1-3.5,3.6H86l2.3-2.7h0l1.2-1.3,2.3-2.7H68.5l-12.4,14H33L49.6,18.8l.6-.7a9,9,0,0,1,5.9-2.7H96.5Z"/>
        </g>
    </g>
</svg>
