<?xml version="1.0" encoding="UTF-8"?>
<svg width="89px" height="25px" viewBox="0 0 89 25" version="1.1" xmlns="http://www.w3.org/2000/svg" xmlns:xlink="http://www.w3.org/1999/xlink">
    <!-- Generator: Sketch 44.1 (41455) - http://www.bohemiancoding.com/sketch -->
    <title>paypal</title>
    <desc>Created with Sketch.</desc>
    <defs></defs>
    <g id="Page-1" stroke="none" stroke-width="1" fill="none" fill-rule="evenodd">
        <g id="paypal" fill-rule="nonzero">
            <path d="M11.211,0.749 L4.372,0.749 C3.904,0.749 3.506,1.089 3.433,1.551 L0.667,19.088 C0.612,19.434 0.88,19.746 1.231,19.746 L4.496,19.746 C4.964,19.746 5.362,19.406 5.435,18.943 L6.181,14.213 C6.253,13.75 6.652,13.41 7.119,13.41 L9.284,13.41 C13.789,13.41 16.389,11.23 17.068,6.91 C17.374,5.02 17.081,3.535 16.196,2.495 C15.224,1.353 13.5,0.749 11.211,0.749 Z M12,7.154 C11.626,9.608 9.751,9.608 7.938,9.608 L6.906,9.608 L7.63,5.025 C7.673,4.748 7.913,4.544 8.193,4.544 L8.666,4.544 C9.901,4.544 11.066,4.544 11.668,5.248 C12.027,5.668 12.137,6.292 12,7.154 Z" id="Shape" fill="#253B80"></path>
            <path d="M31.654,7.075 L28.379,7.075 C28.1,7.075 27.859,7.279 27.816,7.556 L27.671,8.472 L27.442,8.14 C26.733,7.111 25.152,6.767 23.574,6.767 C19.955,6.767 16.864,9.508 16.262,13.353 C15.949,15.271 16.394,17.105 17.482,18.384 C18.48,19.56 19.908,20.05 21.607,20.05 C24.523,20.05 26.14,18.175 26.14,18.175 L25.994,19.085 C25.939,19.433 26.207,19.745 26.556,19.745 L29.506,19.745 C29.975,19.745 30.371,19.405 30.445,18.942 L32.215,7.733 C32.271,7.388 32.004,7.075 31.654,7.075 Z M27.089,13.449 C26.773,15.32 25.288,16.576 23.394,16.576 C22.443,16.576 21.683,16.271 21.195,15.693 C20.711,15.119 20.527,14.302 20.681,13.392 C20.976,11.537 22.486,10.24 24.351,10.24 C25.281,10.24 26.037,10.549 26.535,11.132 C27.034,11.721 27.232,12.543 27.089,13.449 Z" id="Shape" fill="#253B80"></path>
            <path d="M49.096,7.075 L45.805,7.075 C45.491,7.075 45.196,7.231 45.018,7.492 L40.479,14.178 L38.555,7.753 C38.434,7.351 38.063,7.075 37.643,7.075 L34.409,7.075 C34.016,7.075 33.743,7.459 33.868,7.829 L37.493,18.467 L34.085,23.278 C33.817,23.657 34.087,24.178 34.55,24.178 L37.837,24.178 C38.149,24.178 38.441,24.026 38.618,23.77 L49.564,7.97 C49.826,7.592 49.557,7.075 49.096,7.075 Z" id="Shape" fill="#253B80"></path>
            <path d="M59.992,0.749 L53.152,0.749 C52.685,0.749 52.287,1.089 52.214,1.551 L49.448,19.088 C49.393,19.434 49.661,19.746 50.01,19.746 L53.52,19.746 C53.846,19.746 54.125,19.508 54.176,19.184 L54.961,14.213 C55.033,13.75 55.432,13.41 55.899,13.41 L58.063,13.41 C62.569,13.41 65.168,11.23 65.848,6.91 C66.155,5.02 65.86,3.535 64.975,2.495 C64.004,1.353 62.281,0.749 59.992,0.749 Z M60.781,7.154 C60.408,9.608 58.533,9.608 56.719,9.608 L55.688,9.608 L56.413,5.025 C56.456,4.748 56.694,4.544 56.975,4.544 L57.448,4.544 C58.682,4.544 59.848,4.544 60.45,5.248 C60.809,5.668 60.918,6.292 60.781,7.154 Z" id="Shape" fill="#179BD7"></path>
            <path d="M80.434,7.075 L77.161,7.075 C76.88,7.075 76.641,7.279 76.599,7.556 L76.454,8.472 L76.224,8.14 C75.515,7.111 73.935,6.767 72.357,6.767 C68.738,6.767 65.648,9.508 65.046,13.353 C64.734,15.271 65.177,17.105 66.265,18.384 C67.265,19.56 68.691,20.05 70.39,20.05 C73.306,20.05 74.923,18.175 74.923,18.175 L74.777,19.085 C74.722,19.433 74.99,19.745 75.341,19.745 L78.29,19.745 C78.757,19.745 79.155,19.405 79.228,18.942 L80.999,7.733 C81.053,7.388 80.785,7.075 80.434,7.075 Z M75.869,13.449 C75.555,15.32 74.068,16.576 72.174,16.576 C71.225,16.576 70.463,16.271 69.975,15.693 C69.491,15.119 69.309,14.302 69.461,13.392 C69.758,11.537 71.266,10.24 73.131,10.24 C74.061,10.24 74.817,10.549 75.315,11.132 C75.816,11.721 76.014,12.543 75.869,13.449 Z" id="Shape" fill="#179BD7"></path>
            <path d="M84.295,1.23 L81.488,19.088 C81.433,19.434 81.701,19.746 82.05,19.746 L84.872,19.746 C85.341,19.746 85.739,19.406 85.811,18.943 L88.579,1.407 C88.634,1.061 88.366,0.748 88.017,0.748 L84.857,0.748 C84.578,0.749 84.338,0.953 84.295,1.23 Z" id="Shape" fill="#179BD7"></path>
        </g>
    </g>
</svg>