<?xml version="1.0" encoding="UTF-8"?>
<svg width="100px" height="60px" viewBox="0 0 100 60" version="1.1" xmlns="http://www.w3.org/2000/svg" xmlns:xlink="http://www.w3.org/1999/xlink">
    <!-- Generator: Sketch 44.1 (41455) - http://www.bohemiancoding.com/sketch -->
    <title>specialized-feature-icon</title>
    <desc>Created with Sketch.</desc>
    <defs>
        <polygon id="path-1" points="0 10.4501362 0 0.131008174 79.7920436 0.131008174 79.7920436 10.4501362"></polygon>
        <polygon id="path-3" points="0 10.4501362 0 0.131008174 79.7920436 0.131008174 79.7920436 10.4501362"></polygon>
        <polygon id="path-5" points="0 10.4501362 0 0.131008174 79.7920436 0.131008174 79.7920436 10.4501362"></polygon>
    </defs>
    <g id="Page-1" stroke="none" stroke-width="1" fill="none" fill-rule="evenodd">
        <g id="specialized-feature-icon">
            <g id="turbo" transform="translate(10.000000, 25.000000)">
                <g id="Group-5">
                    <g id="Fill-1-Clipped">
                        <mask id="mask-2" fill="white">
                            <use xlink:href="#path-1"></use>
                        </mask>
                        <g id="path-1"></g>
                        <path d="M33.2065395,2.39782016 L30.6594005,2.39782016 L30.6208174,2.46561308 C30.3385286,2.99531335 30.2029428,3.24076294 30.0710627,3.48098093 C29.9080109,3.77787466 29.7504087,4.06735695 29.3270845,4.86277929 L28.0625613,7.14790191 L29.0831608,8.22910082 L17.0594005,8.23455041 C16.7607629,8.23455041 16.5977112,8.18332425 16.5445232,8.07891008 C16.4950409,7.97449591 16.5445232,7.78746594 16.7077929,7.48512262 L19.493188,2.39782016 L5.7706812,2.39782016 L6.98746594,0.131008174 L4.44207084,0.131008174 L0.652207084,7.08381471 C0.0255040872,8.25111717 -0.150408719,9.12348774 0.127956403,9.68610354 C0.390190736,10.2083924 1.02234332,10.4632153 2.06517711,10.4632153 L11.4609264,10.4632153 L12.6742234,8.23455041 L3.51302452,8.23455041 C3.06027248,8.23455041 2.8440327,8.18877384 2.79258856,8.08632153 C2.74332425,7.98735695 2.82942779,7.79117166 2.9813624,7.51084469 L4.55934605,4.62430518 L14.3160763,4.62430518 L16.5408174,3.15095368 C16.4858856,3.25362398 16.4346594,3.34517711 16.3834332,3.44065395 C16.2147139,3.746703 16.0259401,4.0893733 15.613515,4.86277929 L14.6753134,6.54866485 C13.9422343,7.90844687 13.7368937,8.92926431 14.0632153,9.5853951 C14.3509537,10.1663215 15.0585286,10.4632153 16.1634877,10.4632153 L28.8176567,10.4632153 L28.8523161,10.3917166 C29.0410899,10.039891 29.1640327,9.81253406 29.3214169,9.53046322 C29.5047411,9.19302452 29.7301362,8.78081744 30.1480109,7.99825613 L33.2065395,2.39782016" id="Fill-1" fill="#1A1918" fill-rule="nonzero" mask="url(#mask-2)"></path>
                    </g>
                    <g id="Fill-3-Clipped">
                        <mask id="mask-4" fill="white">
                            <use xlink:href="#path-3"></use>
                        </mask>
                        <g id="path-1"></g>
                        <path d="M59.4055586,5.30615804 L58.1704632,7.50343324 C57.8827248,8.03858311 57.600436,8.23455041 57.1313351,8.23455041 L47.3251226,8.23455041 C47.1014714,8.23455041 46.973297,8.18877384 46.9275204,8.10092643 C46.8778202,7.99825613 46.9218529,7.8186376 47.0648501,7.5546594 L48.7215259,4.62626703 L59.14703,4.62430518 C59.3689373,4.62430518 59.4990736,4.66659401 59.5431063,4.75814714 C59.5923706,4.86277929 59.546594,5.04043597 59.4055586,5.30615804 Z M62.3213079,3.15095368 C62.0627793,2.63607629 61.3591281,2.39782016 60.1092098,2.39782016 L49.8907902,2.39782016 L51.1075749,0.131008174 L48.5656676,0.131008174 L48.5253406,0.201416894 C48.1900817,0.825504087 47.7756948,1.58866485 47.3379837,2.39782016 L37.667139,2.39782016 C35.2976567,2.39782016 33.4009809,3.69722071 32.0172207,6.26092643 L31.0790191,7.94702997 C30.386267,9.24991826 30.3513896,9.31029973 29.9354768,10.0673569 L29.7190191,10.4632153 L32.3982561,10.4632153 L32.4350954,10.3934605 C32.6844687,9.93177112 32.8161308,9.68959128 32.9445232,9.45525886 C33.120436,9.13634877 33.2908992,8.82659401 33.732752,7.99651226 L35.1162943,5.48752044 C35.3048501,5.1413624 36.1772207,4.62430518 36.7032153,4.62430518 L44.9353678,4.62430518 L46.8119891,3.36370572 C45.4685559,5.84675749 44.0850136,8.39237057 44.0850136,8.39237057 C43.8284469,8.86517711 43.6525341,9.18779292 43.5075749,9.44784741 C43.3262125,9.77787466 43.1943324,10.0124251 43.0184196,10.3457221 L42.9580381,10.4632153 L55.7676294,10.4632153 C58.1192371,10.4632153 59.6549319,9.47356948 60.9100817,7.1533515 L61.7035422,5.75346049 C62.3888828,4.47237057 62.5813624,3.66975477 62.3213079,3.15095368 L62.3213079,3.15095368 Z" id="Fill-3" fill="#1A1918" fill-rule="nonzero" mask="url(#mask-4)"></path>
                    </g>
                    <g id="Fill-4-Clipped">
                        <mask id="mask-6" fill="white">
                            <use xlink:href="#path-5"></use>
                        </mask>
                        <g id="path-1"></g>
                        <path d="M79.6869755,3.09253406 C79.4506812,2.6160218 78.8165668,2.39411444 77.6856676,2.39411444 L74.9826703,2.39411444 L73.7510627,4.62081744 L76.3882289,4.62081744 C76.6467575,4.62081744 76.7914986,4.66288828 76.8392371,4.75640327 C76.8887193,4.85536785 76.8392371,5.04610354 76.6779292,5.34648501 L75.5141144,7.45591281 C75.2043597,8.04054496 74.9259946,8.2293188 74.3725341,8.2293188 L64.4819619,8.22910082 C64.2454496,8.22910082 64.1116076,8.18877384 64.0658311,8.10092643 C64.0183106,8 64.0712807,7.81144414 64.2325886,7.50343324 L65.3964033,5.39422343 C65.7059401,4.81504087 65.9827793,4.62081744 66.4959128,4.62081744 L68.4494823,4.62081744 L69.6791281,2.39411444 L67.5679564,2.39411444 C65.3083379,2.39411444 64.0017439,3.26474114 62.7409264,5.61024523 L61.853733,7.18997275 C61.1666485,8.46190736 60.9741689,9.25362398 61.2235422,9.76108992 C61.4617984,10.2358583 62.0994005,10.4577657 63.2283379,10.4577657 L73.3408174,10.4577657 C75.6021798,10.4577657 76.9107357,9.58735695 78.173297,7.23945504 L79.0602725,5.66168937 C79.7438692,4.3880109 79.9378747,3.59629428 79.6869755,3.09253406" id="Fill-4" fill="#1A1918" fill-rule="nonzero" mask="url(#mask-6)"></path>
                    </g>
                </g>
                <polyline id="Fill-6" fill="#1A1918" fill-rule="nonzero" points="71.4713896 6.26092643 74.8582016 0.131008174 72.2851226 0.131008174 68.8985286 6.26092643 71.4713896 6.26092643"></polyline>
            </g>
        </g>
    </g>
</svg>