<?xml version="1.0" encoding="UTF-8"?>
<svg width="100px" height="60px" viewBox="0 0 100 60" version="1.1" xmlns="http://www.w3.org/2000/svg" xmlns:xlink="http://www.w3.org/1999/xlink">
    <!-- Generator: Sketch 44.1 (41455) - http://www.bohemiancoding.com/sketch -->
    <title>specialized-feature-icon</title>
    <desc>Created with Sketch.</desc>
    <defs></defs>
    <g id="Page-1" stroke="none" stroke-width="1" fill="none" fill-rule="evenodd">
        <g id="specialized-feature-icon" fill-rule="nonzero" fill="#141314">
            <g id="dealerLocator-tbt" transform="translate(0.000000, 25.000000)">
                <polygon id="Fill-1" points="0.713111888 0.349615385 0.349475524 1.70486014 3.89912587 1.70486014 1.87255245 9.29192308 3.45157343 9.29192308 5.4777972 1.70486014 9.05437063 1.70486014 9.41800699 0.349615385"></polygon>
                <g id="Group-27" transform="translate(4.545455, 0.201119)">
                    <path d="M8.62979021,4.3398951 C8.72734266,3.96297203 8.65741259,3.80912587 8.29412587,3.80912587 L3.30601399,3.80912587 C2.94272727,3.80912587 2.78923077,3.96297203 2.69132867,4.3398951 L2.45356643,5.2343007 L8.39202797,5.2343007 L8.62979021,4.3398951 Z M2.10426573,6.51996503 L1.95076923,7.13465035 C1.81125874,7.61017483 1.99272727,7.80493007 2.5234965,7.80493007 L7.83293706,7.80493007 L7.48398601,9.09094406 L1.83923077,9.09094406 C0.357762238,9.09094406 0.106713287,8.4898951 0.46965035,7.10667832 L1.16825175,4.50772727 C1.53153846,3.13884615 2.03468531,2.52381119 3.59972028,2.52381119 L8.6158042,2.52381119 C10.1804895,2.52381119 10.3762937,3.06856643 9.98503497,4.50772727 L9.43993007,6.51996503 L2.10426573,6.51996503 Z" id="Fill-2"></path>
                    <path d="M15.6417483,9.07727273 L9.82916084,9.09090909 L10.1784615,7.79125874 L15.9354545,7.79125874 C16.3263636,7.79125874 16.7176224,7.48356643 16.8155245,7.09300699 C16.9130769,6.71573427 16.69,6.44965035 16.3123776,6.44965035 L12.0648252,6.43601399 C11.0029371,6.43601399 10.3462937,5.55559441 10.6396503,4.49440559 C10.9193706,3.41783217 11.9809091,2.53776224 13.0567832,2.53776224 L18.7854545,2.53776224 L18.4501399,3.82307692 L12.7777622,3.82307692 C12.4420979,3.82307692 12.0788112,4.1451049 11.9809091,4.49440559 C11.8833566,4.82937063 12.0927972,5.10874126 12.4420979,5.10874126 L16.7316084,5.10874126 C17.8354545,5.10874126 18.4501399,5.93356643 18.1427972,7.09300699 C17.8490909,8.1965035 16.7455944,9.07727273 15.6417483,9.07727273" id="Fill-5"></path>
                    <path d="M20.2643706,9.09090909 C19.2164685,9.09090909 18.4203147,8.67132867 18.8531818,7.03706294 L20.4461888,1.0986014 L21.926958,1.0986014 L21.550035,2.52377622 L24.0370979,2.52377622 L23.6877972,3.80944056 L21.2003846,3.80944056 L20.2783566,7.27447552 C20.1668182,7.69405594 20.2087762,7.8048951 20.7954895,7.8048951 L22.3745105,7.8048951 L22.8073776,7.8048951 L22.4584266,9.09090909 L20.2643706,9.09090909 Z" id="Fill-7"></path>
                    <path d="M31.6076923,9.09090909 C30.5597902,9.09090909 29.7636364,8.67132867 30.1968531,7.03706294 L31.7895105,1.0986014 L33.2706294,1.0986014 L32.8933566,2.52377622 L35.3804196,2.52377622 L35.0311189,3.80944056 L32.5437063,3.80944056 L31.6216783,7.27447552 C31.5101399,7.69405594 31.5520979,7.8048951 32.1388112,7.8048951 L33.7174825,7.8048951 L34.1506993,7.8048951 L33.8013986,9.09090909 L31.6076923,9.09090909 Z" id="Fill-9"></path>
                    <path d="M42.1555944,9.09090909 C42.3090909,8.51783217 42.3230769,8.48986014 42.5608392,7.58216783 L43.4412587,4.28426573 C43.5388112,3.9493007 43.5108392,3.80944056 43.1618881,3.80944056 L38.2013986,3.80944056 C37.7961538,3.80944056 37.6286713,3.9493007 37.5167832,4.3541958 L36.6503497,7.58216783 C36.4129371,8.48986014 36.384965,8.56013986 36.2454545,9.09090909 L34.7643357,9.09090909 C34.9458042,8.39230769 34.9318182,8.48986014 35.1695804,7.58216783 L36.1195804,4.03286713 C36.356993,3.12482517 37.1531469,0.148601399 37.1531469,0.148601399 L38.6486014,0.148601399 L38.0055944,2.52377622 L43.734965,2.52377622 C44.8524476,2.56573427 45.2713287,3.01258741 44.922028,4.28426573 L44.1538462,7.16258741 C43.9160839,8.07097902 43.8181818,8.43391608 43.6367133,9.09090909 L42.1555944,9.09090909 Z" id="Fill-11"></path>
                    <path d="M53.1364336,4.3398951 C53.2329371,3.96297203 53.1637063,3.80912587 52.8007692,3.80912587 L47.8116084,3.80912587 C47.449021,3.80912587 47.2955245,3.96297203 47.197972,4.3398951 L46.9598601,5.2343007 L52.8983217,5.2343007 L53.1364336,4.3398951 Z M46.6109091,6.51996503 L46.4570629,7.13465035 C46.3175524,7.61017483 46.499021,7.80493007 47.0301399,7.80493007 L52.3399301,7.80493007 L51.9906294,9.09094406 L46.3451748,9.09094406 C44.8644056,9.09094406 44.6126573,8.4898951 44.9759441,7.10667832 L45.6745455,4.50772727 C46.0374825,3.13884615 46.5406294,2.52381119 48.1056643,2.52381119 L53.1220979,2.52381119 C54.6867832,2.52381119 54.8825874,3.06856643 54.490979,4.50772727 L53.9465734,6.51996503 L46.6109091,6.51996503 Z" id="Fill-13"></path>
                    <path d="M69.7735315,1.4343007 L63.7934615,1.4343007 L63.1784266,3.7391958 L69.1445105,3.7391958 C69.4794755,3.7391958 69.7319231,3.55772727 69.8438112,3.18045455 C69.8438112,3.18045455 69.9693357,2.70562937 70.1640909,1.96506993 C70.2623427,1.5877972 70.1371678,1.4343007 69.7735315,1.4343007 M69.2563986,5.86332168 C69.3682867,5.44444056 69.2420629,5.16437063 68.7116434,5.16437063 L62.7868182,5.16437063 L62.0885664,7.80493007 L67.9850699,7.80493007 C68.5161888,7.80493007 68.7952098,7.61017483 68.9214336,7.13465035 C69.0885664,6.47765734 69.2563986,5.86332168 69.2563986,5.86332168 M67.9850699,9.09094406 L60.2438112,9.09094406 L62.6476573,0.148636364 L70.1504545,0.148636364 C71.5896154,0.148636364 71.9525524,0.833251748 71.6032517,2.14653846 L71.3941608,2.95667832 C71.2543007,3.47381119 70.8067483,4.06087413 70.4861189,4.20038462 C70.7794755,4.41017483 71.0448601,4.75947552 70.8490559,5.50003497 L70.4161888,7.10667832 C70.0948601,8.30877622 69.3403147,9.09094406 67.9850699,9.09094406" id="Fill-16"></path>
                    <path d="M79.5104545,4.3398951 C79.6073077,3.96297203 79.5377273,3.80912587 79.1747902,3.80912587 L74.1856294,3.80912587 C73.823042,3.80912587 73.6695455,3.96297203 73.5723427,4.3398951 L73.3338811,5.2343007 L79.2723427,5.2343007 L79.5104545,4.3398951 Z M72.9849301,6.51996503 L72.8310839,7.13465035 C72.6915734,7.61017483 72.873042,7.80493007 73.4041608,7.80493007 L78.713951,7.80493007 L78.3646503,9.09094406 L72.7195455,9.09094406 C71.2380769,9.09094406 70.987028,8.4898951 71.3496154,7.10667832 L72.0482168,4.50772727 C72.4118531,3.13884615 72.9146503,2.52381119 74.4796853,2.52381119 L79.4961189,2.52381119 C81.0608042,2.52381119 81.2566084,3.06856643 80.865,4.50772727 L80.3205944,6.51996503 L72.9849301,6.51996503 Z" id="Fill-19"></path>
                    <path d="M86.5215734,9.07727273 L80.7096853,9.09090909 L81.0586364,7.79125874 L86.8156294,7.79125874 C87.2065385,7.79125874 87.5974476,7.48356643 87.6953497,7.09300699 C87.7932517,6.71573427 87.5701748,6.44965035 87.1922028,6.44965035 L82.945,6.43601399 C81.8827622,6.43601399 81.2264685,5.55559441 81.5198252,4.49440559 C81.7995455,3.41783217 82.8607343,2.53776224 83.936958,2.53776224 L89.6656294,2.53776224 L89.329965,3.82307692 L83.6575874,3.82307692 C83.3222727,3.82307692 82.9593357,4.1451049 82.8607343,4.49440559 C82.7635315,4.82937063 82.972972,5.10874126 83.3222727,5.10874126 L87.6117832,5.10874126 C88.7152797,5.10874126 89.329965,5.93356643 89.022972,7.09300699 C88.7296154,8.1965035 87.6261189,9.07727273 86.5215734,9.07727273" id="Fill-22"></path>
                    <path d="M91.1441958,9.09090909 C90.0966434,9.09090909 89.3008392,8.67132867 89.7337063,7.03706294 L91.3263636,1.0986014 L92.8074825,1.0986014 L92.4309091,2.52377622 L94.9176224,2.52377622 L94.5683217,3.80944056 L92.0809091,3.80944056 L91.1585315,7.27447552 C91.0476923,7.69405594 91.0893007,7.8048951 91.676014,7.8048951 L93.2546853,7.8048951 L93.6879021,7.8048951 L93.3386014,9.09090909 L91.1441958,9.09090909 Z" id="Fill-24"></path>
                </g>
            </g>
        </g>
    </g>
</svg>