<?xml version="1.0" encoding="UTF-8"?>
<svg width="100px" height="60px" viewBox="0 0 100 60" version="1.1" xmlns="http://www.w3.org/2000/svg" xmlns:xlink="http://www.w3.org/1999/xlink">
    <!-- Generator: Sketch 44.1 (41455) - http://www.bohemiancoding.com/sketch -->
    <title>specialized-feature-icon</title>
    <desc>Created with Sketch.</desc>
    <defs>
        <polygon id="path-1" points="6.35366667 0.332033333 6.35366667 9.5707 0.270566667 9.5707 0.270566667 0.332033333"></polygon>
    </defs>
    <g id="Page-1" stroke="none" stroke-width="1" fill="none" fill-rule="evenodd">
        <g id="specialized-feature-icon">
            <g id="elite_shop" transform="translate(20.000000, 25.000000)">
                <polygon id="Fill-1" fill="#221F20" fill-rule="nonzero" points="0 0.4173 0 9.65596667 5.615 9.65596667 5.18333333 8.19196667 1.82366667 8.19196667 1.82366667 5.44463333 4.73933333 5.44463333 4.73933333 3.99263333 1.82366667 3.99263333 1.82366667 1.88096667 5.06333333 1.88096667 5.45933333 0.4173"></polygon>
                <polygon id="Fill-2" fill="#221F20" fill-rule="nonzero" points="6.348 0.4173 6.348 9.65596667 11.6993333 9.65596667 11.2793333 8.1683 8.20766667 8.1683 8.20766667 0.4173"></polygon>
                <polygon id="Fill-3" fill="#221F20" fill-rule="nonzero" points="12.4196667 9.6561 14.2793333 9.6561 14.2793333 0.417433333 12.4196667 0.417433333"></polygon>
                <polygon id="Fill-4" fill="#221F20" fill-rule="nonzero" points="15.0684 0.4173 15.0684 1.88096667 17.1560667 1.88096667 17.1560667 9.66796667 19.0160667 9.66796667 19.0160667 1.88096667 21.0677333 1.88096667 21.0677333 0.4173"></polygon>
                <polygon id="Fill-5" fill="#221F20" fill-rule="nonzero" points="21.8364 0.4173 21.8364 9.65596667 27.4514 9.65596667 27.0197333 8.19196667 23.6600667 8.19196667 23.6600667 5.44463333 26.5757333 5.44463333 26.5757333 3.99263333 23.6600667 3.99263333 23.6600667 1.88096667 26.8994 1.88096667 27.2954 0.4173"></polygon>
                <g id="Group-15" transform="translate(30.333333, 0.085433)">
                    <path d="M3.4663,9.6307 C1.36663333,9.6307 0.394633333,8.8147 0.262966667,7.18303333 C0.250966667,7.01503333 0.250966667,6.83503333 0.262966667,6.65503333 L2.3623,6.34303333 C2.33863333,6.61903333 2.32663333,6.87103333 2.3623,7.08703333 C2.45863333,7.78303333 2.80663333,8.2627 3.5863,8.2627 C4.3663,8.2627 4.7143,7.84303333 4.7143,7.07503333 C4.7143,6.21103333 4.5343,5.86303333 3.4663,5.40736667 C3.1423,5.32336667 2.85463333,5.19136667 2.51863333,5.08303333 C1.03063333,4.62736667 0.406633333,3.95536667 0.406633333,2.64736667 C0.406633333,1.1237 1.35463333,0.248033333 3.3823,0.248033333 C5.2903,0.248033333 6.06996667,1.2797 6.26196667,2.56336667 C6.27396667,2.6357 6.28596667,2.7197 6.29796667,2.8037 L4.3783,3.10336667 C4.3663,3.00736667 4.3423,2.4917 4.3183,2.4077 C4.1863,1.9517 3.9103,1.6037 3.2983,1.6037 C2.6143,1.6037 2.29063333,1.9637 2.29063333,2.56336667 C2.29063333,3.18736667 2.5303,3.51136667 3.5503,3.83536667 C3.7903,3.90736667 4.1383,4.03936667 4.3663,4.12336667 C5.96196667,4.69936667 6.66996667,5.35936667 6.66996667,6.82303333 C6.66996667,8.6467 5.82996667,9.6307 3.4663,9.6307" id="Fill-6" fill="#221F20" fill-rule="nonzero"></path>
                    <polygon id="Fill-8" fill="#221F20" fill-rule="nonzero" points="11.7941 9.57063333 11.7941 5.3233 9.38243333 5.3233 9.38243333 9.57063333 7.52276667 9.57063333 7.52276667 0.331966667 9.38243333 0.331966667 9.38243333 3.8233 11.7941 3.8233 11.7941 0.331966667 13.6537667 0.331966667 13.6537667 9.57063333"></polygon>
                    <path d="M17.9743,1.73566667 C17.1103,1.73566667 16.6063,2.28766667 16.6063,4.93933333 C16.6063,7.59066667 17.0623,8.20266667 17.9743,8.20266667 C18.8739667,8.20266667 19.3423,7.59066667 19.3423,4.93933333 C19.3423,2.23966667 18.8143,1.73566667 17.9743,1.73566667 M17.9626333,9.66666667 C15.9229667,9.66666667 14.7346333,8.53866667 14.7346333,4.91533333 C14.7346333,1.25566667 15.9586333,0.248 17.9743,0.248 C19.9783,0.248 21.2139667,1.20766667 21.2139667,4.91533333 C21.2139667,8.58666667 19.9783,9.66666667 17.9626333,9.66666667" id="Fill-10" fill="#221F20" fill-rule="nonzero"></path>
                    <g id="Group-14" transform="translate(22.000000, 0.000000)">
                        <g id="Fill-12-Clipped">
                            <mask id="mask-2" fill="white">
                                <use xlink:href="#path-1"></use>
                            </mask>
                            <g id="path-1"></g>
                            <path d="M3.4619,1.7837 L2.13056667,1.7837 L2.13056667,4.41136667 L3.41423333,4.41136667 C4.14623333,4.41136667 4.4579,4.08736667 4.4579,3.12736667 C4.4579,2.21536667 4.2059,1.7837 3.4619,1.7837 M3.89423333,5.83903333 L2.13056667,5.83903333 L2.13056667,9.5707 L0.270566667,9.5707 L0.270566667,0.332033333 L3.7379,0.332033333 C5.33356667,0.332033333 6.3539,0.9077 6.3539,3.06736667 C6.3539,5.19136667 5.3819,5.83903333 3.89423333,5.83903333" id="Fill-12" fill="#221F20" fill-rule="nonzero" mask="url(#mask-2)"></path>
                        </g>
                    </g>
                </g>
            </g>
        </g>
    </g>
</svg>