<?xml version="1.0" encoding="UTF-8"?>
<svg width="100px" height="60px" viewBox="0 0 100 60" version="1.1" xmlns="http://www.w3.org/2000/svg" xmlns:xlink="http://www.w3.org/1999/xlink">
    <!-- Generator: Sketch 44.1 (41455) - http://www.bohemiancoding.com/sketch -->
    <title>specialized-feature-icon</title>
    <desc>Created with Sketch.</desc>
    <defs>
        <polygon id="path-1" points="0 0.293298246 0 8.37049123 13.1455789 8.37049123 13.1455789 0.293298246"></polygon>
        <polygon id="path-3" points="9.50522807 0.266666667 0.130491228 0.266666667 0.130491228 8.42098246 9.50522807 8.42098246"></polygon>
        <polygon id="path-5" points="0 0.293298246 0 8.37049123 13.1455789 8.37049123 13.1455789 0.293298246"></polygon>
        <polygon id="path-7" points="9.50522807 0.266666667 0.130491228 0.266666667 0.130491228 8.42098246 9.50522807 8.42098246"></polygon>
    </defs>
    <g id="Page-1" stroke="none" stroke-width="1" fill="none" fill-rule="evenodd">
        <g id="specialized-feature-icon">
            <g id="dealerLocator-sworks" transform="translate(10.000000, 26.000000)">
                <path d="M33.4940351,0.555754386 C33.4940351,0.555754386 30.5231579,4.534 29.6126316,5.74277193 L29.5880702,0.554701754 L25.8024561,0.551192982 C25.8024561,0.551192982 22.8224561,4.52347368 21.9098246,5.74417544 L21.8849123,0.543824561 L18.7329825,0.552596491 L18.8354386,8.28557895 L20.7550877,8.28417544 C21.1515789,8.28382456 22.1284211,8.25119298 22.3761404,7.92557895 C22.4884211,7.78522807 24.8392982,4.51750877 26.4098246,2.44207018 L26.4831579,8.29084211 L29.005614,8.28733333 C29.3915789,8.28663158 29.8375439,8.05575439 30.0880702,7.73926316 C30.2498246,7.51996491 35.4954386,0.556807018 35.4954386,0.556807018 L33.4940351,0.555754386 Z" id="Fill-1" fill="#010202" fill-rule="nonzero"></path>
                <g id="Group-5" transform="translate(0.000000, 0.084281)">
                    <g id="Fill-3-Clipped">
                        <mask id="mask-2" fill="white">
                            <use xlink:href="#path-1"></use>
                        </mask>
                        <g id="path-1"></g>
                        <path d="M13.1455789,0.293298246 L12.6547018,1.03750877 L8.07294737,1.02768421 C7.46347368,1.03014035 7.17680702,1.23259649 6.91715789,1.54347368 C6.66277193,1.85435088 6.72873684,1.8985614 6.51470175,2.28382456 C6.29154386,2.66031579 6.39470175,3.05926316 7.0294386,3.32312281 C7.66768421,3.58207018 8.42522807,3.94733333 9.09329825,4.24242105 C10.316807,4.78522807 10.6785614,5.04522807 10.0476842,6.19715789 C9.56452632,7.09715789 9.82417544,6.694 9.38698246,7.44873684 C8.95049123,8.20592982 8.29750877,8.37084211 7.24663158,8.36347368 L-3.50877193e-05,8.37049123 L0.712596491,7.38136842 L5.20592982,7.38487719 C6.00487719,7.37891228 6.18698246,7.1462807 6.44452632,6.73996491 C6.70382456,6.34663158 6.54908772,6.53084211 6.86312281,5.93996491 C7.17364912,5.35435088 7.23294737,5.06347368 6.54592982,4.73996491 C5.87926316,4.40382456 5.00768421,4.0262807 4.01189474,3.58382456 C3.02663158,3.13189474 3.02873684,3.01680702 3.34592982,2.37329825 C3.65926316,1.73505263 3.78698246,1.52452632 4.09715789,0.938912281 C4.40277193,0.347684211 5.22242105,0.292596491 6.07189474,0.295403509 L13.1455789,0.293298246 Z" id="Fill-3" fill="#010202" fill-rule="nonzero" mask="url(#mask-2)"></path>
                    </g>
                </g>
                <path d="M79.8999649,0.408421053 L79.4150526,1.15087719 L74.8255789,1.14912281 C74.2192632,1.14526316 73.9269825,1.35824561 73.6775088,1.66105263 C73.4199649,1.96947368 73.4775088,2.02385965 73.2645263,2.40210526 C73.0417193,2.77508772 73.1462807,3.17754386 73.7904912,3.4354386 C74.4185614,3.69789474 75.1792632,4.06385965 75.8508421,4.35824561 C77.0764561,4.90105263 77.4354035,5.16385965 76.8052281,6.31649123 C76.3231228,7.21368421 76.5831228,6.81754386 76.1459298,7.56982456 C75.7003158,8.32035088 75.0525965,8.48596491 73.9978596,8.48666667 L66.7522456,8.48561404 L67.4669825,7.49438596 L71.9610175,7.49859649 C72.7631228,7.49087719 72.9417193,7.26526316 73.1985614,6.86350877 C73.4613684,6.46596491 73.3069825,6.64912281 73.6157544,6.05824561 C73.9280351,5.46596491 73.971193,5.18175439 73.308386,4.85508772 C72.6399649,4.52385965 71.7592632,4.14385965 70.7704912,3.69614035 C69.7813684,3.25087719 69.7848772,3.13263158 70.1003158,2.50070175 C70.4129474,1.85789474 70.539614,1.63929825 70.848386,1.05263158 C71.1592632,0.463157895 71.9743509,0.407719298 72.8231228,0.414035088 L79.8999649,0.408421053 Z" id="Fill-6" fill="#010202" fill-rule="nonzero"></path>
                <path d="M42.4619649,1.73038596 C42.1879298,2.29178947 39.5679298,6.93635088 39.3496842,7.27178947 C39.1514386,7.57845614 38.9819649,7.78582456 38.3282807,7.83108772 L36.9549474,7.82477193 C36.273193,7.83178947 36.1967018,7.61635088 36.3707368,7.32968421 C36.5493333,7.05038596 39.4398596,1.75985965 39.6184561,1.47740351 C39.7752982,1.21424561 39.810386,1.03810526 40.6437193,1.00757895 L41.7977544,1.01284211 C42.6412632,1.01354386 42.730386,1.156 42.4619649,1.73038596 M44.598807,0.371438596 L38.5647719,0.366526316 L38.5482807,0.375649123 L38.5275789,0.378105263 C37.561614,0.380210526 36.6896842,0.505122807 36.4602105,0.976 C36.2367018,1.44968421 33.3651228,6.84266667 33.0496842,7.42757895 C32.7433684,8.01319298 33.0774035,8.46968421 34.3002105,8.46968421 L38.2370526,8.47178947 L40.6984561,8.46512281 C41.7882807,8.46898246 42.3767018,8.03810526 42.6833684,7.44547368 C42.990386,6.85319298 45.6458246,1.98863158 45.8700351,1.51003509 C46.093193,1.03424561 45.7244211,0.374947368 44.598807,0.371438596" id="Fill-8" fill="#010202" fill-rule="nonzero"></path>
                <polygon id="Fill-10" fill="#010202" fill-rule="nonzero" points="16.9802105 4.37361404 12.8619649 4.37185965 11.9917895 5.79887719 16.1089825 5.79747368"></polygon>
                <path d="M62.7734386,0.408421053 C61.0429123,0.41122807 59.6365965,0.416842105 59.6365965,0.416842105 L55.312386,8.48666667 L58.4222105,8.48175439 L62.7734386,0.408421053 Z" id="Fill-12" fill="#010202" fill-rule="nonzero"></path>
                <g id="Group-16" transform="translate(60.350877, 0.084281)">
                    <g id="Fill-14-Clipped">
                        <mask id="mask-4" fill="white">
                            <use xlink:href="#path-3"></use>
                        </mask>
                        <g id="path-3"></g>
                        <path d="M9.50522807,0.266596491 L5.87259649,0.287298246 L0.577508772,4.64975439 C0.56522807,4.64975439 0.558210526,4.64940351 0.558210526,4.64940351 L0.130491228,5.47642105 L2.94382456,8.41642105 L6.10417544,8.42098246 L2.99610526,5.36589474 L9.50522807,0.266596491 Z" id="Fill-14" fill="#010202" fill-rule="nonzero" mask="url(#mask-4)"></path>
                    </g>
                </g>
                <path d="M55.4930877,4.05838596 C56.0597544,3.02926316 56.4509825,2.35978947 56.7744912,1.63242105 C57.0843158,0.900842105 56.440807,0.400140351 55.2681754,0.39522807 L48.4022105,0.397684211 L43.9169474,8.46575439 L47.0355439,8.47522807 L51.138,0.947859649 L52.7958947,0.947157895 C53.1899298,0.940842105 53.5934386,1.13417544 53.3222105,1.67768421 C53.0572982,2.22364912 52.5671228,3.27768421 52.2109825,3.86996491 C51.8604561,4.46189474 51.5730877,4.70259649 51.1681754,4.76891228 C50.9397544,4.80680702 50.1916842,4.88119298 49.5987018,4.93066667 L49.5874737,4.93066667 L49.5874737,4.93417544 C49.5611579,4.93417544 49.5453684,4.93382456 49.5281754,4.93522807 L49.1478246,5.62435088 C49.1667719,5.62049123 49.1825614,5.62084211 49.1987018,5.62084211 L51.675193,8.4717193 L54.8337895,8.47242105 L51.9530877,5.40435088 C52.2906316,5.38329825 52.6067719,5.35978947 52.880807,5.33452632 C54.3758947,5.21452632 54.9155439,5.10680702 55.4930877,4.05838596" id="Fill-17" fill="#010202" fill-rule="nonzero"></path>
                <path d="M33.4940351,0.555754386 C33.4940351,0.555754386 30.5231579,4.534 29.6126316,5.74277193 L29.5880702,0.554701754 L25.8024561,0.551192982 C25.8024561,0.551192982 22.8224561,4.52347368 21.9098246,5.74417544 L21.8849123,0.543824561 L18.7329825,0.552596491 L18.8354386,8.28557895 L20.7550877,8.28417544 C21.1515789,8.28382456 22.1284211,8.25119298 22.3761404,7.92557895 C22.4884211,7.78522807 24.8392982,4.51750877 26.4098246,2.44207018 L26.4831579,8.29084211 L29.005614,8.28733333 C29.3915789,8.28663158 29.8375439,8.05575439 30.0880702,7.73926316 C30.2498246,7.51996491 35.4954386,0.556807018 35.4954386,0.556807018 L33.4940351,0.555754386 Z" id="Fill-19" fill="#010202" fill-rule="nonzero"></path>
                <g id="Group-23" transform="translate(0.000000, 0.084281)">
                    <g id="Fill-21-Clipped">
                        <mask id="mask-6" fill="white">
                            <use xlink:href="#path-5"></use>
                        </mask>
                        <g id="path-5"></g>
                        <path d="M13.1455789,0.293298246 L12.6547018,1.03750877 L8.07294737,1.02768421 C7.46347368,1.03014035 7.17680702,1.23259649 6.91715789,1.54347368 C6.66277193,1.85435088 6.72873684,1.8985614 6.51470175,2.28382456 C6.29154386,2.66031579 6.39470175,3.05926316 7.0294386,3.32312281 C7.66768421,3.58207018 8.42522807,3.94733333 9.09329825,4.24242105 C10.316807,4.78522807 10.6785614,5.04522807 10.0476842,6.19715789 C9.56452632,7.09715789 9.82417544,6.694 9.38698246,7.44873684 C8.95049123,8.20592982 8.29750877,8.37084211 7.24663158,8.36347368 L-3.50877193e-05,8.37049123 L0.712596491,7.38136842 L5.20592982,7.38487719 C6.00487719,7.37891228 6.18698246,7.1462807 6.44452632,6.73996491 C6.70382456,6.34663158 6.54908772,6.53084211 6.86312281,5.93996491 C7.17364912,5.35435088 7.23294737,5.06347368 6.54592982,4.73996491 C5.87926316,4.40382456 5.00768421,4.0262807 4.01189474,3.58382456 C3.02663158,3.13189474 3.02873684,3.01680702 3.34592982,2.37329825 C3.65926316,1.73505263 3.78698246,1.52452632 4.09715789,0.938912281 C4.40277193,0.347684211 5.22242105,0.292596491 6.07189474,0.295403509 L13.1455789,0.293298246 Z" id="Fill-21" fill="#010202" fill-rule="nonzero" mask="url(#mask-6)"></path>
                    </g>
                </g>
                <path d="M79.8999649,0.408421053 L79.4150526,1.15087719 L74.8255789,1.14912281 C74.2192632,1.14526316 73.9269825,1.35824561 73.6775088,1.66105263 C73.4199649,1.96947368 73.4775088,2.02385965 73.2645263,2.40210526 C73.0417193,2.77508772 73.1462807,3.17754386 73.7904912,3.4354386 C74.4185614,3.69789474 75.1792632,4.06385965 75.8508421,4.35824561 C77.0764561,4.90105263 77.4354035,5.16385965 76.8052281,6.31649123 C76.3231228,7.21368421 76.5831228,6.81754386 76.1459298,7.56982456 C75.7003158,8.32035088 75.0525965,8.48596491 73.9978596,8.48666667 L66.7522456,8.48561404 L67.4669825,7.49438596 L71.9610175,7.49859649 C72.7631228,7.49087719 72.9417193,7.26526316 73.1985614,6.86350877 C73.4613684,6.46596491 73.3069825,6.64912281 73.6157544,6.05824561 C73.9280351,5.46596491 73.971193,5.18175439 73.308386,4.85508772 C72.6399649,4.52385965 71.7592632,4.14385965 70.7704912,3.69614035 C69.7813684,3.25087719 69.7848772,3.13263158 70.1003158,2.50070175 C70.4129474,1.85789474 70.539614,1.63929825 70.848386,1.05263158 C71.1592632,0.463157895 71.9743509,0.407719298 72.8231228,0.414035088 L79.8999649,0.408421053 Z" id="Fill-24" fill="#010202" fill-rule="nonzero"></path>
                <path d="M42.4619649,1.73038596 C42.1879298,2.29178947 39.5679298,6.93635088 39.3496842,7.27178947 C39.1514386,7.57845614 38.9819649,7.78582456 38.3282807,7.83108772 L36.9549474,7.82477193 C36.273193,7.83178947 36.1967018,7.61635088 36.3707368,7.32968421 C36.5493333,7.05038596 39.4398596,1.75985965 39.6184561,1.47740351 C39.7752982,1.21424561 39.810386,1.03810526 40.6437193,1.00757895 L41.7977544,1.01284211 C42.6412632,1.01354386 42.730386,1.156 42.4619649,1.73038596 M44.598807,0.371438596 L38.5647719,0.366526316 L38.5482807,0.375649123 L38.5275789,0.378105263 C37.561614,0.380210526 36.6896842,0.505122807 36.4602105,0.976 C36.2367018,1.44968421 33.3651228,6.84266667 33.0496842,7.42757895 C32.7433684,8.01319298 33.0774035,8.46968421 34.3002105,8.46968421 L38.2370526,8.47178947 L40.6984561,8.46512281 C41.7882807,8.46898246 42.3767018,8.03810526 42.6833684,7.44547368 C42.990386,6.85319298 45.6458246,1.98863158 45.8700351,1.51003509 C46.093193,1.03424561 45.7244211,0.374947368 44.598807,0.371438596" id="Fill-26" fill="#010202" fill-rule="nonzero"></path>
                <polygon id="Fill-28" fill="#010202" fill-rule="nonzero" points="16.9802105 4.37361404 12.8619649 4.37185965 11.9917895 5.79887719 16.1089825 5.79747368"></polygon>
                <path d="M62.7734386,0.408421053 C61.0429123,0.41122807 59.6365965,0.416842105 59.6365965,0.416842105 L55.312386,8.48666667 L58.4222105,8.48175439 L62.7734386,0.408421053 Z" id="Fill-30" fill="#010202" fill-rule="nonzero"></path>
                <g id="Group-34" transform="translate(60.350877, 0.084281)">
                    <g id="Fill-32-Clipped">
                        <mask id="mask-8" fill="white">
                            <use xlink:href="#path-7"></use>
                        </mask>
                        <g id="path-7"></g>
                        <path d="M9.50522807,0.266596491 L5.87259649,0.287298246 L0.577508772,4.64975439 C0.56522807,4.64975439 0.558210526,4.64940351 0.558210526,4.64940351 L0.130491228,5.47642105 L2.94382456,8.41642105 L6.10417544,8.42098246 L2.99610526,5.36589474 L9.50522807,0.266596491 Z" id="Fill-32" fill="#010202" fill-rule="nonzero" mask="url(#mask-8)"></path>
                    </g>
                </g>
                <path d="M55.4930877,4.05838596 C56.0597544,3.02926316 56.4509825,2.35978947 56.7744912,1.63242105 C57.0843158,0.900842105 56.440807,0.400140351 55.2681754,0.39522807 L48.4022105,0.397684211 L43.9169474,8.46575439 L47.0355439,8.47522807 L51.138,0.947859649 L52.7958947,0.947157895 C53.1899298,0.940842105 53.5934386,1.13417544 53.3222105,1.67768421 C53.0572982,2.22364912 52.5671228,3.27768421 52.2109825,3.86996491 C51.8604561,4.46189474 51.5730877,4.70259649 51.1681754,4.76891228 C50.9397544,4.80680702 50.1916842,4.88119298 49.5987018,4.93066667 L49.5874737,4.93066667 L49.5874737,4.93417544 C49.5611579,4.93417544 49.5453684,4.93382456 49.5281754,4.93522807 L49.1478246,5.62435088 C49.1667719,5.62049123 49.1825614,5.62084211 49.1987018,5.62084211 L51.675193,8.4717193 L54.8337895,8.47242105 L51.9530877,5.40435088 C52.2906316,5.38329825 52.6067719,5.35978947 52.880807,5.33452632 C54.3758947,5.21452632 54.9155439,5.10680702 55.4930877,4.05838596" id="Fill-35" fill="#010202" fill-rule="nonzero"></path>
            </g>
        </g>
    </g>
</svg>