<?xml version="1.0" encoding="UTF-8"?>
<svg width="100px" height="60px" viewBox="0 0 100 60" version="1.1" xmlns="http://www.w3.org/2000/svg" xmlns:xlink="http://www.w3.org/1999/xlink">
    <!-- Generator: Sketch 44.1 (41455) - http://www.bohemiancoding.com/sketch -->
    <title>specialized-feature-icon</title>
    <desc>Created with Sketch.</desc>
    <defs>
        <polygon id="path-1" points="8.71459695e-05 9.89661002 79.8912418 9.89661002 79.8912418 -3.48583878e-05 8.71459695e-05 -3.48583878e-05"></polygon>
    </defs>
    <g id="Page-1" stroke="none" stroke-width="1" fill="none" fill-rule="evenodd">
        <g id="specialized-feature-icon">
            <g id="dealerLocator-roval" transform="translate(10.000000, 25.000000)">
                <mask id="mask-2" fill="white">
                    <use xlink:href="#path-1"></use>
                </mask>
                <g id="path-1"></g>
                <path d="M29.822658,4.28054031 C30.07939,3.60202179 29.5817865,2.85866667 28.8391285,2.85866667 L20.3469281,2.85762092 C19.4944662,2.85762092 18.7185185,3.34912418 18.3542484,4.11984314 L16.9755991,7.0352244 C16.7183442,7.71391721 17.2159477,8.45762092 17.95878,8.45762092 L26.4509804,8.45884096 C27.303268,8.45884096 28.0795643,7.96681481 28.4434858,7.19627015 L29.822658,4.28054031 L29.822658,4.28054031 Z M33.231634,2.32672767 C33.6975163,2.9747451 33.7710675,3.80559477 33.4334641,4.51966885 L31.9551198,7.61561656 C31.2994336,9.0028061 29.9024837,9.88768627 28.3680174,9.88768627 L15.3891939,9.88768627 C14.6751198,9.88768627 13.9830065,9.56942919 13.5661002,8.98938562 C13.1005664,8.34171678 13.0270153,7.51051852 13.3646187,6.79679303 L14.8288453,3.70084532 C15.4843573,2.31348148 16.8813072,1.42860131 18.4157734,1.42860131 L31.4087146,1.42860131 C32.122963,1.42860131 32.8147277,1.74703268 33.231634,2.32672767 L33.231634,2.32672767 Z M14.0065359,1.42860131 L13.3210458,2.86215251 L8.51965142,2.86215251 C7.72400871,2.86215251 6.99947712,3.29369935 6.60993464,3.97744662 L3.76235294,9.89674946 L8.71459695e-05,9.89674946 L2.948061,3.70084532 C3.60357298,2.31348148 5.00034858,1.42860131 6.53498911,1.42860131 L14.0065359,1.42860131 Z M49.7165142,1.42860131 L41.3339434,7.78694553 L38.3340305,1.42860131 L34.5834423,1.42860131 L38.7305447,9.89674946 L42.5072767,9.89674946 L53.4672767,1.42860131 L49.7165142,1.42860131 Z M76.1449237,-6.97167756e-05 L71.4118519,9.89674946 L75.1887582,9.89674946 L79.891329,-6.97167756e-05 L76.1449237,-6.97167756e-05 Z M69.4038344,1.42860131 C70.9447495,1.42860131 71.9636601,3.02964706 71.3111111,4.42572549 L68.7115468,9.89674946 L52.9036166,9.89674946 L51.948671,9.89657516 C51.3442266,9.89657516 50.7586057,9.62729412 50.4056645,9.13631373 C50.0117647,8.58833987 49.9495425,7.88524619 50.2353813,7.28097603 L50.5794336,6.55766449 C51.1906754,5.26389542 52.4935076,4.43862309 53.924793,4.43862309 L54.8323312,4.43984314 L65.1542484,4.43984314 L64.4705011,5.86868845 L55.5981699,5.86868845 C54.8101961,5.86868845 54.0797386,6.31383007 53.7431808,7.02616122 C53.5857952,7.35871024 53.6201307,7.74598693 53.8371242,8.04768627 C54.0312854,8.31783878 54.3537255,8.46616122 54.6864488,8.46616122 L65.8545534,8.46755556 L67.8383442,4.34746841 C68.1566013,3.6515207 67.6488889,2.85762092 66.8814815,2.85762092 L54.8957734,2.85762092 L55.5701089,1.42860131 L69.4038344,1.42860131 L69.4038344,1.42860131 Z" id="Fill-1" fill="#000000" fill-rule="nonzero" mask="url(#mask-2)"></path>
            </g>
        </g>
    </g>
</svg>