<?xml version="1.0" encoding="utf-8"?>
<!-- Generator: Adobe Illustrator 19.1.0, SVG Export Plug-In . SVG Version: 6.00 Build 0)  -->
<svg version="1.1" id="Layer_1" xmlns="http://www.w3.org/2000/svg" xmlns:xlink="http://www.w3.org/1999/xlink" x="0px" y="0px"
	 viewBox="72 252 432 72" style="enable-background:new 72 252 432 72;" xml:space="preserve">
<path d="M232.3,279.7l-5.2,8.9h4.3L232.3,279.7z M143.4,272.2h-4.2l-7.8,18.2c1.2-0.2,4.8-0.7,5.7-1c1.1-0.3,1.9-1.4,3.2-4
	c1.2-2.6,3.1-7.4,4.1-9.9C145.4,273,144.5,272.2,143.4,272.2z M307.9,269.6c2.3,0,3.3,1.9,1.1,4.1c-2.2,2.2-24.4,26.5-25.2,27.4
	c-0.7,0.8-1.1,1.7,0.3,1.7h13.5l-1.2,3.1h-20.9c-2.5,0-3.4-1.7-1-4.2s24.9-26.8,25.8-27.8c0.9-0.9,0.6-1.4-0.2-1.4h-12.2l1-2.9
	L307.9,269.6z M263.1,269.6c0,0-12.1,28.9-13.1,30.9c-0.9,2,0.3,2.3,1.4,2.3h7.9l-1.2,3.1h-14.4c-2.7,0-3.6-1.8-2.2-5.2
	c1.4-3.4,13.4-31.1,13.4-31.1L263.1,269.6z M240.7,269.6l-3.1,36.3h-8.1l1.6-14.7h-6.6l-9.7,14.7h-7.7c0,0,22.2-32.8,23-33.9
	c0.8-1.2,2.5-2.4,3.6-2.4H240.7z M219.4,269.6L204,305.9h-8.5l15.7-36.3H219.4z M285.1,269.6l-15.4,36.3h-8.5l15.7-36.3H285.1z
	 M206.9,269.7l-1.2,2.6H195c-2.7,0-3,1.2-3.6,2.4c-0.6,1.3-10.6,24.7-11.2,26c-0.6,1.3-0.5,2.2,1.2,2.2h8.4h2.5l-1,3.1H174
	c-3.1,0-3.7-2-2.6-4.7c1.1-2.7,11.5-26.8,12.4-28.9c0.8-2.1,3.1-2.7,5.6-2.7H206.9z M181.4,269.7l-1.3,2.5h-9.7
	c-2.7,0-3.6,0.7-4.5,2.8c-0.9,2-4.8,11.4-4.8,11.4h10.4l-1.4,2.6H160c0,0-3.9,8.9-4.8,11.1c-1,2.2-0.8,2.9,0.9,2.9h8.4h2.5l-1.3,3.1
	h-17c-2.4,0-3.9-1.2-2.4-4.8c1.5-3.6,10.6-24.9,11.9-27.8c1.3-2.9,3.3-3.8,6.1-3.8L181.4,269.7L181.4,269.7z M337.1,269.6l-1.3,2.5
	h-9.7c-2.7,0-3.6,0.7-4.5,2.8c-0.9,2-4.8,11.4-4.8,11.4h10.4l-1.4,2.6h-10.1c0,0-3.9,8.9-4.8,11.1c-1,2.2-0.7,2.9,0.9,2.9h8.4h2.5
	l-1.3,3.1h-17c-2.4,0-3.9-1.2-2.5-4.8c1.5-3.6,10.6-24.9,11.9-27.8s3.2-3.8,6.1-3.8L337.1,269.6z M150.1,269.7c3,0,4.3,2.3,3.1,5.6
	c-1.2,3.3-2.6,6.3-4.7,10.9c-2.1,4.7-3.5,5.2-7.4,5.7s-11.2,1.5-11.2,1.5l-5.5,12.6h-7.9l16-36.3L150.1,269.7z M128.4,269.7
	l-1.3,2.5h-11.7c-1.5,0-2.4,1-3.2,2.3c-0.8,1.4-1.1,2.4-1.9,4.1s-0.7,3.5,0.7,4.7c1.5,1.2,3.2,2.8,4.7,4.1c2.8,2.4,3.6,3.6,1.3,8.8
	c-1.8,4-0.8,2.2-2.4,5.6c-1.5,3.4-3.3,4.1-6,4.1H90.3l1.6-3.1h11.4c2.1,0,2.6-1.1,3.5-2.9s1.2-2.3,2.3-5c1.1-2.6,1.4-3.9-0.1-5.4
	s-3.5-3.2-5.8-5.2s-2.2-2.5-1-5.4s1.6-3.8,2.7-6.5c1.1-2.6,3.2-2.9,5.4-2.9L128.4,269.7z M338.3,302.8h2c2.1,0,2.6-1.1,3.4-2.5
	c0.7-1.5,9.6-22.1,10.7-24.6c1-2.5,0.3-3.2-1.3-3.2h-5.3l-13,30.3h2.6L338.3,302.8L338.3,302.8z M325.4,305.8l15.6-36.3h19.8
	c2.9,0,3.4,3,2.6,5.1s-10.4,24-11.5,26.7c-1.1,2.6-2.8,4.5-5.5,4.6L325.4,305.8z"/>
<g>
	<rect x="384.5" y="260.2" width="3" height="55"/>
</g>
<g>
	<path d="M411.2,283.2c-0.7,0.6-1.5,1-2.7,1c-1.4,0-2.4-0.6-3-1.3c-1-1.2-1.1-2.9-1.1-6.5s0.1-5.3,1.1-6.5c0.6-0.8,1.6-1.3,3-1.3
		c1.2,0,2,0.3,2.7,1c0.8,0.7,1.2,1.9,1.2,3.2H410c0-0.6-0.1-1.1-0.4-1.5c-0.2-0.3-0.6-0.6-1.1-0.6s-0.9,0.2-1.1,0.6
		c-0.5,0.7-0.5,2.3-0.5,5.1c0,2.8,0.1,4.4,0.5,5.1c0.2,0.3,0.6,0.6,1.1,0.6s0.9-0.2,1.1-0.6c0.3-0.4,0.3-1,0.4-1.5h2.4
		C412.5,281.3,412,282.5,411.2,283.2z"/>
	<path d="M421.9,282.9c-0.6,0.8-1.6,1.3-3,1.3s-2.4-0.6-3-1.3c-1-1.2-1.1-2.9-1.1-6.5s0.1-5.3,1.1-6.5c0.6-0.8,1.6-1.3,3-1.3
		s2.4,0.6,3,1.3c1,1.2,1.1,2.9,1.1,6.5S422.9,281.7,421.9,282.9z M420,271.2c-0.2-0.3-0.6-0.6-1.2-0.6s-0.9,0.2-1.1,0.6
		c-0.5,0.7-0.5,2.3-0.5,5.1c0,2.8,0.1,4.4,0.5,5.1c0.2,0.3,0.6,0.6,1.1,0.6c0.6,0,0.9-0.2,1.2-0.6c0.5-0.7,0.5-2.3,0.5-5.1
		C420.6,273.5,420.5,272,420,271.2z"/>
	<path d="M431.8,284l-3.6-9.1v9.1h-2.4v-15.4h2.2l3.6,9.1v-9.1h2.4V284H431.8z"/>
	<path d="M443.4,283.2c-0.7,0.6-1.5,1-2.7,1c-1.4,0-2.4-0.6-3-1.3c-1-1.2-1.1-2.9-1.1-6.5s0.1-5.3,1.1-6.5c0.6-0.8,1.6-1.3,3-1.3
		c1.2,0,2,0.3,2.7,1c0.8,0.7,1.2,1.9,1.2,3.2h-2.4c0-0.6-0.1-1.1-0.4-1.5c-0.2-0.3-0.6-0.6-1.1-0.6s-0.9,0.2-1.1,0.6
		c-0.5,0.7-0.5,2.3-0.5,5.1c0,2.8,0.1,4.4,0.5,5.1c0.2,0.3,0.6,0.6,1.1,0.6s0.9-0.2,1.1-0.6c0.3-0.4,0.3-1,0.4-1.5h2.4
		C444.6,281.3,444.1,282.5,443.4,283.2z"/>
	<path d="M447.2,284v-15.4h6.5v2.2h-4v4.4h3.5v2.2h-3.5v4.5h4v2.2h-6.5V284z"/>
	<path d="M460.2,278h-1.4v6h-2.4v-15.4h3.9c2.8,0,4,1.5,4,4.7C464.1,276.6,463,278,460.2,278z M460.1,270.8h-1.4v5h1.4
		c1.3,0,1.6-0.9,1.6-2.5C461.7,271.8,461.4,270.8,460.1,270.8z"/>
	<path d="M470.8,270.8V284h-2.4v-13.2h-2.6v-2.2h7.6v2.2H470.8z"/>
	<path d="M422.1,304.2c-0.6,0.6-1.6,1-3,1c-1.3,0-2.3-0.4-3-1c-0.7-0.7-1-1.7-1-3.3h2.4c0,0.8,0.1,1.3,0.4,1.7
		c0.2,0.2,0.6,0.4,1.1,0.4c0.6,0,0.9-0.2,1.2-0.4c0.3-0.4,0.4-0.9,0.4-1.7c0-1.6-0.3-2.1-1.4-2.5l-1.8-0.8c-1.6-0.6-2.1-1.5-2.1-3.9
		c0-1.4,0.4-2.5,1.3-3.3c0.7-0.6,1.5-0.9,2.6-0.9c1.2,0,2.1,0.3,2.8,0.9c0.8,0.8,1.1,1.9,1.1,3.3h-2.4c0-0.7,0-1.2-0.4-1.6
		c-0.2-0.3-0.6-0.5-1.1-0.5s-0.8,0.2-1,0.4c-0.3,0.3-0.4,0.8-0.4,1.5c0,1.3,0.2,1.6,1.3,2.1l1.8,0.7c1.8,0.8,2.3,1.7,2.3,4.3
		C423.1,302.3,422.9,303.4,422.1,304.2z"/>
	<path d="M429.8,291.8V305h-2.4v-13.2h-2.6v-2.2h7.6v2.2H429.8z"/>
	<path d="M441.1,303.9c-0.6,0.8-1.6,1.3-3,1.3s-2.4-0.6-3-1.3c-1-1.2-1.1-2.9-1.1-6.5s0.1-5.3,1.1-6.5c0.6-0.8,1.6-1.3,3-1.3
		s2.4,0.6,3,1.3c1,1.2,1.1,2.9,1.1,6.5S442.1,302.7,441.1,303.9z M439.3,292.2c-0.2-0.3-0.6-0.6-1.2-0.6s-0.9,0.2-1.1,0.6
		c-0.5,0.7-0.5,2.3-0.5,5.1c0,2.8,0.1,4.4,0.5,5.1c0.2,0.3,0.6,0.6,1.1,0.6s1-0.2,1.2-0.6c0.5-0.7,0.5-2.3,0.5-5.1
		S439.8,293,439.3,292.2z"/>
	<path d="M450.7,305l-2-6.3h-1.4v6.3H445v-15.4h3.9c2.8,0,3.9,1.4,3.9,4.5c0,1.9-0.4,3.3-1.8,4l2.3,6.8h-2.6V305z M448.9,291.8h-1.5
		v4.7h1.5c1.3,0,1.5-1.1,1.5-2.4C450.4,292.9,450.2,291.8,448.9,291.8z"/>
	<path d="M455.8,305v-15.4h6.5v2.2h-4v4.4h3.5v2.2h-3.5v4.5h4v2.2h-6.5V305z"/>
</g>
</svg>
