<?xml version="1.0" encoding="utf-8"?>
<!-- Generator: Adobe Illustrator 22.0.1, SVG Export Plug-In . SVG Version: 6.00 Build 0)  -->
<svg version="1.1" id="Layer_1" xmlns="http://www.w3.org/2000/svg" xmlns:xlink="http://www.w3.org/1999/xlink" width="77.6px" height="60px"
	 viewBox="0 0 77.6 60" style="enable-background:new 0 0 77.6 60;" xml:space="preserve">
<style type="text/css">
	.st0{fill:#02A0E0;}
	.st1{fill:#161616;}
</style>
<g>
	<path class="st0" d="M35.5,23.9h0.8c0.1,0,0.2-0.1,0.2-0.2v-0.8c0-0.1-0.1-0.2-0.2-0.2h-0.8c-0.1,0-0.2,0.1-0.2,0.2v0.8
		C35.3,23.8,35.4,23.9,35.5,23.9z"/>
	<path class="st0" d="M39.5,23.9h0.8c0.1,0,0.2-0.1,0.2-0.2v-0.8c0-0.1-0.1-0.2-0.2-0.2h-0.8c-0.1,0-0.2,0.1-0.2,0.2v0.8
		C39.3,23.8,39.4,23.9,39.5,23.9z"/>
	<path class="st0" d="M32.5,25.3h-5.9c-0.1,0-0.2,0.1-0.2,0.2v1.3c0,0.1,0.1,0.2,0.2,0.2h2v10.1c0,0.1,0.1,0.2,0.2,0.2h1.4
		c0.1,0,0.2-0.1,0.2-0.2V27h2c0.1,0,0.2-0.1,0.2-0.2v-1.3C32.7,25.4,32.6,25.3,32.5,25.3z"/>
	<path class="st0" d="M41.5,25.3h-1.2c-0.1,0-0.2,0.1-0.2,0.2v9.4c0,0.4-0.3,0.7-0.7,0.7h-3c-0.4,0-0.7-0.3-0.7-0.7v-9.4
		c0-0.1-0.1-0.2-0.2-0.2h-1.2c-0.1,0-0.2,0.1-0.2,0.2v10.2c0,0.9,0.7,1.6,1.6,1.6h4.4c0.9,0,1.6-0.7,1.6-1.6V25.5
		C41.7,25.4,41.6,25.3,41.5,25.3z"/>
	<path class="st0" d="M24.5,25.3h-5.7c-0.1,0-0.2,0.1-0.2,0.2v11.6c0,0.1,0.1,0.2,0.2,0.2h5.7c0.1,0,0.2-0.1,0.2-0.2v-1.3
		c0-0.1-0.1-0.2-0.2-0.2h-4.3v-3.4h4.3c0.1,0,0.2-0.1,0.2-0.2v-1.3c0-0.1-0.1-0.2-0.2-0.2h-4.3V27h4.2c0.1,0,0.3-0.1,0.3-0.3v-1.2
		C24.8,25.4,24.7,25.3,24.5,25.3z"/>
	<path class="st0" d="M48.9,35.6h-4.3V25.5c0-0.1-0.1-0.2-0.2-0.2h-1.3c-0.1,0-0.2,0.1-0.2,0.2v11.6c0,0.1,0.1,0.2,0.2,0.2h5.7
		c0.1,0,0.2-0.1,0.2-0.2v-1.3C49.1,35.7,49,35.6,48.9,35.6z"/>
	<path class="st0" d="M17.4,29.7c0-1.2-0.5-2.4-1.3-3.2c-0.8-0.8-1.9-1.2-3.1-1.3h-2.8c-0.1,0-0.3,0.1-0.3,0.2v11.6
		c0,0.1,0.1,0.2,0.2,0.2h1.3c0.1,0,0.2-0.1,0.2-0.2v-2.8l1.1,0l0.1,0.1l0,0l0.2,0.2l2,2.5c0,0,0,0,0,0l0,0c0,0.1,0.1,0.1,0.2,0.1
		h1.7c0.2,0,0.3-0.2,0.2-0.4L14.9,34l-0.1-0.1C16.4,33.2,17.4,31.5,17.4,29.7z M13,32.6h-1.2v-5.8H13c0.8,0,1.5,0.3,2,0.8
		c0.5,0.5,0.9,1.3,0.9,2.1C15.8,31.3,14.5,32.6,13,32.6z"/>
</g>
<g>
	<path class="st1" d="M53.3,26.7v3.5h2.8v1.7h-2.8v5.3h-1.9V24.9h5.2v1.7L53.3,26.7L53.3,26.7z"/>
	<path class="st1" d="M58.2,37.3V24.9h1.9v12.4L58.2,37.3L58.2,37.3z"/>
	<path class="st1" d="M65.5,26.7v10.6h-1.9V26.7h-2.1v-1.8h6.1v1.7L65.5,26.7L65.5,26.7z"/>
</g>
</svg>
