<?xml version="1.0" encoding="utf-8"?>
<!-- Generator: Adobe Illustrator 22.0.1, SVG Export Plug-In . SVG Version: 6.00 Build 0)  -->
<svg version="1.1" id="Layer_1" xmlns="http://www.w3.org/2000/svg" xmlns:xlink="http://www.w3.org/1999/xlink" width="100px" height="60px"
	 viewBox="0 0 100 60" style="enable-background:new 0 0 100 60;" xml:space="preserve">
<style type="text/css">
	.st0{fill:#02A0E0;}
	.st1{fill:#161616;}
</style>
<g>
	<path class="st0" d="M35.3,23.9h0.8c0.1,0,0.2-0.1,0.2-0.2v-0.8c0-0.1-0.1-0.2-0.2-0.2h-0.8c-0.1,0-0.2,0.1-0.2,0.2v0.8
		C35.1,23.8,35.2,23.9,35.3,23.9"/>
	<path class="st0" d="M39.3,23.9h0.8c0.1,0,0.2-0.1,0.2-0.2v-0.8c0-0.1-0.1-0.2-0.2-0.2h-0.8c-0.1,0-0.2,0.1-0.2,0.2v0.8
		C39.1,23.8,39.2,23.9,39.3,23.9"/>
	<path class="st0" d="M32.3,25.2h-5.8c-0.1,0-0.2,0.1-0.2,0.2v1.3c0,0.1,0.1,0.2,0.2,0.2h2v10c0,0.1,0.1,0.2,0.2,0.2h1.4
		c0.1,0,0.2-0.1,0.2-0.2V27h2c0.1,0,0.2-0.1,0.2-0.2v-1.3C32.5,25.3,32.4,25.2,32.3,25.2"/>
	<path class="st0" d="M41.3,25.2H40c-0.1,0-0.2,0.1-0.2,0.2v9.4c0,0.4-0.3,0.7-0.7,0.7h-3c-0.4,0-0.7-0.3-0.7-0.7v-9.4
		c0-0.1-0.1-0.2-0.2-0.2h-1.2c-0.1,0-0.2,0.1-0.2,0.2v10.1c0,0.9,0.7,1.6,1.6,1.6h4.4c0.9,0,1.6-0.7,1.6-1.6V25.5
		C41.5,25.3,41.4,25.2,41.3,25.2"/>
	<path class="st0" d="M24.4,25.2h-5.6c-0.1,0-0.2,0.1-0.2,0.2v11.5c0,0.1,0.1,0.2,0.2,0.2h5.7c0.1,0,0.2-0.1,0.2-0.2v-1.3
		c0-0.1-0.1-0.2-0.2-0.2h-4.2v-3.3h4.2c0.1,0,0.2-0.1,0.2-0.2v-1.2c0-0.1-0.1-0.2-0.2-0.2h-4.2V27h4.2c0.1,0,0.3-0.1,0.3-0.3v-1.2
		C24.7,25.4,24.6,25.2,24.4,25.2"/>
	<path class="st0" d="M48.6,35.5h-4.2v-10c0-0.1-0.1-0.2-0.2-0.2h-1.3c-0.1,0-0.2,0.1-0.2,0.2v11.5c0,0.1,0.1,0.2,0.2,0.2h5.7
		c0.1,0,0.2-0.1,0.2-0.2v-1.3C48.8,35.6,48.7,35.5,48.6,35.5"/>
	<path class="st0" d="M12.9,32.6h-1.2v-5.7h1.2c0.7,0,1.4,0.3,2,0.8c0.5,0.5,0.8,1.3,0.8,2C15.8,31.2,14.5,32.6,12.9,32.6
		 M17.4,29.7c0-1.2-0.5-2.3-1.3-3.2c-0.8-0.8-1.9-1.2-3-1.2h-2.7c-0.1,0-0.3,0.1-0.3,0.2V37c0,0.1,0.1,0.2,0.2,0.2h1.3
		c0.1,0,0.2-0.1,0.2-0.2v-2.7l1.1,0l0.1,0.1l0,0l0.2,0.2l2,2.5c0,0,0,0,0,0l0,0c0,0.1,0.1,0.1,0.2,0.1h1.7c0.2,0,0.3-0.2,0.2-0.4
		l-2.4-2.8l-0.1-0.1C16.3,33.1,17.4,31.4,17.4,29.7"/>
	<polygon class="st1" points="57.4,37.2 57.4,29.5 55.7,34.5 54.6,34.5 53,29.6 53,37.2 51,37.2 51,24.9 52.8,24.9 55.2,31.3 
		57.5,24.9 59.3,24.9 59.3,37.2 	"/>
	<path class="st1" d="M64.3,27.9l-1,5.1h2.1L64.3,27.9z M66.3,37.2l-0.5-2.4h-2.9l-0.5,2.4h-2l3-12.3h1.9l3,12.3H66.3z"/>
	<path class="st1" d="M81.1,36.5c-0.6,0.5-1.2,0.8-2.1,0.8c-1.2,0-1.9-0.4-2.4-1c-0.9-1-0.9-2.8-0.9-5.2s0-4.2,0.9-5.3
		c0.5-0.6,1.2-1,2.4-1c0.9,0,1.6,0.3,2.1,0.8c0.6,0.6,1,1.5,1,2.6h-1.9c0-0.4-0.1-0.9-0.3-1.2c-0.2-0.3-0.4-0.4-0.9-0.4
		c-0.5,0-0.7,0.2-0.9,0.5c-0.4,0.6-0.4,1.8-0.4,4.1s0.1,3.5,0.4,4.1c0.2,0.3,0.4,0.5,0.9,0.5c0.5,0,0.7-0.2,0.9-0.4
		c0.2-0.3,0.3-0.8,0.3-1.2h1.9C82.1,35,81.7,36,81.1,36.5"/>
	<polygon class="st1" points="72.5,26.6 72.5,37.2 70.6,37.2 70.6,26.6 68.6,26.6 68.6,24.9 74.6,24.9 74.6,26.6 	"/>
	<polygon class="st1" points="88.1,37.2 88.1,31.8 85.7,31.8 85.7,37.2 83.7,37.2 83.7,24.9 85.7,24.9 85.7,30.1 88.1,30.1 
		88.1,24.9 90,24.9 90,37.2 	"/>
</g>
</svg>
