<?xml version="1.0" encoding="UTF-8"?>
<svg width="60px" height="60px" viewBox="0 0 60 60" version="1.1" xmlns="http://www.w3.org/2000/svg" xmlns:xlink="http://www.w3.org/1999/xlink">
    <!-- Generator: Sketch 44.1 (41455) - http://www.bohemiancoding.com/sketch -->
    <title>specialized-feature-icon</title>
    <desc>Created with Sketch.</desc>
    <defs>
        <polygon id="path-1" points="0.265048872 0.163846154 17.2035458 0.163846154 17.2035458 34.6153846 0.265048872 34.6153846"></polygon>
    </defs>
    <g id="Page-1" stroke="none" stroke-width="1" fill="none" fill-rule="evenodd">
        <g id="specialized-feature-icon">
            <g id="dealerLocator-fit" transform="translate(15.000000, 13.000000)">
                <g id="Group-3">
                    <g id="Fill-1-Clipped">
                        <g>
                            <mask id="mask-2" fill="white">
                                <use xlink:href="#path-1"></use>
                            </mask>
                            <g id="path-1"></g>
                            <path d="M15.0661538,0.696153846 C12.9623077,-0.284615385 10.1215385,0.186153846 8.17,1.31153846 C6.50538462,2.28 5.46307692,3.90230769 5.15384615,5.64153846 L3.80076923,13.3338462 L3.37538462,13.3338462 C2.67923077,13.3338462 2.09846154,13.8761538 2.09846154,14.5723077 C2.09846154,15.2676923 2.67923077,15.8092308 3.37538462,15.8092308 L0.283076923,33.1292308 C0.166153846,33.8230769 0.63,34.48 1.32538462,34.5984615 C1.98384615,34.7123077 2.64076923,34.2484615 2.75692308,33.5915385 L7.62769231,6.06692308 C7.78076923,5.02153846 8.44,4.05769231 9.44307692,3.47692308 C10.4169231,2.90538462 11.6207692,2.59461538 12.7453846,2.68153846 C13.2484615,2.71923077 13.7538462,2.82692308 14.2030769,3.06153846 C14.46,3.19692308 15.3184615,3.87153846 15.3276923,3.90076923 C15.3276923,3.90076923 16.1153846,4.51 16.8861538,3.57461538 C17.6584615,2.64 16.7784615,1.83615385 16.7784615,1.83615385 C16.32,1.37538462 15.6523077,0.97 15.0661538,0.696153846" id="Fill-1" fill="#000000" fill-rule="nonzero" mask="url(#mask-2)"></path>
                        </g>
                    </g>
                </g>
                <path d="M11.23,13.3338462 L8.51692308,13.3338462 C7.82076923,13.3338462 7.28,13.8761538 7.28,14.5723077 C7.28,15.2676923 7.82076923,15.8092308 8.51692308,15.8092308 L11.23,15.8092308 C11.8876923,15.8092308 12.4676923,15.2676923 12.4676923,14.5723077 C12.4676923,13.8761538 11.8876923,13.3338462 11.23,13.3338462" id="Fill-4" fill="#000000" fill-rule="nonzero"></path>
                <path d="M15.2553846,13.0584615 C14.6069231,12.9553846 13.9423077,13.4369231 13.8315385,14.1223077 L12.4515385,23.83 C12.3476923,24.4776923 12.8284615,25.1407692 13.4776923,25.2469231 C14.1646154,25.3546154 14.83,24.8769231 14.9330769,24.2269231 L16.3123077,14.52 C16.4230769,13.8338462 15.9430769,13.1692308 15.2553846,13.0584615" id="Fill-5" fill="#000000" fill-rule="nonzero"></path>
                <path d="M26.9438462,14.2823077 C26.9438462,13.5853846 26.3630769,13.0438462 25.7061538,13.0438462 L23.8561538,13.0438462 L24.2423077,10.3961538 C24.3538462,9.70923077 23.8723077,9.04538462 23.1861538,8.93384615 C22.5369231,8.83 21.8738462,9.31153846 21.7615385,9.99923077 L21.3176923,13.0438462 L20.4092308,13.0438462 C19.7146154,13.0438462 19.1715385,13.5853846 19.1715385,14.2823077 C19.1715385,14.9776923 19.7146154,15.5184615 20.4092308,15.5184615 L20.9569231,15.5184615 L19.7453846,23.83 C19.6423077,24.4776923 20.1230769,25.1407692 20.7707692,25.2469231 C21.4576923,25.3546154 22.1238462,24.8761538 22.2253846,24.2269231 L23.4953846,15.5184615 L25.7061538,15.5184615 C26.3630769,15.5184615 26.9438462,14.9776923 26.9438462,14.2823077" id="Fill-6" fill="#000000" fill-rule="nonzero"></path>
                <g id="Group-10" transform="translate(13.846154, 8.461538)" fill-rule="nonzero" fill="#000000">
                    <path d="M1.98384615,0.289230769 C1.27076923,0.176153846 0.54,0.704615385 0.418461538,1.46153846 C0.295384615,2.21538462 0.831538462,2.90461538 1.54538462,3.02076923 C2.30153846,3.14153846 3.02538462,2.65538462 3.14461538,1.89692308 C3.26769231,1.14384615 2.73769231,0.411538462 1.98384615,0.289230769" id="Fill-7"></path>
                    <path d="M14.9384615,8.82384615 C14.2261538,8.71153846 13.4953846,9.23923077 13.3738462,9.99615385 C13.2507692,10.75 13.7861538,11.4392308 14.5,11.5561538 C15.2569231,11.6761538 15.98,11.1907692 16.1,10.4315385 C16.2223077,9.67846154 15.6923077,8.94615385 14.9384615,8.82384615" id="Fill-9"></path>
                </g>
                <path d="M28.0376923,22.4984615 C27.3246154,22.3861538 26.5946154,22.9138462 26.4730769,23.6715385 C26.35,24.4246154 26.8853846,25.1146154 27.5992308,25.2307692 C28.3553846,25.3507692 29.0792308,24.8653846 29.1992308,24.1069231 C29.3215385,23.3538462 28.7923077,22.6207692 28.0376923,22.4984615" id="Fill-11" fill="#000000" fill-rule="nonzero"></path>
            </g>
        </g>
    </g>
</svg>