<?xml version="1.0" encoding="UTF-8"?>
<svg width="100px" height="60px" viewBox="0 0 100 60" version="1.1" xmlns="http://www.w3.org/2000/svg" xmlns:xlink="http://www.w3.org/1999/xlink">
    <!-- Generator: Sketch 44.1 (41455) - http://www.bohemiancoding.com/sketch -->
    <title>specialized-feature-icon</title>
    <desc>Created with Sketch.</desc>
    <defs></defs>
    <g id="Page-1" stroke="none" stroke-width="1" fill="none" fill-rule="evenodd">
        <g id="specialized-feature-icon" fill-rule="nonzero" fill="#1A1918">
            <g id="retul" transform="translate(30.000000, 21.000000)">
                <path d="M15.0570472,4.17891732 C15.0570472,4.23596457 15.0346063,4.29159449 14.9950984,4.33068898 C14.9540551,4.36966535 14.9009055,4.3926378 14.8447441,4.3926378 L10.5131693,4.38041339 L10.5131693,8.01218504 L11.585374,8.02440945 C12.6516732,8.04 13.7550591,8.05612205 14.8388976,8.02440945 C14.8964764,8.02051181 14.9511614,8.04389764 14.9926181,8.08299213 C15.0346063,8.12391732 15.0570472,8.17712598 15.0570472,8.23665354 L15.0570472,9.52505906 C15.0570472,9.63897638 14.9662795,9.73098425 14.8520669,9.73683071 C13.7589567,9.77049213 12.6506693,9.75437008 11.5775197,9.73683071 L10.5131693,9.7246063 L10.5131693,13.1919094 L11.590748,13.2056102 C12.6521457,13.2271063 13.7516339,13.246122 14.8286811,13.2056102 C14.8862598,13.2041339 14.9423622,13.2261024 14.983878,13.2641339 C15.026752,13.3051772 15.0487205,13.3602756 15.0487205,13.4181496 L15.0487205,14.7062008 C15.0487205,14.8199409 14.9584843,14.9141339 14.8447441,14.9175591 C13.5359055,14.9658661 12.2085236,14.9380512 10.9260236,14.9082874 L8.97496063,14.8765157 C8.86027559,14.8750984 8.76466535,14.7804331 8.76466535,14.6652165 L8.76466535,2.86954724 C8.76466535,2.81297244 8.78757874,2.75728346 8.82708661,2.71830709 C8.86812992,2.6792126 8.92181102,2.65582677 8.97838583,2.65582677 L14.845748,2.68068898 C14.9623819,2.68068898 15.0570472,2.77535433 15.0570472,2.89151575 L15.0570472,4.17891732" id="Fill-1"></path>
                <path d="M35.1210827,13.1919094 L36.1986024,13.2056102 C37.2604724,13.2271063 38.3599606,13.246122 39.4375394,13.2056102 C39.4951181,13.2041339 39.5497441,13.2261024 39.5922047,13.2641339 C39.6351378,13.3051772 39.6566339,13.3602756 39.6566339,13.4181496 L39.6566339,14.7062008 C39.6566339,14.8199409 39.5673425,14.9141339 39.4531299,14.9175591 C38.1442913,14.9658661 36.8169094,14.9380512 35.533937,14.9082874 L33.5838189,14.8765157 C33.468189,14.8750984 33.3729921,14.7804331 33.3729921,14.6652165 L33.3729921,2.86954724 C33.3729921,2.81297244 33.3954921,2.75728346 33.4345276,2.71830709 C33.4755118,2.6792126 33.5291929,2.65582677 33.5867717,2.65582677 L34.9165748,2.68068898 C35.0332087,2.68068898 35.1274016,2.77535433 35.1274016,2.89151575 L35.1210827,13.1919094" id="Fill-2"></path>
                <path d="M7.31137795,14.5319882 C7.31427165,14.5329921 7.31427165,14.5354134 7.31675197,14.5383661 C7.32112205,14.5442126 7.32602362,14.5500591 7.32938976,14.5559055 C7.33281496,14.561811 7.33624016,14.5681299 7.33866142,14.5749803 C7.34161417,14.5793504 7.34450787,14.5866732 7.34698819,14.5915157 C7.34893701,14.5993701 7.35183071,14.6066929 7.35377953,14.6134843 C7.35525591,14.6188583 7.3557874,14.6261811 7.35673228,14.6330315 C7.35820866,14.6408268 7.35915354,14.6476772 7.36062992,14.6545276 C7.36062992,14.6578937 7.36062992,14.6598425 7.36062992,14.6637992 C7.36163386,14.6666929 7.36062992,14.6705906 7.36062992,14.6735433 C7.35915354,14.681811 7.35915354,14.6886614 7.35820866,14.6969882 C7.35673228,14.7028346 7.3557874,14.709626 7.35431102,14.7169488 C7.3523622,14.7223228 7.35041339,14.7291732 7.34893701,14.7350197 C7.34645669,14.7418701 7.34356299,14.7491929 7.34114173,14.7545079 C7.33866142,14.7613583 7.33576772,14.7672047 7.33086614,14.7735827 C7.3269685,14.7794291 7.32454724,14.7843307 7.32064961,14.791122 C7.31675197,14.7955512 7.31232283,14.8003937 7.30694882,14.8062992 C7.30257874,14.8116732 7.29820866,14.8169882 7.29283465,14.8218898 C7.29035433,14.8238386 7.28598425,14.8277362 7.28503937,14.8292126 C7.28255906,14.8331102 7.2801378,14.8331102 7.27718504,14.8350591 C7.27133858,14.8399016 7.26501969,14.8433268 7.25769685,14.846752 C7.25232283,14.8511811 7.24742126,14.8540748 7.24110236,14.8575 C7.23572835,14.8589764 7.22840551,14.862874 7.22255906,14.8648228 C7.21523622,14.8658268 7.20885827,14.8697244 7.20253937,14.8716732 C7.19622047,14.8745669 7.18984252,14.8745669 7.18299213,14.8750984 C7.17620079,14.8775197 7.16840551,14.8775197 7.16007874,14.8775197 C7.15812992,14.8775197 7.15570866,14.8784646 7.15175197,14.8784646 L5.31147638,14.9097047 C5.24562992,14.9097047 5.18314961,14.8809449 5.14216535,14.8292126 L2.87244094,11.9728937 L1.75145669,11.9890157 L1.74903543,14.7647835 C1.74903543,14.8809449 1.65679134,14.9751378 1.54116142,14.9770866 L0.217145669,15 C0.160570866,15 0.105885827,14.9790354 0.0663779528,14.9395276 C0.0243897638,14.9004331 0,14.8452756 0,14.7877559 L0,2.99498031 C0,2.8788189 0.0951968504,2.78220472 0.211299213,2.78220472 L2.97194882,2.75633858 C4.17395669,2.74511811 5.30905512,3.20627953 6.16305118,4.05348425 C7.03464567,4.91728346 7.51435039,6.07334646 7.51435039,7.31238189 C7.51435039,9.12047244 6.44468504,10.7884843 4.82692913,11.5443898 L7.31137795,14.5319882 Z M2.97637795,4.37698819 L1.75582677,4.38968504 L1.75293307,10.2804921 C2.15214567,10.276063 2.97100394,10.2628937 2.97100394,10.2628937 C4.56874016,10.2413976 5.86783465,8.90474409 5.86783465,7.28362205 C5.86783465,6.49057087 5.56187008,5.7507874 5.00604331,5.20222441 C4.46185039,4.66299213 3.74061024,4.37066929 2.97637795,4.37698819 L2.97637795,4.37698819 Z" id="Fill-3"></path>
                <path d="M23.0447835,4.30234252 C23.0447835,4.41998031 22.9505906,4.51417323 22.8354331,4.51612205 L20.8785236,4.53614173 L20.8785236,14.6735433 C20.8785236,14.7901772 20.7858071,14.8843701 20.6691732,14.8863189 L19.2119291,14.9097047 C19.1548819,14.9111811 19.1001969,14.8897441 19.0601575,14.8511811 C19.0187008,14.8091929 18.9962598,14.7545079 18.9962598,14.698937 L18.9962598,4.55562992 L16.8334252,4.57712598 C16.7777362,4.57712598 16.7221654,4.55562992 16.682126,4.51612205 C16.6416142,4.47507874 16.6196457,4.42192913 16.6196457,4.36529528 L16.6196457,3.01641732 C16.6196457,2.89978346 16.7138386,2.80564961 16.83,2.80417323 L22.831063,2.74706693 C22.8876378,2.74706693 22.9423228,2.76850394 22.9823031,2.80759843 C23.0223425,2.84858268 23.0447835,2.90226378 23.0447835,2.95889764 L23.0447835,4.30234252" id="Fill-4"></path>
                <path d="M31.0622835,14.9092323 C31.812874,14.5520079 32.3311417,13.7877756 32.3232874,13.0494094 L32.3086417,2.82366142 C32.3066929,2.70850394 32.2115551,2.61437008 32.0959252,2.61437008 L30.8280709,2.60557087 C30.7729134,2.60356299 30.716752,2.62653543 30.6757677,2.66751969 C30.6372638,2.70755906 30.6138189,2.76218504 30.6152953,2.81929134 L30.6079724,11.7054331 C30.6113976,11.9865354 30.5899016,12.2627953 30.5489173,12.5252953 C30.5259449,12.6736417 30.3795472,13.1274803 29.9081693,13.1274803 L26.7151181,13.1343307 C26.2641732,13.1343307 26.2768701,12.6800197 26.2534252,12.5321457 C26.2134449,12.2700591 26.1914764,11.9938583 26.195374,11.7132874 L26.1787795,2.81929134 C26.1807283,2.76318898 26.1572835,2.70850394 26.1183071,2.66799213 C26.0767913,2.62753937 26.0216339,2.60356299 25.9664764,2.60604331 L24.6791339,2.61531496 C24.5629724,2.61531496 24.4687795,2.70903543 24.4668307,2.82466535 L24.4795276,12.9757677 C24.4722047,13.7146063 25.0236614,14.5866732 25.7747244,14.9438976 L31.0622835,14.9092323" id="Fill-5"></path>
                <path d="M27.0801378,1.03464567 C27.0801378,1.17714567 26.9654528,1.29082677 26.8239567,1.29082677 L26.0933858,1.29082677 C25.9513583,1.29082677 25.8362008,1.17714567 25.8362008,1.03464567 L25.8362008,0.304547244 C25.8362008,0.163051181 25.9513583,0.0478937008 26.0933858,0.0478937008 L26.8239567,0.0478937008 C26.9654528,0.0478937008 27.0801378,0.163051181 27.0801378,0.304547244 L27.0801378,1.03464567" id="Fill-6"></path>
                <path d="M31.1476772,1.03464567 C31.1476772,1.17714567 31.0325197,1.29082677 30.8910236,1.29082677 L30.1609252,1.29082677 C30.0189567,1.29082677 29.9037402,1.17714567 29.9037402,1.03464567 L29.9037402,0.304547244 C29.9037402,0.163051181 30.0189567,0.0478937008 30.1609252,0.0478937008 L30.8910236,0.0478937008 C31.0325197,0.0478937008 31.1476772,0.163051181 31.1476772,0.304547244 L31.1476772,1.03464567" id="Fill-7"></path>
            </g>
        </g>
    </g>
</svg>